<?xml version="1.0" standalone="no"?>
<!DOCTYPE svg PUBLIC "-//W3C//DTD SVG 1.1//EN" "http://www.w3.org/Graphics/SVG/1.1/DTD/svg11.dtd" >
<svg xmlns="http://www.w3.org/2000/svg">
<metadata></metadata>
<defs>
<font id="din_next_rounded_lt_w01_bolRg" horiz-adv-x="1138" >
<font-face units-per-em="2048" ascent="1526" descent="-522" />
<missing-glyph horiz-adv-x="483" />
<glyph horiz-adv-x="2048" />
<glyph horiz-adv-x="2048" />
<glyph unicode="&#xd;" horiz-adv-x="0" />
<glyph unicode=" "  horiz-adv-x="483" />
<glyph unicode="&#x09;" horiz-adv-x="483" />
<glyph unicode="&#xa0;" horiz-adv-x="483" />
<glyph unicode="!" horiz-adv-x="638" d="M152 145q0 70 49 119t118 49q70 0 119 -49t49 -119t-49 -119t-119 -49t-118.5 49t-48.5 119zM174 561v692q0 72 41 112t104 40q61 0 102.5 -40t41.5 -112v-692q0 -72 -41.5 -112.5t-102.5 -40.5q-63 0 -104 40.5t-41 112.5z" />
<glyph unicode="&#x22;" horiz-adv-x="765" d="M119 1063v233q0 53 27.5 81t74.5 28q45 0 73 -27.5t28 -81.5v-233q0 -53 -28 -81t-73 -28q-47 0 -74.5 28t-27.5 81zM444 1063v233q0 53 28 81t75 28q45 0 72.5 -27.5t27.5 -81.5v-233q0 -53 -27.5 -81t-72.5 -28q-47 0 -75 28t-28 81z" />
<glyph unicode="#" horiz-adv-x="1120" d="M20 502q0 47 30 73.5t83 26.5h80l29 209h-56q-53 0 -82.5 27.5t-29.5 74.5t29.5 74t82.5 27h82l41 289q6 47 36 74.5t75 27.5q53 0 85 -36t23 -95l-36 -260h215l41 289q6 47 35.5 74.5t74.5 27.5q53 0 85 -36t24 -95l-37 -260h57q53 0 83 -26.5t30 -74.5q0 -47 -30 -74.5 t-83 -27.5h-84l-29 -209h60q53 0 83 -26.5t30 -73.5t-30 -75t-83 -28h-88l-41 -309q-6 -47 -36 -74.5t-75 -27.5q-53 0 -84.5 35.5t-23.5 95.5l39 280h-217l-41 -309q-6 -47 -36 -74.5t-75 -27.5q-53 0 -85 35.5t-24 95.5l39 280h-53q-53 0 -83 28t-30 75zM436 602h215 l29 209h-215z" />
<glyph unicode="$" d="M111 190q0 53 34.5 91t94.5 38q41 0 79 -22q47 -29 96.5 -46.5t96.5 -23.5v351q-180 27 -282.5 132t-102.5 269q0 86 27.5 160.5t79 131t122 93.5t156.5 47v80q0 35 19.5 53.5t48.5 18.5t48 -18.5t19 -53.5v-78q72 -6 134.5 -25.5t115.5 -48.5q70 -39 70 -110 q0 -49 -34 -87t-87 -38q-31 0 -64 14q-33 16 -65.5 27.5t-69.5 17.5v-329q193 -29 290 -134.5t97 -271.5q0 -180 -103.5 -298t-283.5 -144v-84q0 -35 -19.5 -53.5t-47.5 -18.5q-29 0 -48.5 18.5t-19.5 53.5v78q-111 4 -196 34.5t-142 65.5q-35 20 -49 49t-14 61zM410 1004 q0 -49 22.5 -85t79.5 -59v295q-102 -39 -102 -151zM647 242q104 39 105 166q0 49 -22.5 83.5t-82.5 57.5v-307z" />
<glyph unicode="%" horiz-adv-x="1673" d="M123 1042q0 72 5 117t15 80q27 82 94.5 126t168.5 44q100 0 167.5 -44t94.5 -126q10 -35 15 -80t5 -117t-5 -116.5t-15 -79.5q-27 -82 -94.5 -126t-167.5 -44t-168 44t-95 126q-10 35 -15 80t-5 116zM324 1042q0 -76 3 -108.5t7 -46.5q17 -51 72 -51t71 51q4 14 7 47 t3 108q0 76 -3 109t-7 47q-16 51 -71 51t-72 -51q-4 -14 -7 -47t-3 -109zM377 55q0 29 16 58l725 1255q33 57 90 57q39 0 63.5 -25.5t24.5 -64.5q0 -29 -16 -57l-725 -1255q-33 -57 -90 -58q-39 0 -63.5 25.5t-24.5 64.5zM985 348q0 72 5 117t16 80q27 82 94 126t168 44 q100 0 167.5 -44t94.5 -126q10 -35 15 -80t5 -117t-5 -117t-15 -79q-27 -82 -94.5 -126t-167.5 -44t-167.5 44t-94.5 126q-10 35 -15.5 79.5t-5.5 116.5zM1186 348q0 -76 3 -108.5t7 -46.5q16 -51 72 -52q55 0 71 52q4 14 7.5 46.5t3.5 108.5t-3.5 108.5t-7.5 47.5 q-16 51 -71 51t-72 -51q-4 -14 -7 -47t-3 -109z" />
<glyph unicode="&#x26;" horiz-adv-x="1327" d="M115 354q0 55 13 106.5t44 101.5t81 102.5t122 109.5q-78 98 -115 168t-37 143q0 72 29 132.5t79 104.5t117.5 68.5t145.5 24.5q82 0 148.5 -25.5t114.5 -70.5t73.5 -104.5t25.5 -127.5q0 -47 -12 -88t-39.5 -83t-73 -86t-108.5 -93l176 -223l78 88q39 45 96 45 q47 0 82 -33.5t35 -83.5q0 -47 -35 -88l-104 -123l34 -40q18 -23 31.5 -31t36.5 -12q49 -8 76.5 -38t27.5 -81t-31.5 -84t-86.5 -33h-15q-43 0 -74.5 5t-58 18.5t-50 35t-50.5 56.5l-12 14q-90 -84 -173 -118t-188 -34q-96 0 -172 28t-127 78t-77.5 118.5t-26.5 152.5z M379 375q0 -70 40 -114t118 -44q43 0 84 18.5t108 86.5l-207 264q-84 -66 -113.5 -114t-29.5 -97zM487 1092q0 -14 2.5 -26.5t11.5 -31t27.5 -44t49.5 -66.5q76 57 100 93t24 75q0 47 -30.5 78.5t-75.5 31.5q-49 0 -79 -30.5t-30 -79.5z" />
<glyph unicode="'" horiz-adv-x="440" d="M119 1063v233q0 53 27.5 81t74.5 28q45 0 73 -27.5t28 -81.5v-233q0 -53 -28 -81t-73 -28q-47 0 -74.5 28t-27.5 81z" />
<glyph unicode="(" horiz-adv-x="636" d="M104 672q0 104 12.5 201.5t38 191.5t64.5 187.5t94 191.5q45 80 117 80q49 0 79 -32t30 -79q0 -31 -15 -65q-35 -86 -62.5 -167t-46 -163t-28.5 -167t-10 -179t10 -179t28.5 -167t46 -163t62.5 -167q14 -35 15 -66q0 -47 -30 -78.5t-79 -31.5q-72 0 -117 80 q-55 98 -94 191t-64.5 187.5t-38 191.5t-12.5 202z" />
<glyph unicode=")" horiz-adv-x="636" d="M98 -70q1 31 15 66q35 86 62.5 167t46 163t28.5 167t10 179t-10 179t-28.5 167t-46.5 163t-62 167q-14 35 -15 65q0 47 30 79t79 32q70 0 117 -80q55 -98 94 -191.5t64.5 -187.5t37.5 -191.5t12 -201.5t-12 -201.5t-37.5 -192t-64.5 -187.5t-94 -191q-47 -80 -117 -80 q-49 0 -79 31.5t-30 78.5z" />
<glyph unicode="*" horiz-adv-x="749" d="M82 954q0 49 47 74l94 51l-94 51q-47 25 -47 74q0 33 21.5 54.5t52.5 21.5q29 0 51 -14l92 -58l-2 111q-2 39 20.5 62.5t57.5 23.5t57.5 -23.5t20.5 -62.5l-4 -111l94 58q23 14 51 14q31 0 52.5 -21.5t21.5 -54.5q0 -49 -47 -74l-97 -51l97 -51q47 -25 47 -74 q0 -33 -21.5 -54t-52.5 -21q-29 0 -51 14l-94 55l4 -108q2 -39 -20.5 -62.5t-57.5 -23.5t-57.5 23.5t-20.5 62.5l2 108l-92 -55q-23 -14 -51 -14q-31 0 -52.5 21.5t-21.5 53.5z" />
<glyph unicode="+" d="M94 565q0 53 35 87t94 34h209q12 0 12 12v209q0 63 36 98t89 35t89 -34.5t36 -98.5v-209q0 -12 13 -12h208q59 0 94 -34t35 -87t-34.5 -87t-94.5 -34h-208q-12 0 -13 -12v-209q0 -63 -35.5 -98t-89.5 -35q-53 0 -89 35t-36 98v209q0 12 -12 12h-209q-59 0 -94 34t-35 87z " />
<glyph unicode="," horiz-adv-x="512" d="M55 -154q0 10 2 24.5t6 29.5l97 317q14 45 48 69.5t75 24.5q53 0 92 -33.5t39 -93.5q0 -25 -8 -47l-107 -317q-14 -45 -48 -73t-75 -28q-53 0 -87 34t-34 93z" />
<glyph unicode="-" horiz-adv-x="802" d="M74 543q0 55 35.5 90t97.5 35h389q61 0 97 -35t36 -90t-36 -90t-97 -35h-389q-61 0 -97 34.5t-36 90.5z" />
<glyph unicode="." horiz-adv-x="532" d="M98 145q0 70 49.5 119t118.5 49q70 0 119 -49t49 -119t-49 -119t-119 -49t-119 49t-49 119z" />
<glyph unicode="/" horiz-adv-x="868" d="M115 90q0 29 8 51l379 1186q16 47 49 72.5t74 25.5q53 0 91 -32.5t38 -89.5q0 -29 -9 -52l-378 -1185q-16 -47 -49 -73t-74 -26q-53 0 -91 33t-38 90z" />
<glyph unicode="0" d="M119 696q0 111 2 183.5t5 120t8 77t13 53.5q45 135 148.5 210t273.5 75t273.5 -74.5t148.5 -210.5q8 -25 13.5 -54t8.5 -76.5t5 -120t2 -183.5t-2 -183.5t-5 -119.5t-8.5 -76.5t-13.5 -54.5q-45 -135 -148.5 -210t-273.5 -75t-273.5 75t-148.5 210q-8 25 -13 54.5 t-8 76.5t-5 120t-2 183zM412 696q0 -115 1 -183.5t3 -108t6 -58.5t8 -33q31 -92 139 -92q109 0 140 92q4 14 8 33t6 58.5t3 108.5t1 183q0 115 -1 183.5t-3 108.5t-6 58.5t-8 32.5q-31 92 -140 92t-139 -92q-4 -14 -8 -32.5t-6 -58.5t-3 -108.5t-1 -183.5z" />
<glyph unicode="1" d="M168 1069q0 33 17.5 64.5t54.5 56.5l219 151q41 29 83 46.5t91 17.5q74 0 117 -48t43 -126v-1092q0 -72 -41 -111.5t-103 -39.5q-63 0 -103 40t-40 111v924h-4l-129 -88q-39 -27 -86 -27q-49 0 -84 34t-35 87z" />
<glyph unicode="2" d="M115 123q0 45 19.5 83t66.5 95l434 520q41 47 61.5 93.5t20.5 99.5q0 70 -40 115t-114 45q-59 0 -99 -30t-69 -87q-45 -92 -129 -92q-55 0 -92 34.5t-37 92.5q0 8 1 16t3 18q12 55 46 107.5t89.5 92.5t131 64.5t167.5 24.5q98 0 178.5 -30.5t135.5 -84t85 -126t30 -156.5 q0 -100 -38 -180t-104 -158l-366 -432v-4h391q63 0 97 -34t34 -89q0 -53 -34 -87t-97 -34h-639q-61 0 -97 35t-36 88z" />
<glyph unicode="3" d="M145 260q0 53 35 90t94 37q80 0 132 -82q25 -41 64.5 -63.5t92.5 -22.5q80 0 126 51.5t46 130.5q0 92 -54 143.5t-130 51.5h-14q-55 0 -90 34t-35 87t34.5 87t90.5 34h14q70 0 114 46t44 126q0 74 -42 119t-114 45q-61 0 -93 -26t-48 -58q-20 -41 -54 -61.5t-73 -20.5 q-55 0 -91 35.5t-36 91.5q0 33 16 71q39 88 139.5 148.5t251.5 60.5q102 0 182 -28.5t135.5 -80t84 -122t28.5 -154.5q0 -90 -40 -163.5t-115 -123.5v-4q33 -16 64.5 -44.5t58 -70.5t43 -97.5t16.5 -123.5q0 -96 -34 -173.5t-95.5 -134t-144 -87.5t-181.5 -31 q-152 0 -257 55.5t-150 157.5q-14 31 -15 70z" />
<glyph unicode="4" d="M59 348q0 39 11.5 70t35.5 86l363 811q18 41 51 65.5t80 24.5q59 0 98 -38t39 -101q0 -35 -14 -68l-338 -743v-4h252q12 0 12 12v184q0 68 40 108t99 40q61 0 100.5 -40t39.5 -108v-184q0 -12 12 -12h8q59 0 96 -35t37 -88q0 -55 -36.5 -90t-96.5 -35h-8q-12 0 -12 -13 v-55q0 -68 -39 -107.5t-101 -39.5q-59 0 -99 40t-40 107v55q0 12 -12 13h-420q-74 0 -116 40t-42 105z" />
<glyph unicode="5" d="M152 242q0 53 35.5 89t93.5 36q70 0 125 -68q23 -29 64.5 -53.5t90.5 -24.5q55 0 95 25.5t57 72.5q8 23 13 55t5 79q0 49 -4 80.5t-12 56.5q-18 53 -57.5 74.5t-88.5 21.5q-43 0 -73.5 -15.5t-53.5 -43.5q-29 -37 -61.5 -52.5t-79.5 -15.5q-63 0 -101 39t-38 109v563 q0 57 32.5 90t92.5 33h575q59 0 95 -35t36 -88q0 -55 -35.5 -90t-95.5 -35h-436q-12 0 -12 -12v-273h6q27 27 79 47.5t130 20.5q135 0 227 -57.5t131 -174.5q14 -45 21.5 -100t7.5 -143q0 -66 -8.5 -118t-22.5 -93q-20 -66 -61 -115t-96.5 -82t-123 -50.5t-141.5 -17.5 q-80 0 -147.5 16.5t-119.5 46.5t-86 67.5t-48 80.5q-10 31 -10 54z" />
<glyph unicode="6" d="M102 416q0 90 27 172t76 172l305 565q23 41 55.5 60.5t71.5 19.5q53 0 93 -34t40 -93q0 -43 -22 -82l-203 -367l4 -2q10 6 34.5 10.5t53.5 4.5q82 0 155.5 -30t127 -84t85 -132t31.5 -172q0 -104 -35.5 -187t-98 -140.5t-148.5 -88.5t-185 -31q-100 0 -186 30 t-148.5 87.5t-97.5 138.5t-35 183zM385 414q0 -86 50 -140.5t134 -54.5t134.5 54.5t50.5 140.5t-50.5 139t-134.5 53t-134 -53t-50 -139z" />
<glyph unicode="7" d="M141 1096v161q0 63 36 99.5t102 36.5h589q78 0 120 -41t42 -113q0 -35 -10 -75t-41 -115l-385 -969q-18 -45 -55 -68.5t-80 -23.5q-59 0 -97 39t-38 98q0 31 12 61l381 951v6h-295q-12 0 -12 -13v-34q0 -66 -37 -105t-97 -39q-59 0 -97 39t-38 105z" />
<glyph unicode="8" d="M98 401q0 117 50.5 199t115.5 127v4q-49 35 -92 107.5t-43 171.5q0 80 28.5 153.5t85 130t138.5 89t188 32.5t188.5 -32.5t138.5 -89t85 -130t29 -153.5q0 -98 -43 -171t-93 -108v-4q66 -45 116 -127t50 -199q0 -96 -35.5 -173.5t-98 -133t-149.5 -86.5t-188 -31 q-102 0 -188 31t-148.5 86.5t-98.5 133t-36 173.5zM381 414q0 -86 51 -140.5t137 -54.5t137.5 54.5t51.5 140.5t-51.5 139t-137.5 53t-137 -53t-51 -139zM410 1010q0 -66 43.5 -114t115.5 -48t116 48t44 114q0 68 -44 116t-116 48t-115.5 -48.5t-43.5 -115.5z" />
<glyph unicode="9" d="M102 969q0 104 36 187t98.5 140.5t148.5 88t184 30.5q100 0 186.5 -29.5t149 -87t97 -138.5t34.5 -183q0 -90 -26.5 -172t-75.5 -172l-305 -565q-23 -41 -55.5 -60.5t-71.5 -19.5q-53 0 -93 34t-40 93q0 43 22 82l203 366l-4 2q-10 -6 -35 -10t-53 -4q-84 0 -157 29.5 t-126 84t-85 131t-32 173.5zM385 979q0 -86 50 -139.5t134 -53.5t134.5 53.5t50.5 139.5t-50.5 140.5t-134.5 54.5t-134 -54.5t-50 -140.5z" />
<glyph unicode=":" horiz-adv-x="552" d="M109 145q0 70 49 119t118 49q70 0 119 -49t49 -119t-49 -119t-119 -49t-118.5 49t-48.5 119zM109 836q0 70 49 119t118 49q70 0 119 -49.5t49 -118.5q0 -70 -49 -119t-119 -49t-118.5 49t-48.5 119z" />
<glyph unicode=";" horiz-adv-x="552" d="M55 -154q0 10 2 24.5t6 29.5l97 317q14 45 48 69.5t75 24.5q53 0 92 -33.5t39 -93.5q0 -25 -8 -47l-107 -317q-14 -45 -48 -73t-75 -28q-53 0 -87 34t-34 93zM109 836q0 70 49 119t118 49q70 0 119 -49.5t49 -118.5q0 -70 -49 -119t-119 -49t-118.5 49t-48.5 119z" />
<glyph unicode="&#x3c;" d="M94 565q0 102 133 154l637 250q31 10 58 10q51 0 86.5 -32t35.5 -85q0 -88 -92 -121l-477 -174v-4l477 -174q92 -33 92 -121q0 -53 -35.5 -84.5t-86.5 -31.5q-27 0 -58 10l-637 250q-133 51 -133 153z" />
<glyph unicode="=" d="M94 350q0 53 35 87t94 34h692q59 0 94 -34t35 -87t-34.5 -87t-94.5 -34h-692q-59 0 -94 34t-35 87zM94 780q0 53 35 87t94 34h692q59 0 94 -33.5t35 -87.5q0 -53 -34.5 -87t-94.5 -34h-692q-59 0 -94 34t-35 87z" />
<glyph unicode="&#x3e;" d="M94 268q0 88 92 121l478 174v4l-478 174q-92 33 -92 121q0 53 36 85t87 32q27 0 57 -10l637 -250q133 -51 133 -154q0 -102 -133 -153l-637 -250q-30 -10 -57 -10q-51 0 -87 31.5t-36 84.5z" />
<glyph unicode="?" horiz-adv-x="968" d="M70 1104q0 25 10 55q35 111 139.5 183.5t261.5 72.5q92 0 168 -28.5t130.5 -77.5t84 -117t29.5 -148q0 -78 -25.5 -141t-85.5 -127l-127 -141q-27 -29 -37 -52.5t-10 -47.5q0 -66 -42 -103t-99 -37q-59 0 -99 37t-40 103q0 49 17 98t73 110l110 125q47 51 64.5 89 t17.5 77q0 59 -36.5 97t-98.5 38q-57 0 -90 -26.5t-53 -73.5q-23 -47 -56.5 -68.5t-74.5 -21.5q-59 0 -95 34t-36 91zM299 145q0 70 49 119t119 49t119 -49t49 -119t-49 -119t-119 -49t-119 49t-49 119z" />
<glyph unicode="@" horiz-adv-x="1863" d="M88 543q0 186 61.5 338.5t172 261t265 169t341.5 60.5q186 0 340.5 -60.5t265.5 -169t172 -260t61 -333.5q0 -113 -29.5 -196t-80.5 -137t-116.5 -80.5t-139.5 -26.5q-98 0 -165 36.5t-101 96.5h-2q-33 -59 -94.5 -96t-176.5 -37q-111 0 -187.5 50t-107.5 148 q-14 43 -21 96.5t-7 139.5t7 139t21 96q31 98 101.5 147.5t173.5 49.5q80 0 137 -31t84 -72h4q4 33 32.5 62t82.5 29q53 0 83.5 -32t30.5 -85v-408q0 -70 32 -100.5t77 -30.5q57 0 96 54.5t39 185.5q0 139 -43 255t-122 198.5t-192.5 128t-254.5 45.5t-255 -46.5 t-194 -129.5t-122 -198.5t-42 -256.5q0 -139 42 -254t122 -197t193.5 -127t255.5 -45q111 0 195.5 17.5t174.5 54.5q27 10 48 10q39 0 67.5 -25.5t28.5 -68.5q0 -29 -16.5 -53.5t-49.5 -40.5q-109 -53 -214 -74t-234 -21q-186 0 -341 60.5t-265.5 169t-172 260.5t-61.5 334z M772 543q0 -53 4 -81.5t10 -51.5q16 -47 48 -73t86 -26q53 0 83.5 25.5t47.5 73.5q8 23 12 51t4 82q0 53 -4 81.5t-12 49.5q-16 47 -47 73.5t-84 26.5t-85 -26.5t-49 -73.5q-6 -20 -10 -49t-4 -82z" />
<glyph unicode="A" horiz-adv-x="1318" d="M68 129q0 31 10 57l377 1043q29 84 78 130t129 46t130 -46t78 -130l371 -1043q10 -27 10 -57q0 -66 -44 -103.5t-101 -37.5q-49 0 -87 27.5t-54 78.5l-58 170h-497l-56 -170q-16 -51 -54 -78.5t-87 -27.5q-57 0 -101 37.5t-44 103.5zM496 520h327l-159 488h-7z" />
<glyph unicode="B" horiz-adv-x="1249" d="M133 131v1129q0 59 35 96t96 37h432q227 0 336 -102.5t109 -268.5q0 -113 -45 -185.5t-117 -111.5v-4q35 -14 68.5 -42t59.5 -68t42 -92t16 -113q0 -207 -128 -306.5t-355 -99.5h-418q-61 0 -96 36t-35 95zM434 256q0 -12 12 -12h228q92 0 141 46t49 130q0 78 -49 125 t-141 47h-228q-12 0 -12 -12v-324zM434 836q0 -12 12 -13h211q86 0 135.5 43t49.5 121t-48.5 120t-136.5 42h-211q-12 0 -12 -12v-301z" />
<glyph unicode="C" horiz-adv-x="1177" d="M96 696q0 80 2 136.5t6.5 98.5t12.5 74.5t18 67.5q55 172 184.5 257t313.5 85q158 0 268.5 -63.5t163.5 -157.5q12 -23 19.5 -44.5t7.5 -45.5q0 -59 -40 -97t-98 -38q-39 0 -70.5 17.5t-62.5 60.5q-39 53 -81 77.5t-107 24.5q-86 0 -136.5 -41t-72.5 -113 q-6 -18 -10 -39.5t-7.5 -54.5t-4.5 -82t-1 -123t1 -123t4.5 -81.5t7.5 -54t10 -40.5q23 -72 73 -112.5t136 -40.5q66 0 107.5 24.5t80.5 77.5q31 43 62.5 60.5t70.5 17.5q57 0 97.5 -38t40.5 -97q0 -25 -7.5 -46.5t-19.5 -43.5q-53 -94 -163.5 -158t-268.5 -64 q-184 0 -313.5 85t-184.5 257q-10 35 -18 68t-12.5 75t-6.5 98t-2 136z" />
<glyph unicode="D" horiz-adv-x="1286" d="M133 131v1129q0 59 35 96t96 37h330q223 0 361.5 -75t193.5 -247q10 -31 17.5 -64.5t12.5 -77.5t8 -101.5t3 -131.5t-3 -131t-8 -101t-12.5 -78t-17.5 -64q-55 -172 -193.5 -247t-361.5 -75h-330q-61 0 -96 36t-35 95zM434 281q0 -12 12 -13h140q104 0 176 37t98 121 q10 35 17.5 99.5t7.5 170.5t-7.5 171t-17.5 100q-27 84 -98.5 120.5t-175.5 36.5h-140q-12 0 -12 -12v-831z" />
<glyph unicode="E" horiz-adv-x="1157" d="M133 133v1127q0 59 35 96t96 37h676q63 0 101 -37t38 -94q0 -55 -37.5 -92t-101.5 -37h-494q-12 0 -12 -13v-276q0 -12 12 -13h396q63 0 100 -35.5t37 -93.5q0 -57 -37 -93t-100 -36h-396q-12 0 -12 -12v-289q0 -12 12 -12h494q63 0 101 -37t38 -92q0 -57 -37.5 -94 t-101.5 -37h-676q-61 0 -96 37t-35 96z" />
<glyph unicode="F" horiz-adv-x="1140" d="M133 147v1113q0 59 35 96t96 37h676q63 0 101 -37t38 -94q0 -55 -37.5 -92t-101.5 -37h-494q-12 0 -12 -13v-293q0 -12 12 -12h394q66 0 102.5 -36t36.5 -93t-37 -93t-102 -36h-394q-12 0 -12 -12v-398q0 -72 -42 -115.5t-107 -43.5q-66 0 -109 44t-43 115z" />
<glyph unicode="G" horiz-adv-x="1286" d="M96 696q0 76 2 131.5t6.5 98.5t11.5 78.5t19 72.5q53 170 189.5 254t322.5 84q170 0 285 -61.5t170 -155.5q12 -23 19 -44t7 -46q0 -59 -39.5 -97t-97.5 -38q-39 0 -70.5 15.5t-62.5 58.5q-41 55 -92 78.5t-119 23.5q-90 0 -145.5 -42t-77.5 -114q-6 -18 -10 -41.5 t-7.5 -57.5t-4.5 -82t-1 -116t1 -116t4.5 -81.5t7.5 -58t10 -43.5q23 -72 79 -112.5t148 -40.5q80 0 140.5 39t82.5 104q10 29 13.5 62.5t3.5 74.5q0 12 -12 13h-95q-59 0 -93 32.5t-34 85.5t34 86t93 33h287q119 0 119 -119v-14q0 -92 -8 -174t-27 -141 q-53 -168 -187 -258.5t-321 -90.5q-186 0 -322.5 84t-189.5 254q-12 37 -19 72t-11.5 78t-6.5 98t-2 133z" />
<glyph unicode="H" horiz-adv-x="1347" d="M133 147v1098q0 74 43 117t109 43t107.5 -43t41.5 -117v-395q0 -12 12 -12h455q12 0 12 12v395q0 74 42 117t108 43t108.5 -43t42.5 -117v-1098q0 -74 -43 -116.5t-108 -42.5q-66 0 -108 43t-42 116v410q0 12 -12 12h-455q-12 0 -12 -12v-410q0 -74 -43 -116.5 t-108 -42.5q-66 0 -108 43t-42 116z" />
<glyph unicode="I" horiz-adv-x="567" d="M133 147v1098q0 72 43 116t109 44t107.5 -44t41.5 -116v-1098q0 -72 -42 -115.5t-107 -43.5q-66 0 -109 44t-43 115z" />
<glyph unicode="J" horiz-adv-x="1067" d="M76 199q0 53 38 90t95 37q29 0 54.5 -11.5t60.5 -33.5q53 -37 125 -37q86 0 138 53t52 182v766q0 74 42 117t107 43q66 0 109 -43t43 -117v-745q0 -258 -130 -390.5t-372 -132.5q-49 0 -97 9.5t-91 25t-78 36.5t-55 46q-41 47 -41 105z" />
<glyph unicode="K" horiz-adv-x="1259" d="M133 147v1098q0 72 43 116t109 44t107.5 -44t41.5 -116v-467l461 561q55 66 123 66q55 0 95 -37t40 -96q0 -55 -35 -96l-299 -345l352 -608q27 -47 27 -92q0 -59 -40 -101t-103 -42q-92 0 -144 88l-293 526l-184 -231v-224q0 -72 -42 -115.5t-107 -43.5q-66 0 -109 44 t-43 115z" />
<glyph unicode="L" horiz-adv-x="1126" d="M133 152v1093q0 72 43 116t109 44t107.5 -44t41.5 -116v-964q0 -12 12 -13h496q70 0 111 -36.5t41 -96.5q0 -59 -41 -97t-111 -38h-657q-70 0 -111 42t-41 110z" />
<glyph unicode="M" horiz-adv-x="1562" d="M133 133v1092q0 84 45 132t121 48q68 0 110 -38t76 -118l297 -671h9l290 671q35 80 76 118t109 38q76 0 120 -48t44 -132v-1092q0 -70 -38 -107.5t-100 -37.5q-61 0 -99 37.5t-38 107.5v672h-10l-215 -500q-33 -74 -63.5 -100.5t-84.5 -26.5q-53 0 -83.5 26.5 t-63.5 100.5l-217 500h-10v-672q0 -70 -38 -107.5t-98 -37.5q-61 0 -100 37.5t-39 107.5z" />
<glyph unicode="N" horiz-adv-x="1341" d="M133 133v1092q0 84 45 132t123 48q66 0 112 -38t87 -110l426 -759h8v762q0 70 38 107.5t99 37.5t99 -38t38 -107v-1092q0 -84 -45 -132t-123 -48q-66 0 -111.5 37.5t-86.5 109.5l-426 758h-8v-760q0 -70 -38 -107.5t-100 -37.5q-61 0 -99 37.5t-38 107.5z" />
<glyph unicode="O" horiz-adv-x="1286" d="M96 696q0 76 2 131.5t6.5 98.5t11.5 78.5t19 72.5q55 170 189.5 254t318.5 84t318.5 -84t189.5 -254q12 -37 19.5 -72.5t11.5 -78.5t6 -98.5t2 -131.5q0 -78 -2 -133t-6 -98t-11.5 -78t-19.5 -72q-55 -170 -189.5 -254t-318.5 -84t-318.5 84t-189.5 254q-12 37 -19 72 t-11.5 78t-6.5 98t-2 133zM401 696q0 -68 1 -116t4.5 -82.5t7.5 -59t10 -43.5q23 -72 78 -111.5t141 -39.5t141.5 40t77.5 111q6 18 10.5 43t7.5 59.5t4 83t1 115.5q0 68 -1 116t-4 83t-7.5 59.5t-10.5 42.5q-23 72 -78 112t-141 40t-141.5 -40t-77.5 -112q-6 -18 -10 -42.5 t-7.5 -59.5t-4.5 -83t-1 -116z" />
<glyph unicode="P" horiz-adv-x="1239" d="M133 147v1113q0 59 35 96t96 37h430q115 0 205 -33t152.5 -92.5t95.5 -141.5t33 -182q0 -98 -33 -180t-96.5 -141.5t-153.5 -92t-203 -32.5h-248q-12 0 -12 -13v-338q0 -72 -41.5 -115.5t-107.5 -43.5t-109 44t-43 115zM434 770q0 -12 12 -12h230q96 0 149.5 50t53.5 136 t-53.5 137.5t-149.5 51.5h-230q-12 0 -12 -13v-350z" />
<glyph unicode="Q" horiz-adv-x="1288" d="M96 696q0 76 2 131.5t6.5 98.5t11.5 78.5t19 72.5q55 170 189.5 254t318.5 84t318.5 -84t189.5 -254q12 -37 19.5 -72.5t11.5 -78.5t6 -98.5t2 -131.5q0 -78 -2 -133t-6 -98t-11.5 -78t-19.5 -72q-6 -18 -12 -34.5t-15 -32.5l76 -76q43 -43 43 -102q0 -57 -41 -97.5 t-98 -40.5q-59 0 -103 43l-69 70q-123 -68 -289 -68q-184 0 -318.5 84t-189.5 254q-12 37 -19 72t-11.5 78t-6.5 98t-2 133zM399 696q0 -68 1 -116t4.5 -81.5t7.5 -58t10 -43.5q23 -72 77 -112.5t144 -40.5q41 0 78 10l-51 53q-23 23 -32 48.5t-9 54.5q0 55 39 96t98 41 t102 -43l13 -15q4 35 5 85.5t1 121.5q0 68 -1 116t-4 82t-7.5 58.5t-10.5 42.5q-23 72 -77 113t-144 41t-144.5 -41t-76.5 -113q-6 -18 -10 -42.5t-7.5 -58.5t-4.5 -82t-1 -116z" />
<glyph unicode="R" horiz-adv-x="1277" d="M133 147v1113q0 59 35 96t96 37h443q106 0 194 -32t150.5 -89.5t96.5 -137t34 -173.5q0 -129 -60.5 -226.5t-169.5 -150.5l203 -369q20 -39 21 -84q0 -59 -38 -101t-106 -42q-47 0 -84 22.5t-63 71.5l-234 448h-205q-12 0 -12 -12v-371q0 -72 -42 -115.5t-107 -43.5 q-66 0 -109 44t-43 115zM434 799q0 -12 12 -13h246q86 0 137.5 47.5t51.5 124.5q0 80 -51.5 127.5t-137.5 47.5h-246q-12 0 -12 -13v-321z" />
<glyph unicode="S" horiz-adv-x="1218" d="M86 223q0 55 38 94t97 39q25 0 47.5 -7t40.5 -17q86 -47 153.5 -68.5t145.5 -21.5q111 0 169.5 46t58.5 118q0 61 -45.5 100t-169.5 55l-74 10q-215 29 -328 130.5t-113 287.5q0 96 35 175t99.5 134.5t155.5 86t204 30.5q117 0 222.5 -26.5t166.5 -65.5q72 -45 72 -121 q0 -57 -38 -94t-93 -37q-43 0 -88 23q-51 25 -112.5 41t-127.5 16q-92 0 -140 -42t-48 -108q0 -59 47 -98t170 -55l74 -10q217 -31 327.5 -131.5t110.5 -290.5q0 -94 -35 -175t-103.5 -139.5t-171 -91.5t-237.5 -33q-147 0 -258 38t-180 81q-35 23 -53.5 56.5t-18.5 70.5z " />
<glyph unicode="T" horiz-adv-x="1144" d="M23 1257q0 59 40.5 97.5t110.5 38.5h797q70 0 110.5 -38t40.5 -98q0 -59 -41 -96t-110 -37h-236q-12 0 -12 -12v-965q0 -72 -43 -115.5t-109 -43.5t-107.5 44t-41.5 115v965q0 12 -12 12h-236q-70 0 -110.5 37t-40.5 96z" />
<glyph unicode="U" horiz-adv-x="1320" d="M127 514v731q0 72 43 116t109 44t107.5 -44t41.5 -116v-741q0 -127 66.5 -193.5t167.5 -66.5q104 0 167.5 67.5t63.5 192.5v741q0 72 42 116t107 44q66 0 109 -44t43 -116v-731q0 -131 -39 -231.5t-109.5 -168t-168.5 -102.5t-215 -35q-123 0 -221.5 35t-168 102.5 t-107.5 168t-38 231.5z" />
<glyph unicode="V" horiz-adv-x="1218" d="M53 1264q0 59 41 100t107 41q106 0 145 -117l268 -829h7l253 829q37 117 146 117q66 0 105.5 -41t39.5 -100q0 -29 -10 -64l-354 -1036q-35 -98 -80 -137t-111 -39q-68 0 -112.5 39t-79.5 137l-355 1036q-10 35 -10 64z" />
<glyph unicode="W" horiz-adv-x="1769" d="M51 1262q0 61 40 102t108 41q53 0 91 -32t56 -107l182 -770h4l211 780q37 129 142 129q106 0 143 -129l217 -780h4l176 770q16 76 55.5 107.5t92.5 31.5q68 0 106.5 -41t38.5 -102q0 -12 -2 -28.5t-6 -31.5l-287 -1057q-23 -86 -62.5 -121.5t-100.5 -35.5 q-63 0 -101.5 35.5t-62.5 121.5l-211 740h-4l-207 -740q-23 -86 -62 -121.5t-102 -35.5q-61 0 -101 35.5t-63 121.5l-287 1057q-4 14 -6 30.5t-2 29.5z" />
<glyph unicode="X" horiz-adv-x="1216" d="M66 123q0 45 30 92l340 500l-315 463q-31 45 -31 92q0 57 40 96t101 39q78 0 125 -72l250 -368h4l250 368q47 72 125 72q61 0 101 -39t40 -96q0 -47 -30 -92l-318 -463l342 -500q31 -47 31 -92q0 -57 -40 -96t-101 -39q-78 0 -125 71l-275 406h-4l-274 -406 q-46 -71 -123 -71h-2q-61 0 -101 39t-40 96z" />
<glyph unicode="Y" horiz-adv-x="1163" d="M51 1270q0 59 41 97t101 38q84 0 133 -90l254 -477h6l256 477q47 90 133 90q59 0 98 -38t39 -97q0 -41 -22 -82l-359 -635v-406q0 -74 -42.5 -116.5t-108.5 -42.5q-63 0 -106.5 43t-43.5 116v406l-356 635q-23 41 -23 82z" />
<glyph unicode="Z" horiz-adv-x="1118" d="M70 143q0 27 5 50.5t16 49t29.5 55.5t45.5 67l512 755v4h-442q-68 0 -106 37t-38 96t38 97.5t106 38.5h655q78 0 118 -42t40 -102q0 -23 -4.5 -44t-13.5 -44.5t-26.5 -52.5t-43.5 -68l-521 -768v-4h465q70 0 107 -37.5t37 -97.5q0 -59 -37 -96t-107 -37h-678 q-78 0 -117.5 42t-39.5 101z" />
<glyph unicode="[" horiz-adv-x="618" d="M131 -66v1475q0 49 28.5 78t80.5 29h219q55 0 85.5 -30t30.5 -77t-30.5 -76.5t-85.5 -29.5h-62q-12 0 -12 -13v-1237q0 -12 12 -12h62q55 0 85.5 -29.5t30.5 -77.5q0 -47 -30.5 -76.5t-85.5 -29.5h-219q-51 0 -80 28.5t-29 77.5z" />
<glyph unicode="\" horiz-adv-x="868" d="M115 1303q0 57 37.5 89.5t91.5 32.5q41 0 73.5 -25.5t49.5 -72.5l378 -1186q8 -23 9 -51q0 -57 -38 -90t-91 -33q-41 0 -74 25.5t-49 73.5l-379 1185q-8 23 -8 52z" />
<glyph unicode="]" horiz-adv-x="618" d="M43 -66q0 47 30.5 77t86.5 30h61q12 0 12 12v1237q0 12 -12 13h-61q-55 0 -86 29.5t-31 76.5t30.5 77t86.5 30h219q51 0 79.5 -29t28.5 -78v-1475q0 -49 -28.5 -77.5t-79.5 -28.5h-219q-55 0 -86 29.5t-31 76.5z" />
<glyph unicode="^" d="M145 623q0 35 15 65l260 608q47 109 149 109t150 -109l260 -608q14 -31 14 -65q0 -55 -35 -85t-86 -30q-39 0 -70.5 21.5t-49.5 68.5l-181 449h-4l-180 -449q-18 -47 -50 -68.5t-71 -21.5q-51 0 -86 29.5t-35 85.5z" />
<glyph unicode="_" horiz-adv-x="1064" d="M0 -131h1065v-180h-1065v180z" />
<glyph unicode="`" horiz-adv-x="929" d="M299 1360q0 47 34 75.5t75 28.5q59 0 96 -49l88 -125q16 -23 21 -42t5 -42q0 -47 -30.5 -73.5t-75.5 -26.5q-57 0 -96 51l-90 121q-16 23 -21.5 40t-5.5 42z" />
<glyph unicode="a" horiz-adv-x="1081" d="M86 281q0 164 112.5 241.5t297.5 77.5h178q12 0 12 12v11q0 70 -49 108.5t-154 38.5q-47 0 -89 -9t-70 -20q-18 -6 -35 -10t-33 -4q-51 0 -83 30.5t-32 84.5q0 33 16.5 63.5t57.5 50.5q49 25 124 41.5t179 16.5q225 0 334 -106.5t109 -293.5v-270q0 -35 4 -55.5t14 -38.5 l27 -45q25 -41 24 -84q0 -57 -42 -95t-101 -38q-78 0 -117 55l-25 35h-2q-39 -47 -113.5 -74t-166.5 -27q-193 0 -285 81t-92 223zM358 297q1 -104 144 -104q184 0 184 137v67q0 12 -12 13h-139q-176 0 -177 -113z" />
<glyph unicode="b" horiz-adv-x="1128" d="M129 139v1114q0 72 40 112t103 40q61 0 102.5 -40t41.5 -112v-346h2q29 43 91 75t161 32q123 0 214 -67.5t130 -184.5q18 -55 26.5 -118.5t8.5 -147.5t-8.5 -147.5t-26.5 -119.5q-39 -117 -130 -184.5t-214 -67.5q-98 0 -161 34t-97 81h-2q-10 -41 -44 -72.5t-94 -31.5 q-63 0 -103 40t-40 111zM416 496q0 -106 18 -162q37 -115 152 -115q117 0 153 115q18 55 19 162q0 106 -19 161q-37 115 -153 115q-115 0 -152 -115q-18 -55 -18 -161z" />
<glyph unicode="c" horiz-adv-x="976" d="M80 496q0 78 8 134t25 101q45 139 154.5 211t267.5 72q104 0 184 -31t127 -78q31 -31 44 -57.5t13 -56.5q0 -53 -36 -88t-89 -35q-33 0 -59.5 15t-56.5 44q-47 45 -123 45q-117 0 -150 -108q-10 -29 -14 -68t-4 -100t4 -100.5t14 -67.5q33 -109 150 -109q76 0 123 45 q31 29 57 44.5t59 15.5q53 0 89 -35t36 -88q0 -31 -13 -57.5t-44 -57.5q-47 -47 -127 -78t-184 -31q-158 0 -267.5 72t-154.5 211q-16 45 -24.5 101.5t-8.5 134.5z" />
<glyph unicode="d" horiz-adv-x="1128" d="M80 496q0 84 8 147.5t27 118.5q39 117 130 184.5t214 67.5q98 0 160.5 -32t91.5 -75h2v346q0 72 41 112t102 40q63 0 103 -40t40 -112v-1114q0 -72 -40 -111.5t-103 -39.5q-59 0 -93 31.5t-44 72.5h-2q-35 -47 -97.5 -81t-160.5 -34q-123 0 -214 68t-130 184 q-18 55 -26.5 119t-8.5 148zM371 496q0 -106 18 -162q37 -115 154 -115q115 0 151 115q18 55 19 162q0 106 -19 161q-37 115 -151 115q-117 0 -154 -115q-18 -55 -18 -161z" />
<glyph unicode="e" horiz-adv-x="1079" d="M80 496q0 78 7 134t24 103q45 135 156.5 208t271.5 73q166 0 275.5 -73t152.5 -206q16 -53 24 -107.5t8 -123.5q0 -41 -24.5 -67.5t-69.5 -26.5h-526q-12 0 -12 -13q0 -27 10 -57q20 -63 73.5 -96t131.5 -33q51 0 98 14.5t88 36.5q51 31 98 31q45 0 75 -30t30 -77 q0 -63 -58 -102q-72 -49 -156.5 -78t-201.5 -29q-174 0 -286.5 74t-155.5 209q-16 47 -24.5 102.5t-8.5 133.5zM367 612q0 -12 12 -12h326q12 0 12 12q0 25 -3 41.5t-7 32.5q-16 53 -60.5 81t-105.5 28t-104.5 -28t-59.5 -81q-4 -16 -7 -32.5t-3 -41.5z" />
<glyph unicode="f" horiz-adv-x="694" d="M29 885q0 47 29.5 76.5t84.5 29.5h9q14 0 14 13v47q0 182 84 262t264 80h21q66 0 98.5 -33t32.5 -84q0 -53 -33 -86t-92 -33q-47 0 -67.5 -23.5t-20.5 -78.5v-51q0 -12 12 -13h78q55 0 84.5 -29.5t29.5 -76.5t-29.5 -77t-84.5 -30h-78q-12 0 -12 -12v-627 q0 -72 -41.5 -111.5t-102.5 -39.5q-63 0 -103 40t-40 111v627q0 12 -14 12h-9q-55 0 -84.5 30t-29.5 77z" />
<glyph unicode="g" horiz-adv-x="1114" d="M78 526q0 141 33 242q39 119 125 182.5t208 63.5q98 0 161 -34t97 -81h3q10 41 43.5 73t93.5 32q63 0 103 -40t40 -112v-743q1 -500 -493 -500q-51 0 -101.5 9t-93.5 24.5t-77 36t-52 40.5q-20 23 -29.5 47.5t-9.5 47.5q0 47 34 83.5t87 36.5q29 0 55.5 -10t56.5 -26 q35 -18 72 -29.5t72 -11.5q193 0 192 213v80h-2q-41 -53 -101 -82t-151 -29q-123 0 -208.5 63.5t-124.5 182.5q-33 100 -33 241zM369 524q0 -82 18 -137q37 -108 148 -108q109 0 145 108q18 55 18 137q0 84 -18 140q-37 108 -143 108h-2q-111 0 -148 -108q-18 -55 -18 -140z " />
<glyph unicode="h" horiz-adv-x="1132" d="M129 139v1114q0 72 40 112t103 40q61 0 102.5 -40t41.5 -112v-346h2q35 41 97.5 74t158.5 33q82 0 145.5 -28t106.5 -77t64.5 -116.5t21.5 -147.5v-506q0 -72 -40.5 -111.5t-103.5 -39.5q-61 0 -102 40t-41 111v451q0 82 -39 131t-117 49t-115.5 -49t-37.5 -131v-451 q0 -72 -41 -111.5t-103 -39.5q-63 0 -103 40t-40 111z" />
<glyph unicode="i" horiz-adv-x="544" d="M111 1253q0 68 47 115t114 47q68 0 115 -47t47 -115t-47 -114.5t-115 -46.5t-114.5 47t-46.5 114zM129 139v713q0 72 40 112t103 40q61 0 102.5 -40t41.5 -112v-713q0 -72 -41.5 -111.5t-102.5 -39.5q-63 0 -103 40t-40 111z" />
<glyph unicode="j" horiz-adv-x="544" d="M-61 -248q0 102 110 125q47 10 63.5 33.5t16.5 79.5v862q0 72 40 112t103 40q61 0 102.5 -40t41.5 -112v-860q0 -190 -89 -275.5t-259 -85.5q-63 0 -96 34t-33 87zM111 1253q0 68 47 115t114 47q68 0 115 -47t47 -115t-47 -114.5t-115 -46.5t-114.5 47t-46.5 114z" />
<glyph unicode="k" horiz-adv-x="1087" d="M129 139v1114q0 72 40 112t103 40q61 0 102.5 -40t41.5 -112v-618l309 317q51 51 111 52q47 0 80.5 -32t33.5 -83q0 -61 -45 -105l-186 -174l260 -411q23 -37 22 -80q0 -55 -40 -93t-97 -38q-82 0 -129 78l-217 364l-102 -106v-185q0 -72 -41 -111.5t-103 -39.5 q-63 0 -103 40t-40 111z" />
<glyph unicode="l" horiz-adv-x="622" d="M125 303v950q0 72 40 112t103 40q61 0 102.5 -40t41.5 -112v-925q0 -43 15 -63.5t50 -26.5q61 -10 88 -44t27 -81q0 -53 -36 -89t-114 -36h-12q-170 0 -237.5 82t-67.5 233z" />
<glyph unicode="m" horiz-adv-x="1728" d="M129 139v713q0 72 40 112t103 40q51 0 88 -28t50 -77h2q37 47 101.5 81t160.5 34q180 0 268 -129h2q53 59 129 94t182 35q88 0 154 -26.5t110 -76t66.5 -117t22.5 -149.5v-506q0 -72 -40.5 -111.5t-103.5 -39.5q-61 0 -102 40t-41 111v451q0 82 -39 131t-117 49 q-76 0 -114.5 -49t-38.5 -131v-451q0 -72 -40 -111.5t-104 -39.5q-61 0 -102 40t-41 111v451q0 82 -39 131t-117 49t-115.5 -49t-37.5 -131v-451q0 -72 -41 -111.5t-103 -39.5q-63 0 -103 40t-40 111z" />
<glyph unicode="n" horiz-adv-x="1132" d="M129 139v713q0 72 40 112t103 40q51 0 88 -28t50 -77h2q37 47 101.5 81t160.5 34q82 0 145.5 -28t106.5 -77t64.5 -116.5t21.5 -147.5v-506q0 -72 -40.5 -111.5t-103.5 -39.5q-61 0 -102 40t-41 111v451q0 82 -39 131t-117 49t-115.5 -49t-37.5 -131v-451 q0 -72 -41 -111.5t-103 -39.5q-63 0 -103 40t-40 111z" />
<glyph unicode="o" horiz-adv-x="1085" d="M80 496q0 72 8 126t25 107q45 137 155.5 211t274.5 74t274.5 -74t155.5 -211q16 -53 24.5 -107.5t8.5 -125.5q0 -72 -8.5 -126.5t-24.5 -107.5q-45 -137 -155.5 -211t-274.5 -74t-274.5 74t-155.5 211q-16 53 -24.5 107.5t-8.5 126.5zM371 496q0 -51 4 -92.5t14 -73.5 q16 -53 55.5 -82t98.5 -29t98 28.5t55 82.5q10 33 14.5 73.5t4.5 92.5q0 51 -4 92t-15 74q-16 53 -55 81.5t-98 28.5t-98 -28.5t-56 -81.5q-10 -33 -14 -74t-4 -92z" />
<glyph unicode="p" horiz-adv-x="1128" d="M129 -229v1081q0 72 40 112t103 40q59 0 93 -32t45 -73h2q35 47 97 81t161 34q123 0 214 -67.5t130 -184.5q18 -55 26.5 -118.5t8.5 -147.5t-8.5 -147.5t-26.5 -119.5q-39 -117 -130 -184.5t-214 -67.5q-98 0 -161 32t-91 75h-2v-313q0 -72 -41.5 -112t-102.5 -40 q-63 0 -103 40t-40 112zM416 496q0 -106 18 -162q37 -115 152 -115q117 0 153 115q18 55 19 162q0 106 -19 161q-37 115 -153 115q-115 0 -152 -115q-18 -55 -18 -161z" />
<glyph unicode="q" horiz-adv-x="1128" d="M80 496q0 84 8 147.5t27 118.5q39 117 130 184.5t214 67.5q98 0 160.5 -34t97.5 -81h2q10 41 44 73t93 32q63 0 103 -40t40 -112v-1081q0 -72 -40 -112t-103 -40q-61 0 -102 40t-41 112v313h-2q-29 -43 -91.5 -75t-160.5 -32q-123 0 -214 68t-130 184q-18 55 -26.5 119 t-8.5 148zM371 496q0 -106 18 -162q37 -115 154 -115q115 0 151 115q18 55 19 162q0 106 -19 161q-37 115 -151 115q-117 0 -154 -115q-18 -55 -18 -161z" />
<glyph unicode="r" horiz-adv-x="876" d="M129 139v713q0 72 40 112t103 40q51 0 89 -29t51 -82v-2h2q35 49 99.5 86t150.5 37q35 0 59.5 -5t44.5 -16q39 -18 57.5 -49t18.5 -67q0 -63 -39 -104.5t-103 -41.5q-27 0 -61 10q-35 10 -74 11q-80 0 -115.5 -54.5t-35.5 -154.5v-404q0 -72 -41.5 -111.5t-102.5 -39.5 q-63 0 -103 40t-40 111z" />
<glyph unicode="s" horiz-adv-x="1034" d="M80 186q0 47 35 81t84 34q37 0 84 -27q53 -31 112.5 -51t130.5 -20q78 0 116 25.5t38 66.5q0 35 -27.5 54.5t-115.5 29.5l-109 12q-162 18 -243 96t-81 207q0 147 106.5 233.5t303.5 86.5q84 0 161 -16.5t140 -49.5q84 -43 84 -112q0 -47 -30.5 -80t-82.5 -33 q-16 0 -34.5 5t-46.5 20q-92 43 -201 43q-66 0 -95.5 -21.5t-29.5 -56.5t26.5 -54.5t110.5 -27.5l109 -13q176 -20 252.5 -98t76.5 -203q0 -154 -115.5 -247t-326.5 -93q-117 0 -209 28t-153 67q-70 43 -70 114z" />
<glyph unicode="t" horiz-adv-x="677" d="M12 885q0 47 30 76.5t85 29.5h8q14 0 15 13v147q0 72 39.5 112t103.5 40q61 0 101 -40t40 -112v-147q0 -12 12 -13h78q55 0 85 -29.5t30 -76.5t-29.5 -77t-85.5 -30h-78q-12 0 -12 -12v-438q0 -45 17.5 -65.5t58.5 -24.5q68 -8 97.5 -44t29.5 -83q0 -53 -38 -88t-120 -35 h-12q-176 0 -246.5 81t-70.5 250v447q0 12 -15 12h-8q-55 0 -85 30t-30 77z" />
<glyph unicode="u" horiz-adv-x="1124" d="M119 346v506q0 72 41 112t104 40q61 0 101.5 -40t40.5 -112v-451q0 -82 36.5 -131t114.5 -49q76 0 114 49t38 131v451q0 72 39.5 112t103.5 40q61 0 102 -40t41 -112v-713q0 -72 -40 -111.5t-103 -39.5q-51 0 -88 27.5t-49 76.5h-2q-37 -47 -101.5 -81t-160.5 -34 q-82 0 -144.5 28t-103.5 77t-62.5 116.5t-21.5 147.5z" />
<glyph unicode="v" horiz-adv-x="1040" d="M59 868q0 59 41 97.5t101 38.5q96 0 133 -101l190 -518h4l183 518q35 100 131 101q59 0 99 -38t40 -98q0 -33 -14 -67l-256 -637q-41 -98 -80 -137t-111 -39t-110.5 39t-79.5 137l-256 637q-14 35 -15 67z" />
<glyph unicode="w" horiz-adv-x="1566" d="M78 866q0 59 40 98.5t99 39.5q102 0 137 -121l144 -502h4l141 500q37 123 141 123q102 0 140 -123l149 -500h4l137 502q35 121 138 121q59 0 98 -39t39 -99q0 -25 -10 -59l-232 -686q-44 -133 -157 -133q-123 0 -162 133l-142 475h-4l-143 -475q-43 -133 -158 -133 q-117 0 -162 133l-231 686q-10 35 -10 59z" />
<glyph unicode="x" horiz-adv-x="1054" d="M94 113q0 47 35 94l233 305l-208 272q-35 47 -35 95q0 51 35.5 88t91.5 37q70 0 119 -64l161 -213h2l162 213q49 63 119 64q55 0 91 -37t36 -88q0 -47 -35 -95l-209 -272l234 -305q35 -47 35 -94q0 -51 -36 -88t-91 -37q-70 0 -119 63l-187 246h-2l-186 -246 q-49 -63 -119 -63q-55 0 -91 36.5t-36 88.5z" />
<glyph unicode="y" horiz-adv-x="1038" d="M61 868q0 59 41 97.5t101 38.5q51 0 82.5 -27t50.5 -74l190 -506h4l177 506q35 100 131 101q59 0 99 -38t40 -98q0 -33 -14 -67l-355 -887q-33 -80 -66.5 -134t-74.5 -87t-91 -47.5t-118 -14.5h-12q-61 0 -97 34t-36 87t34.5 87t98.5 36q47 2 74.5 24.5t46.5 75.5l26 74 l-317 752q-14 35 -15 67z" />
<glyph unicode="z" horiz-adv-x="978" d="M61 123q0 41 22.5 82t70.5 94l401 449v4h-336q-63 0 -96 32.5t-33 85.5t33 87t96 34h572q57 0 92 -32.5t35 -90.5q0 -41 -22 -83t-69 -95l-399 -446v-4h363q61 0 94 -34t33 -87t-33 -86t-94 -33h-601q-59 0 -94 33t-35 90z" />
<glyph unicode="{" horiz-adv-x="731" d="M82 676q0 86 84 121q47 23 68.5 56.5t21.5 104.5v299q0 123 65.5 191t213.5 68h40q57 0 87 -30t30 -77q0 -98 -106 -111l-19 -2q-29 -4 -44 -22.5t-15 -61.5v-276q0 -117 -34 -173t-114 -85v-4q80 -29 114 -85.5t34 -172.5v-285q0 -43 15.5 -61.5t43.5 -22.5l19 -2 q106 -12 106 -111q0 -47 -29.5 -76.5t-87.5 -29.5h-40q-147 0 -213 67.5t-66 190.5v307q0 72 -21.5 105.5t-68.5 56.5q-84 35 -84 121z" />
<glyph unicode="|" horiz-adv-x="686" d="M221 -53v1450q0 59 35 95t88 36t87 -36t34 -95v-1450q0 -59 -34 -95t-87 -36t-88 35.5t-35 95.5z" />
<glyph unicode="}" horiz-adv-x="731" d="M39 -66q0 98 106 111l19 2q29 4 44 22.5t15 61.5v285q0 117 34 173t114 85v4q-80 29 -114 85t-34 173v276q0 43 -15 61.5t-44 22.5l-19 2q-106 12 -106 111q0 47 29.5 77t87.5 30h41q147 0 212.5 -68t65.5 -191v-299q0 -72 21.5 -105.5t68.5 -55.5q84 -35 84 -121 t-84 -121q-47 -23 -68.5 -56.5t-21.5 -105.5v-307q0 -123 -65.5 -190.5t-212.5 -67.5h-41q-57 0 -87 29.5t-30 76.5z" />
<glyph unicode="~" d="M98 506q0 41 27 82q39 59 107.5 104t154.5 45q66 0 114 -17.5t101 -51.5q35 -23 69 -38.5t68 -15.5q33 0 55.5 12.5t45.5 39.5q47 55 98 55q41 0 71.5 -25.5t30.5 -72.5q0 -41 -26 -82q-39 -59 -107.5 -104.5t-154.5 -45.5q-66 0 -114 17.5t-101 52.5q-35 23 -69 38 t-69 15q-33 0 -55 -12.5t-45 -38.5q-47 -55 -98 -55q-41 0 -72 25.5t-31 72.5z" />
<glyph unicode="&#xa1;" horiz-adv-x="638" d="M152 836q0 70 49 119t119 49t118.5 -49t48.5 -119t-49 -119t-118 -49q-70 0 -119 49t-49 119zM176 -272v692q0 72 41.5 112.5t102.5 40.5q63 0 104 -40.5t41 -112.5v-692q0 -72 -41 -112t-104 -40q-61 0 -102.5 40t-41.5 112z" />
<glyph unicode="&#xa2;" d="M145 496q0 78 8.5 134t24.5 101q41 123 135.5 193.5t229.5 85.5v125q0 33 18.5 51t48.5 18q29 0 47.5 -18.5t18.5 -50.5v-125q92 -12 168 -52t114 -108q18 -37 19 -72q0 -49 -33 -84t-86 -35q-57 0 -119 58q-31 27 -63 41v-525q33 14 63 41q61 57 119 58q53 0 86 -35 t33 -84q0 -35 -19 -72q-39 -68 -114.5 -107.5t-167.5 -51.5v-125q0 -33 -18.5 -51.5t-47.5 -18.5q-31 0 -49 18.5t-18 51.5v125q-135 14 -229.5 83.5t-135.5 194.5q-16 45 -24.5 101.5t-8.5 134.5zM438 496q0 -61 3.5 -99t13.5 -67q20 -72 88 -99v527q-66 -23 -88 -96 q-10 -29 -13.5 -67t-3.5 -99z" />
<glyph unicode="&#xa3;" d="M109 653q0 47 29.5 74t82.5 27h23q12 0 12 12v250q0 193 104.5 296t286.5 103q131 0 215 -55t113 -133q10 -29 10 -60q0 -55 -35 -92t-92 -37q-82 0 -121 72q-16 29 -37.5 45t-54.5 16q-100 0 -100 -124v-281q0 -12 12 -12h170q53 0 83 -27t30 -74t-30 -74.5t-83 -27.5 h-170q-12 0 -12 -12v-88q0 -139 -53 -201v-4h407q61 0 96 -34t35 -89t-34.5 -89t-96.5 -34h-631q-63 0 -98 35t-35 88q0 37 15.5 67.5t56.5 75.5q49 51 49 154v119q0 12 -12 12h-23q-53 0 -82.5 27.5t-29.5 74.5z" />
<glyph unicode="&#xa4;" d="M80 262q0 51 41 92l74 74q-47 88 -48 197q0 109 50 198l-76 76q-41 41 -41 92q0 47 33.5 83t87.5 36q51 0 92 -41l74 -76q92 51 202 51q109 0 201 -51l74 76q41 41 92 41q53 0 87 -36t34 -83q0 -51 -41 -92l-76 -76q23 -45 36 -95t13 -103t-13 -103.5t-36 -93.5l76 -74 q41 -41 41 -92q0 -47 -34 -83t-87 -36q-51 0 -92 41l-72 72q-92 -51 -203 -51q-113 0 -204 51l-72 -72q-41 -41 -92 -41q-53 0 -87 36t-34 83zM367 625q0 -88 56 -147.5t146 -59.5q88 0 144.5 59.5t56.5 147.5q0 90 -56.5 149.5t-144.5 59.5q-90 0 -146 -59.5t-56 -149.5z " />
<glyph unicode="&#xa5;" d="M104 1274q0 53 39 92t101 39q88 0 129 -92l200 -467h7l192 467q39 92 127 92q61 0 98 -39t37 -92q0 -16 -3 -33.5t-11 -34.5l-246 -504v-4h131q41 0 64.5 -23.5t23.5 -60.5t-23.5 -60.5t-64.5 -23.5h-180q-12 0 -12 -12v-69q0 -12 12 -13h180q41 0 64.5 -23.5t23.5 -60.5 t-23.5 -60.5t-64.5 -23.5h-180q-12 0 -12 -12v-117q0 -72 -41.5 -111.5t-102.5 -39.5q-63 0 -103 40t-40 111v117q0 12 -12 12h-181q-41 0 -64.5 23.5t-23.5 60.5t24 60.5t64 23.5h181q12 0 12 13v69q0 12 -12 12h-181q-41 0 -64.5 24t-23.5 60q0 37 24 60.5t64 23.5h132v4 l-246 504q-8 16 -11.5 33.5t-3.5 34.5z" />
<glyph unicode="&#xa6;" horiz-adv-x="686" d="M221 -53v483q0 61 35 96t88 35t87 -34.5t34 -96.5v-483q0 -61 -34 -96t-87 -35t-88 34.5t-35 96.5zM221 913v484q0 61 35 96t88 35t87 -35t34 -96v-484q0 -61 -34 -96t-87 -35t-88 35t-35 96z" />
<glyph unicode="&#xa7;" horiz-adv-x="1142" d="M150 514q0 104 48 185t132 128v2q-72 47 -101.5 108.5t-29.5 145.5q0 68 26.5 128.5t76.5 105.5t120 71.5t156 26.5q145 0 241 -65.5t115 -165.5q2 -6 3 -17.5t1 -17.5q0 -53 -33 -85t-88 -32q-41 0 -69.5 22.5t-45.5 63.5q-16 37 -44.5 58.5t-73.5 21.5q-59 0 -92 -31.5 t-33 -85.5q0 -66 48 -103.5t165 -68.5q322 -86 321 -391q0 -109 -53 -190.5t-127 -122.5v-2q137 -84 137 -254q0 -158 -105.5 -249t-279.5 -91q-80 0 -145.5 20.5t-113.5 55t-77.5 81t-38.5 95.5q-2 10 -2 16v12q0 53 34 85t91 32q84 0 117 -88q16 -41 49 -66.5t86 -25.5 q59 0 93 34t34 87q0 63 -48 103t-175 73q-319 82 -319 391zM410 516q0 -82 42.5 -127t118.5 -45q74 0 118 45t44 127t-44 127t-118 45q-76 0 -118.5 -45t-42.5 -127z" />
<glyph unicode="&#xa8;" horiz-adv-x="929" d="M113 1260q0 59 43 102t104 43q59 0 102.5 -43t43.5 -102q0 -61 -43.5 -104.5t-102.5 -43.5q-61 0 -104 43t-43 105zM524 1260q0 59 43 102t105 43q59 0 102 -43t43 -102q0 -61 -43 -104.5t-102 -43.5q-61 0 -104.5 43t-43.5 105z" />
<glyph unicode="&#xa9;" horiz-adv-x="1665" d="M113 696q0 154 55 285t151.5 228.5t227.5 151.5t284 54q154 0 286 -54t228.5 -151.5t151.5 -228.5t55 -285t-55 -284.5t-151.5 -228t-228.5 -152t-286 -54.5t-284.5 54.5t-227 152t-151.5 228.5t-55 284zM283 696q0 -121 41 -222t114.5 -176t173.5 -117t219 -42t220.5 42 t175 117t114.5 176t41 222q0 119 -41 221.5t-114.5 177t-175 116.5t-220.5 42t-219 -42t-173.5 -116.5t-114.5 -177t-41 -221.5zM487 696q0 68 6.5 108t16.5 68q39 111 127 169.5t213 58.5q80 0 144.5 -26.5t99.5 -67.5q27 -33 26 -72q0 -35 -25.5 -63.5t-66.5 -28.5 q-47 0 -84 35q-23 18 -41 26t-47 8q-100 0 -131 -90q-6 -16 -9 -40.5t-3 -84.5q0 -59 3 -83.5t9 -41.5q31 -90 131 -90q29 0 47.5 8.5t40.5 26.5q37 35 84 35q41 0 66.5 -28.5t25.5 -63.5q0 -39 -26 -72q-35 -41 -99.5 -67.5t-144.5 -26.5q-125 0 -213 58.5t-127 168.5 q-10 29 -16.5 69t-6.5 107z" />
<glyph unicode="&#xaa;" horiz-adv-x="729" d="M70 979q0 98 69.5 143t194.5 45h100q12 0 12 13v8q0 29 -27.5 46t-84.5 17q-37 0 -61.5 -5t-53.5 -15q-23 -8 -47 -8q-35 0 -55.5 19.5t-20.5 53.5q0 23 12.5 42.5t34.5 31.5q35 18 83 28.5t126 10.5q154 0 224.5 -61.5t70.5 -173.5v-144q0 -39 15 -59l12 -17 q23 -29 22 -63q0 -41 -27.5 -68.5t-72.5 -27.5q-53 0 -84 47l-8 12h-2q-25 -27 -71 -44t-109 -17q-129 0 -190.5 48t-61.5 138zM266 987q0 -49 74 -49q106 0 106 72v16q0 12 -12 12h-84q-47 0 -65.5 -14t-18.5 -37z" />
<glyph unicode="&#xab;" horiz-adv-x="1155" d="M57 541q0 25 11.5 44t33.5 42l287 286q39 39 88 39q41 0 69.5 -27.5t28.5 -70.5q0 -47 -38 -86l-220 -217q-10 -10 0 -21l220 -217q39 -39 38 -86q0 -43 -28.5 -70.5t-69.5 -27.5q-49 0 -88 39l-287 287q-23 23 -34 42t-11 44zM555 541q0 25 11.5 44t33.5 42l287 286 q39 39 88 39q41 0 69.5 -27.5t28.5 -70.5q0 -47 -39 -86l-219 -217q-10 -10 0 -21l219 -217q39 -39 39 -86q0 -43 -28.5 -70.5t-69.5 -27.5q-49 0 -88 39l-287 287q-23 23 -34 42t-11 44z" />
<glyph unicode="&#xac;" d="M94 565q0 53 35 87t94 34h690q53 0 87 -32.5t34 -88.5v-272q0 -63 -36 -98t-89 -35t-89 34.5t-36 98.5v139q0 12 -12 12h-549q-59 0 -94 34t-35 87z" />
<glyph unicode="&#xad;" horiz-adv-x="802" d="M74 543q0 55 35.5 90t97.5 35h389q61 0 97 -35t36 -90t-36 -90t-97 -35h-389q-61 0 -97 34.5t-36 90.5z" />
<glyph unicode="&#xae;" horiz-adv-x="901" d="M57 1010q0 82 31 153.5t83 124.5t124 83t156 30t155.5 -30t124.5 -83t83 -124.5t30 -153.5q0 -84 -30 -156t-83 -125t-124.5 -83t-155.5 -30t-156 30t-124 83t-83 125t-31 156zM145 1010q0 -68 24 -125.5t64.5 -99.5t96 -64.5t121.5 -22.5t122 22.5t97 64.5t64.5 99.5 t23.5 125.5t-23.5 124t-64.5 98t-97.5 64.5t-121.5 22.5q-66 0 -121.5 -22.5t-96 -64.5t-64.5 -98.5t-24 -123.5zM283 850v321q0 57 57 58h139q78 0 121 -37t43 -102q0 -86 -68 -119l54 -97q10 -12 10 -34q0 -23 -15.5 -37.5t-37.5 -14.5q-37 0 -60 41l-67 123h-51 q-8 0 -9 -10v-92q0 -29 -16 -45.5t-43 -16.5q-57 0 -57 62zM399 1053q0 -8 9 -9h63q59 0 59 46q0 47 -59 47h-63q-8 0 -9 -9v-75z" />
<glyph unicode="&#xaf;" horiz-adv-x="929" d="M139 1278q0 45 28 73.5t81 28.5h436q51 0 79 -28.5t28 -73.5q0 -43 -28 -71.5t-79 -28.5h-436q-53 0 -81 28.5t-28 71.5z" />
<glyph unicode="&#xb0;" horiz-adv-x="899" d="M135 1104q0 68 23.5 125t66.5 100t100.5 66.5t125.5 23.5t125 -23.5t99 -66.5t65.5 -100.5t23.5 -124.5q0 -68 -23.5 -125t-65.5 -99t-99 -65.5t-125 -23.5t-125.5 23.5t-100.5 65.5t-66.5 99t-23.5 125zM307 1104q0 -63 40.5 -105.5t103.5 -42.5q61 0 101 42t40 106 q0 66 -39 107.5t-102 41.5t-103.5 -42t-40.5 -107z" />
<glyph unicode="&#xb1;" d="M94 121q0 53 35 87t94 34h692q59 0 94 -34t35 -87t-34.5 -87t-94.5 -34h-692q-59 0 -94 34t-35 87zM94 811q0 53 35 87t94 34h209q12 0 12 12v209q0 63 36 98t89 35t89 -34.5t36 -98.5v-209q0 -12 13 -12h208q59 0 94 -34t35 -87t-34.5 -87t-94.5 -34h-208q-12 0 -13 -12 v-209q0 -63 -36 -98t-89 -35t-89 35t-36 98v209q0 12 -12 12h-209q-59 0 -94 34t-35 87z" />
<glyph unicode="&#xb2;" horiz-adv-x="733" d="M68 976q0 37 22.5 72t59.5 72l241 252q29 29 40 53t11 53q0 35 -22.5 53.5t-57.5 18.5q-29 0 -49 -13.5t-39 -41.5q-41 -59 -94 -60q-41 0 -68.5 24.5t-27.5 65.5q0 23 10 54q23 59 96.5 104t178.5 45q125 0 205.5 -66.5t80.5 -183.5q0 -66 -25.5 -116t-74.5 -99 l-195 -199v-2h209q47 0 73 -24.5t26 -65.5t-26 -66.5t-73 -25.5h-397q-51 0 -77.5 27.5t-26.5 68.5z" />
<glyph unicode="&#xb3;" horiz-adv-x="733" d="M86 1040q0 37 26.5 64.5t71.5 27.5q49 0 97 -55q29 -35 81 -35q41 0 66 23.5t25 64.5q0 39 -27 62.5t-74 23.5q-45 0 -68.5 24.5t-23.5 63.5t23.5 63.5t68.5 24.5q35 0 58.5 20.5t23.5 57.5q0 39 -22.5 59.5t-59.5 20.5q-43 0 -73 -31q-23 -23 -44.5 -37t-48.5 -14 q-39 0 -66.5 22.5t-27.5 63.5q0 18 10 45q23 53 91.5 91t166.5 38q135 0 211 -66.5t76 -171.5q0 -45 -19.5 -89t-66.5 -78v-3q37 -16 71 -65t34 -127q0 -121 -82 -192.5t-217 -71.5q-92 0 -168 33.5t-103 97.5q-10 27 -10 45z" />
<glyph unicode="&#xb4;" horiz-adv-x="929" d="M311 1206q0 23 5.5 42.5t21.5 41.5l88 125q37 49 96 49q41 0 75 -28.5t34 -75.5q0 -25 -5 -42.5t-22 -39.5l-90 -121q-39 -51 -96 -51q-45 0 -76 26.5t-31 73.5z" />
<glyph unicode="&#xb5;" horiz-adv-x="1134" d="M129 -229v1081q0 72 41 112t104 40q61 0 101.5 -40t40.5 -112v-451q0 -82 36.5 -131t114.5 -49q76 0 114 49t38 131v451q0 72 40 112t103 40q61 0 102.5 -40t41.5 -112v-713q0 -72 -40.5 -111.5t-103.5 -39.5q-51 0 -88 27.5t-49 76.5h-2q-25 -41 -79 -73.5t-122 -32.5 q-41 0 -63.5 8t-38.5 22h-2v-245q0 -72 -41 -112t-103 -40q-63 0 -104 40t-41 112z" />
<glyph unicode="&#xb6;" horiz-adv-x="1345" d="M125 938q0 96 32.5 179t95 144.5t152 96.5t203.5 35h457q57 0 89 -32t32 -89v-1526q0 -59 -33 -93t-86 -34t-86 34t-33 93v1421q0 12 -12 13h-141q-12 0 -13 -13v-1421q0 -59 -32.5 -93t-85.5 -34t-86 34t-33 93v739q-92 6 -170 42t-133.5 96.5t-86 140.5t-30.5 174z" />
<glyph unicode="&#xb7;" horiz-adv-x="532" d="M98 545q0 70 49.5 119t118.5 49q70 0 119 -49.5t49 -118.5q0 -70 -49 -119t-119 -49t-119 49t-49 119z" />
<glyph unicode="&#xb8;" horiz-adv-x="929" d="M305 -260q0 25 10 51l80 209q8 20 29 20h186q20 0 15 -20l-99 -283q-12 -41 -40.5 -60t-63.5 -19q-45 0 -81 26.5t-36 75.5z" />
<glyph unicode="&#xb9;" horiz-adv-x="733" d="M106 1523q0 25 12.5 47.5t37.5 38.5l108 68q33 20 67 33.5t75 13.5q55 0 87.5 -32t32.5 -97v-610q0 -53 -30.5 -85t-77.5 -32t-78 31.5t-31 85.5v493h-4l-47 -29q-31 -18 -65 -18q-41 0 -64 26.5t-23 65.5z" />
<glyph unicode="&#xba;" horiz-adv-x="761" d="M72 1098q0 43 4 73.5t14 57.5q59 180 291 180q231 0 291 -180q10 -27 14 -57.5t4 -73.5t-4 -74t-14 -57q-60 -181 -291 -181t-291 181q-10 27 -14 57.5t-4 73.5zM285 1098q0 -55 10 -82q20 -58 86 -58t86 58q10 27 10 82t-10 82q-20 57 -86 57t-86 -57q-10 -27 -10 -82z " />
<glyph unicode="&#xbb;" horiz-adv-x="1155" d="M82 227q0 47 39 86l219 217q10 10 0 21l-219 217q-39 39 -39 86q0 43 28.5 70.5t69.5 27.5q49 0 88 -39l287 -286q23 -23 34 -42.5t11 -43.5q0 -25 -11 -44.5t-34 -41.5l-287 -287q-39 -39 -88 -39q-41 0 -69.5 27.5t-28.5 70.5zM580 227q0 47 38 86l220 217q10 10 0 21 l-220 217q-39 39 -38 86q0 43 28.5 70.5t69.5 27.5q49 0 88 -39l287 -286q23 -23 34 -42.5t11 -43.5q0 -25 -11.5 -44.5t-33.5 -41.5l-287 -287q-39 -39 -88 -39q-41 0 -69.5 27.5t-28.5 70.5z" />
<glyph unicode="&#xbc;" horiz-adv-x="1787" d="M151 1204q0 25 12.5 47.5t37.5 38.5l108 68q33 20 67 33.5t75 13.5q55 0 87.5 -32t32.5 -97v-610q0 -53 -30.5 -85t-77.5 -32t-78 31.5t-31 85.5v493h-4l-47 -29q-31 -18 -65 -18q-41 0 -64 26.5t-23 65.5zM426 55q0 29 17 58l727 1255q33 57 90 57q39 0 63.5 -25.5 t24.5 -64.5q0 -29 -17 -57l-727 -1255q-33 -57 -90 -58q-39 0 -63.5 25.5t-24.5 64.5zM987 209q0 27 8 58.5t29 76.5l196 432q33 74 101 74q43 0 72.5 -27.5t29.5 -74.5q0 -27 -12 -54l-185 -393v-2h125q12 0 13 12v68q0 49 28.5 77.5t73.5 28.5q43 0 71.5 -28.5t28.5 -77.5 v-68q0 -12 13 -12q41 0 66.5 -24.5t25.5 -65.5t-25.5 -65.5t-66.5 -24.5q-12 0 -13 -12v-11q0 -49 -28.5 -76.5t-71.5 -27.5q-45 0 -73.5 27.5t-28.5 76.5v11q0 12 -13 12h-266q-47 0 -72.5 24.5t-25.5 65.5z" />
<glyph unicode="&#xbd;" horiz-adv-x="1857" d="M151 1204q0 25 12.5 47.5t37.5 38.5l108 68q33 20 67 33.5t75 13.5q55 0 87.5 -32t32.5 -97v-610q0 -53 -30.5 -85t-77.5 -32t-78 31.5t-31 85.5v493h-4l-47 -29q-31 -18 -65 -18q-41 0 -64 26.5t-23 65.5zM426 55q0 29 17 58l727 1255q33 57 90 57q39 0 63.5 -25.5 t24.5 -64.5q0 -29 -17 -57l-727 -1255q-33 -57 -90 -58q-39 0 -63.5 25.5t-24.5 64.5zM1117 100q0 37 22.5 72t59.5 72l241 252q29 29 40 53t11 53q0 35 -22.5 53.5t-57.5 18.5q-29 0 -49 -13.5t-39 -41.5q-41 -59 -94 -60q-41 0 -68.5 24.5t-27.5 65.5q0 23 10 54 q23 59 96.5 104t178.5 45q125 0 205.5 -66.5t80.5 -183.5q0 -66 -25.5 -116t-74.5 -99l-195 -199v-2h209q47 0 73 -24.5t26 -65.5t-26 -66.5t-73 -25.5h-397q-51 0 -77.5 27.5t-26.5 68.5z" />
<glyph unicode="&#xbe;" horiz-adv-x="1927" d="M176 721q0 37 26.5 64.5t71.5 27.5q49 0 97 -55q29 -35 81 -35q41 0 66 23.5t25 64.5q0 39 -27 62.5t-74 23.5q-45 0 -68.5 24.5t-23.5 63.5t23.5 63.5t68.5 24.5q35 0 58.5 20.5t23.5 57.5q0 39 -22.5 59.5t-59.5 20.5q-43 0 -73 -31q-23 -23 -44.5 -37t-48.5 -14 q-39 0 -66.5 22.5t-27.5 63.5q0 18 10 45q23 53 91.5 91t166.5 38q135 0 211 -66.5t76 -171.5q0 -45 -19.5 -89t-66.5 -78v-3q37 -16 71 -65t34 -127q0 -121 -82 -192.5t-217 -71.5q-92 0 -168 33.5t-103 97.5q-10 27 -10 45zM530 55q0 29 17 58l727 1255q33 57 90 57 q39 0 63.5 -25.5t24.5 -64.5q0 -29 -17 -57l-727 -1255q-33 -57 -90 -58q-39 0 -63.5 25.5t-24.5 64.5zM1086 209q0 27 8 58.5t29 76.5l196 432q33 74 101 74q43 0 72.5 -27.5t29.5 -74.5q0 -27 -12 -54l-185 -393v-2h125q12 0 13 12v68q0 49 28.5 77.5t73.5 28.5 q43 0 71.5 -28.5t28.5 -77.5v-68q0 -12 13 -12q41 0 66.5 -24.5t25.5 -65.5t-25.5 -65.5t-66.5 -24.5q-12 0 -13 -12v-11q0 -49 -28.5 -76.5t-71.5 -27.5q-45 0 -73.5 27.5t-28.5 76.5v11q0 12 -13 12h-266q-47 0 -72.5 24.5t-25.5 65.5z" />
<glyph unicode="&#xbf;" horiz-adv-x="968" d="M76 -63q0 78 25.5 141t85.5 127l127 141q27 29 37 52.5t10 47.5q0 66 42 103t99 37q59 0 99 -37t40 -103q0 -49 -17 -98t-73 -110l-110 -125q-47 -51 -64.5 -89t-17.5 -77q0 -59 36.5 -97t98.5 -38q57 0 90 26.5t53 73.5q23 47 56.5 68.5t74.5 21.5q59 0 95 -34t36 -91 q0 -25 -10 -55q-35 -111 -139.5 -183.5t-261.5 -72.5q-92 0 -168 28.5t-130.5 77.5t-84 117t-29.5 148zM334 836q0 70 49 119t119 49t119 -49t49 -119t-49 -119t-119 -49t-119 49t-49 119z" />
<glyph unicode="&#xc0;" horiz-adv-x="1318" d="M68 129q0 31 10 57l377 1043q29 84 78 130t129 46t130 -46t78 -130l371 -1043q10 -27 10 -57q0 -66 -44 -103.5t-101 -37.5q-49 0 -87 27.5t-54 78.5l-58 170h-497l-56 -170q-16 -51 -54 -78.5t-87 -27.5q-57 0 -101 37.5t-44 103.5zM381 1763q0 47 32.5 75t75.5 28 q53 0 94 -43l101 -113q39 -43 39 -96q0 -43 -31 -72t-72 -29q-57 0 -96 46l-109 114q-35 35 -34 90zM496 520h327l-159 488h-7z" />
<glyph unicode="&#xc1;" horiz-adv-x="1318" d="M68 129q0 31 10 57l377 1043q29 84 78 130t129 46t130 -46t78 -130l371 -1043q10 -27 10 -57q0 -66 -44 -103.5t-101 -37.5q-49 0 -87 27.5t-54 78.5l-58 170h-497l-56 -170q-16 -51 -54 -78.5t-87 -27.5q-57 0 -101 37.5t-44 103.5zM496 520h327l-159 488h-7zM567 1614 q0 55 35 92l104 117q41 43 94 43q43 0 76 -28t33 -75q0 -55 -35 -90l-108 -114q-39 -45 -97 -46q-41 0 -71.5 29t-30.5 72z" />
<glyph unicode="&#xc2;" horiz-adv-x="1318" d="M68 129q0 31 10 57l377 1043q29 84 78 130t129 46t130 -46t78 -130l371 -1043q10 -27 10 -57q0 -66 -44 -103.5t-101 -37.5q-49 0 -87 27.5t-54 78.5l-58 170h-497l-56 -170q-16 -51 -54 -78.5t-87 -27.5q-57 0 -101 37.5t-44 103.5zM371 1587q0 33 25 62l131 151 q29 35 59.5 54.5t73.5 19.5t73.5 -19.5t59.5 -54.5l131 -151q25 -29 25 -62q0 -37 -25.5 -59.5t-60.5 -22.5q-43 0 -80 37l-121 117h-4l-121 -117q-37 -37 -80 -37q-35 0 -60.5 22.5t-25.5 59.5zM496 520h327l-159 488h-7z" />
<glyph unicode="&#xc3;" horiz-adv-x="1318" d="M68 129q0 31 10 57l377 1043q29 84 78 130t129 46t130 -46t78 -130l371 -1043q10 -27 10 -57q0 -66 -44 -103.5t-101 -37.5q-49 0 -87 27.5t-54 78.5l-58 170h-497l-56 -170q-16 -51 -54 -78.5t-87 -27.5q-57 0 -101 37.5t-44 103.5zM324 1632q0 41 29 80q47 57 93 80 t93 23q45 0 78 -12.5t65 -33.5q35 -23 52.5 -28.5t35.5 -5.5q20 0 34 7t34 25q37 33 74 33q39 0 63.5 -24.5t24.5 -61.5q0 -41 -29 -80q-47 -57 -93 -79.5t-93 -22.5q-45 0 -78 12t-66 33q-35 23 -52 29t-36 6q-20 0 -33.5 -7.5t-33.5 -25.5q-37 -33 -74 -33 q-39 0 -63.5 24.5t-24.5 61.5zM496 520h327l-159 488h-7z" />
<glyph unicode="&#xc4;" horiz-adv-x="1318" d="M68 129q0 31 10 57l377 1043q29 84 78 130t129 46t130 -46t78 -130l371 -1043q10 -27 10 -57q0 -66 -44 -103.5t-101 -37.5q-49 0 -87 27.5t-54 78.5l-58 170h-497l-56 -170q-16 -51 -54 -78.5t-87 -27.5q-57 0 -101 37.5t-44 103.5zM308 1677q0 61 43 103.5t104 42.5 q59 0 102.5 -42t43.5 -104q0 -61 -43.5 -103t-102.5 -42q-61 0 -104 42t-43 103zM496 520h327l-159 488h-7zM719 1677q0 61 43 103.5t105 42.5q59 0 102 -42t43 -104q0 -61 -43 -103t-102 -42q-61 0 -104.5 42t-43.5 103z" />
<glyph unicode="&#xc5;" horiz-adv-x="1318" d="M68 129q0 31 10 57l377 1043q29 84 78 130t129 46t130 -46t78 -130l371 -1043q10 -27 10 -57q0 -66 -44 -103.5t-101 -37.5q-49 0 -87 27.5t-54 78.5l-58 170h-497l-56 -170q-16 -51 -54 -78.5t-87 -27.5q-57 0 -101 37.5t-44 103.5zM439 1677q0 96 62.5 157.5 t158.5 61.5t158.5 -61t62.5 -158q0 -96 -62.5 -157.5t-158.5 -61.5t-158.5 61.5t-62.5 157.5zM496 520h327l-159 488h-7zM566 1677q0 -43 26.5 -70.5t67.5 -27.5t67.5 27.5t26.5 70.5t-26.5 71t-67.5 28t-67.5 -28t-26.5 -71z" />
<glyph unicode="&#xc6;" horiz-adv-x="1894" d="M66 129q0 39 22 88l526 1038q35 72 86.5 105t133.5 33h843q63 0 101.5 -37t38.5 -94t-38 -94.5t-102 -37.5h-491q-12 0 -12 -12v-274q0 -12 12 -13h393q63 0 100 -35.5t37 -93.5q0 -57 -37 -93t-100 -36h-393q-12 0 -12 -12v-287q0 -12 12 -12h491q63 0 101.5 -37 t38.5 -94t-38 -94t-102 -37h-676q-59 0 -95 36t-36 95v121q0 12 -12 12h-414l-88 -180q-47 -96 -141 -96q-59 0 -104 37.5t-45 103.5zM567 520h291q12 0 12 12v598h-6z" />
<glyph unicode="&#xc7;" horiz-adv-x="1177" d="M96 696q0 80 2 136.5t6.5 98.5t12.5 74.5t18 67.5q55 172 184.5 257t313.5 85q158 0 268.5 -63.5t163.5 -157.5q12 -23 19.5 -44.5t7.5 -45.5q0 -59 -40 -97t-98 -38q-39 0 -70.5 17.5t-62.5 60.5q-39 53 -81 77.5t-107 24.5q-86 0 -136.5 -41t-72.5 -113 q-6 -18 -10 -39.5t-7.5 -54.5t-4.5 -82t-1 -123t1 -123t4.5 -81.5t7.5 -54t10 -40.5q23 -72 73 -112.5t136 -40.5q66 0 107.5 24.5t80.5 77.5q31 43 62.5 60.5t70.5 17.5q57 0 97.5 -38t40.5 -97q0 -25 -7.5 -46.5t-19.5 -43.5q-43 -78 -128 -136.5t-204 -76.5l-92 -269 q-12 -41 -41 -60t-63 -19q-45 0 -81 26.5t-36 75.5q0 25 10 51l76 199q-135 25 -230.5 106.5t-140.5 222.5q-10 35 -18 68t-12.5 75t-6.5 98t-2 136z" />
<glyph unicode="&#xc8;" horiz-adv-x="1157" d="M133 133v1127q0 59 35 96t96 37h676q63 0 101 -37t38 -94q0 -55 -37.5 -92t-101.5 -37h-494q-12 0 -12 -13v-276q0 -12 12 -13h396q63 0 100 -35.5t37 -93.5q0 -57 -37 -93t-100 -36h-396q-12 0 -12 -12v-289q0 -12 12 -12h494q63 0 101 -37t38 -92q0 -57 -37.5 -94 t-101.5 -37h-676q-61 0 -96 37t-35 96zM340 1763q0 47 32.5 75t75.5 28q53 0 94 -43l101 -113q39 -43 39 -96q0 -43 -31 -72t-72 -29q-57 0 -96 46l-109 114q-35 35 -34 90z" />
<glyph unicode="&#xc9;" horiz-adv-x="1157" d="M133 133v1127q0 59 35 96t96 37h676q63 0 101 -37t38 -94q0 -55 -37.5 -92t-101.5 -37h-494q-12 0 -12 -13v-276q0 -12 12 -13h396q63 0 100 -35.5t37 -93.5q0 -57 -37 -93t-100 -36h-396q-12 0 -12 -12v-289q0 -12 12 -12h494q63 0 101 -37t38 -92q0 -57 -37.5 -94 t-101.5 -37h-676q-61 0 -96 37t-35 96zM483 1614q0 55 35 92l104 117q41 43 94 43q43 0 76 -28t33 -75q0 -55 -35 -90l-108 -114q-39 -45 -97 -46q-41 0 -71.5 29t-30.5 72z" />
<glyph unicode="&#xca;" horiz-adv-x="1157" d="M133 133v1127q0 59 35 96t96 37h676q63 0 101 -37t38 -94q0 -55 -37.5 -92t-101.5 -37h-494q-12 0 -12 -13v-276q0 -12 12 -13h396q63 0 100 -35.5t37 -93.5q0 -57 -37 -93t-100 -36h-396q-12 0 -12 -12v-289q0 -12 12 -12h494q63 0 101 -37t38 -92q0 -57 -37.5 -94 t-101.5 -37h-676q-61 0 -96 37t-35 96zM313 1587q0 33 25 62l131 151q29 35 59.5 54.5t73.5 19.5t73.5 -19.5t59.5 -54.5l131 -151q25 -29 25 -62q0 -37 -25.5 -59.5t-60.5 -22.5q-43 0 -80 37l-121 117h-4l-121 -117q-37 -37 -80 -37q-35 0 -60.5 22.5t-25.5 59.5z" />
<glyph unicode="&#xcb;" horiz-adv-x="1157" d="M133 133v1127q0 59 35 96t96 37h676q63 0 101 -37t38 -94q0 -55 -37.5 -92t-101.5 -37h-494q-12 0 -12 -13v-276q0 -12 12 -13h396q63 0 100 -35.5t37 -93.5q0 -57 -37 -93t-100 -36h-396q-12 0 -12 -12v-289q0 -12 12 -12h494q63 0 101 -37t38 -92q0 -57 -37.5 -94 t-101.5 -37h-676q-61 0 -96 37t-35 96zM252 1677q0 61 43 103.5t104 42.5q59 0 102.5 -42t43.5 -104q0 -61 -43.5 -103t-102.5 -42q-61 0 -104 42t-43 103zM663 1677q0 61 43 103.5t105 42.5q59 0 102 -42t43 -104q0 -61 -43 -103t-102 -42q-61 0 -104.5 42t-43.5 103z" />
<glyph unicode="&#xcc;" horiz-adv-x="567" d="M31 1763q0 47 32.5 75t75.5 28q53 0 94 -43l101 -113q39 -43 39 -96q0 -43 -31 -72t-72 -29q-57 0 -96 46l-109 114q-35 35 -34 90zM133 147v1098q0 72 43 116t109 44t107.5 -44t41.5 -116v-1098q0 -72 -42 -115.5t-107 -43.5q-66 0 -109 44t-43 115z" />
<glyph unicode="&#xcd;" horiz-adv-x="567" d="M133 147v1098q0 72 43 116t109 44t107.5 -44t41.5 -116v-1098q0 -72 -42 -115.5t-107 -43.5q-66 0 -109 44t-43 115zM195 1614q0 55 35 92l104 117q41 43 94 43q43 0 76 -28t33 -75q0 -55 -35 -90l-108 -114q-39 -45 -97 -46q-41 0 -71.5 29t-30.5 72z" />
<glyph unicode="&#xce;" horiz-adv-x="567" d="M0 1587q0 33 25 62l131 151q29 35 59.5 54.5t73.5 19.5t73.5 -19.5t59.5 -54.5l131 -151q25 -29 25 -62q0 -37 -25.5 -59.5t-60.5 -22.5q-43 0 -80 37l-121 117h-4l-121 -117q-37 -37 -80 -37q-35 0 -60.5 22.5t-25.5 59.5zM133 147v1098q0 72 43 116t109 44t107.5 -44 t41.5 -116v-1098q0 -72 -42 -115.5t-107 -43.5q-66 0 -109 44t-43 115z" />
<glyph unicode="&#xcf;" horiz-adv-x="567" d="M-65 1677q0 61 43 103.5t104 42.5q59 0 102.5 -42t43.5 -104q0 -61 -43.5 -103t-102.5 -42q-61 0 -104 42t-43 103zM133 147v1098q0 72 43 116t109 44t107.5 -44t41.5 -116v-1098q0 -72 -42 -115.5t-107 -43.5q-66 0 -109 44t-43 115zM346 1677q0 61 43 103.5t105 42.5 q59 0 102 -42t43 -104q0 -61 -43 -103t-102 -42q-61 0 -104.5 42t-43.5 103z" />
<glyph unicode="&#xd0;" horiz-adv-x="1286" d="M0 702q0 49 30.5 80t80.5 31h10q12 0 12 12v435q0 59 35 96t96 37h330q223 0 361.5 -75t193.5 -247q10 -31 17.5 -64.5t12.5 -77.5t8 -101.5t3 -131.5t-3 -131t-8 -101t-12.5 -78t-17.5 -64q-55 -172 -193.5 -247t-361.5 -75h-330q-61 0 -96 36t-35 95v449q0 12 -12 12 h-10q-49 0 -80 30.5t-31 79.5zM436 281q0 -12 13 -13h137q104 0 176 37t98 121q10 35 17.5 99.5t7.5 170.5t-7.5 171t-17.5 100q-27 84 -98.5 120.5t-175.5 36.5h-137q-12 0 -13 -12v-287q0 -12 13 -12h92q53 0 84.5 -30.5t31.5 -80.5q0 -49 -31.5 -79.5t-84.5 -30.5h-92 q-12 0 -13 -12v-299z" />
<glyph unicode="&#xd1;" horiz-adv-x="1341" d="M133 133v1092q0 84 45 132t123 48q66 0 112 -38t87 -110l426 -759h8v762q0 70 38 107.5t99 37.5t99 -38t38 -107v-1092q0 -84 -45 -132t-123 -48q-66 0 -111.5 37.5t-86.5 109.5l-426 758h-8v-760q0 -70 -38 -107.5t-100 -37.5q-61 0 -99 37.5t-38 107.5zM342 1632 q0 41 29 80q47 57 93 80t93 23q45 0 78 -12.5t65 -33.5q35 -23 52.5 -28.5t35.5 -5.5q20 0 34 7t34 25q37 33 74 33q39 0 63.5 -24.5t24.5 -61.5q0 -41 -29 -80q-47 -57 -93 -79.5t-93 -22.5q-45 0 -78 12t-66 33q-35 23 -52 29t-36 6q-20 0 -33.5 -7.5t-33.5 -25.5 q-37 -33 -74 -33q-39 0 -63.5 24.5t-24.5 61.5z" />
<glyph unicode="&#xd2;" horiz-adv-x="1286" d="M96 696q0 76 2 131.5t6.5 98.5t11.5 78.5t19 72.5q55 170 189.5 254t318.5 84t318.5 -84t189.5 -254q12 -37 19.5 -72.5t11.5 -78.5t6 -98.5t2 -131.5q0 -78 -2 -133t-6 -98t-11.5 -78t-19.5 -72q-55 -170 -189.5 -254t-318.5 -84t-318.5 84t-189.5 254q-12 37 -19 72 t-11.5 78t-6.5 98t-2 133zM391 1763q0 47 32.5 75t75.5 28q53 0 94 -43l101 -113q39 -43 39 -96q0 -43 -31 -72t-72 -29q-57 0 -96 46l-109 114q-35 35 -34 90zM401 696q0 -68 1 -116t4.5 -82.5t7.5 -59t10 -43.5q23 -72 78 -111.5t141 -39.5t141.5 40t77.5 111 q6 18 10.5 43t7.5 59.5t4 83t1 115.5q0 68 -1 116t-4 83t-7.5 59.5t-10.5 42.5q-23 72 -78 112t-141 40t-141.5 -40t-77.5 -112q-6 -18 -10 -42.5t-7.5 -59.5t-4.5 -83t-1 -116z" />
<glyph unicode="&#xd3;" horiz-adv-x="1286" d="M96 696q0 76 2 131.5t6.5 98.5t11.5 78.5t19 72.5q55 170 189.5 254t318.5 84t318.5 -84t189.5 -254q12 -37 19.5 -72.5t11.5 -78.5t6 -98.5t2 -131.5q0 -78 -2 -133t-6 -98t-11.5 -78t-19.5 -72q-55 -170 -189.5 -254t-318.5 -84t-318.5 84t-189.5 254q-12 37 -19 72 t-11.5 78t-6.5 98t-2 133zM401 696q0 -68 1 -116t4.5 -82.5t7.5 -59t10 -43.5q23 -72 78 -111.5t141 -39.5t141.5 40t77.5 111q6 18 10.5 43t7.5 59.5t4 83t1 115.5q0 68 -1 116t-4 83t-7.5 59.5t-10.5 42.5q-23 72 -78 112t-141 40t-141.5 -40t-77.5 -112q-6 -18 -10 -42.5 t-7.5 -59.5t-4.5 -83t-1 -116zM547 1614q0 55 35 92l104 117q41 43 94 43q43 0 76 -28t33 -75q0 -55 -35 -90l-108 -114q-39 -45 -97 -46q-41 0 -71.5 29t-30.5 72z" />
<glyph unicode="&#xd4;" horiz-adv-x="1286" d="M96 696q0 76 2 131.5t6.5 98.5t11.5 78.5t19 72.5q55 170 189.5 254t318.5 84t318.5 -84t189.5 -254q12 -37 19.5 -72.5t11.5 -78.5t6 -98.5t2 -131.5q0 -78 -2 -133t-6 -98t-11.5 -78t-19.5 -72q-55 -170 -189.5 -254t-318.5 -84t-318.5 84t-189.5 254q-12 37 -19 72 t-11.5 78t-6.5 98t-2 133zM354 1587q0 33 25 62l131 151q29 35 59.5 54.5t73.5 19.5t73.5 -19.5t59.5 -54.5l131 -151q25 -29 25 -62q0 -37 -25.5 -59.5t-60.5 -22.5q-43 0 -80 37l-121 117h-4l-121 -117q-37 -37 -80 -37q-35 0 -60.5 22.5t-25.5 59.5zM401 696 q0 -68 1 -116t4.5 -82.5t7.5 -59t10 -43.5q23 -72 78 -111.5t141 -39.5t141.5 40t77.5 111q6 18 10.5 43t7.5 59.5t4 83t1 115.5q0 68 -1 116t-4 83t-7.5 59.5t-10.5 42.5q-23 72 -78 112t-141 40t-141.5 -40t-77.5 -112q-6 -18 -10 -42.5t-7.5 -59.5t-4.5 -83t-1 -116z" />
<glyph unicode="&#xd5;" horiz-adv-x="1286" d="M96 696q0 76 2 131.5t6.5 98.5t11.5 78.5t19 72.5q55 170 189.5 254t318.5 84t318.5 -84t189.5 -254q12 -37 19.5 -72.5t11.5 -78.5t6 -98.5t2 -131.5q0 -78 -2 -133t-6 -98t-11.5 -78t-19.5 -72q-55 -170 -189.5 -254t-318.5 -84t-318.5 84t-189.5 254q-12 37 -19 72 t-11.5 78t-6.5 98t-2 133zM305 1632q0 41 29 80q47 57 93 80t93 23q45 0 78 -12.5t65 -33.5q35 -23 52.5 -28.5t35.5 -5.5q20 0 34 7t34 25q37 33 74 33q39 0 63.5 -24.5t24.5 -61.5q0 -41 -29 -80q-47 -57 -93 -79.5t-93 -22.5q-45 0 -78 12t-66 33q-35 23 -52 29t-36 6 q-20 0 -33.5 -7.5t-33.5 -25.5q-37 -33 -74 -33q-39 0 -63.5 24.5t-24.5 61.5zM401 696q0 -68 1 -116t4.5 -82.5t7.5 -59t10 -43.5q23 -72 78 -111.5t141 -39.5t141.5 40t77.5 111q6 18 10.5 43t7.5 59.5t4 83t1 115.5q0 68 -1 116t-4 83t-7.5 59.5t-10.5 42.5 q-23 72 -78 112t-141 40t-141.5 -40t-77.5 -112q-6 -18 -10 -42.5t-7.5 -59.5t-4.5 -83t-1 -116z" />
<glyph unicode="&#xd6;" horiz-adv-x="1286" d="M96 696q0 76 2 131.5t6.5 98.5t11.5 78.5t19 72.5q55 170 189.5 254t318.5 84t318.5 -84t189.5 -254q12 -37 19.5 -72.5t11.5 -78.5t6 -98.5t2 -131.5q0 -78 -2 -133t-6 -98t-11.5 -78t-19.5 -72q-55 -170 -189.5 -254t-318.5 -84t-318.5 84t-189.5 254q-12 37 -19 72 t-11.5 78t-6.5 98t-2 133zM291 1677q0 61 43 103.5t104 42.5q59 0 102.5 -42t43.5 -104q0 -61 -43.5 -103t-102.5 -42q-61 0 -104 42t-43 103zM401 696q0 -68 1 -116t4.5 -82.5t7.5 -59t10 -43.5q23 -72 78 -111.5t141 -39.5t141.5 40t77.5 111q6 18 10.5 43t7.5 59.5t4 83 t1 115.5q0 68 -1 116t-4 83t-7.5 59.5t-10.5 42.5q-23 72 -78 112t-141 40t-141.5 -40t-77.5 -112q-6 -18 -10 -42.5t-7.5 -59.5t-4.5 -83t-1 -116zM702 1677q0 61 43 103.5t105 42.5q59 0 102 -42t43 -104q0 -61 -43 -103t-102 -42q-61 0 -104.5 42t-43.5 103z" />
<glyph unicode="&#xd7;" d="M176 842q0 47 31 81.5t84 34.5q51 0 96 -45l174 -174q8 -10 17 0l172 172q45 45 96 45q53 0 84 -34.5t31 -81.5q0 -45 -46 -95l-172 -172q-10 -8 0 -16l175 -174q45 -45 45 -94q0 -47 -31 -82t-84 -35q-51 0 -96 45l-174 174q-8 10 -17 0l-172 -172q-45 -45 -96 -45 q-53 0 -84 35t-31 82q0 45 45 94l172 172q10 8 0 16l-174 175q-45 45 -45 94z" />
<glyph unicode="&#xd8;" horiz-adv-x="1286" d="M96 696q0 76 2 131.5t6.5 98.5t11.5 78.5t19 72.5q55 170 189.5 254t318.5 84q176 0 303 -76l49 80q29 47 76 47q33 0 56.5 -21.5t23.5 -58.5q0 -27 -16 -53l-64 -104q49 -63 80 -152q12 -37 19.5 -72.5t11.5 -78.5t6 -98.5t2 -131.5q0 -78 -2 -133t-6 -98t-11.5 -78 t-19.5 -72q-55 -170 -189.5 -254t-318.5 -84q-178 0 -303 74l-49 -78q-29 -47 -76 -47q-33 0 -56.5 21.5t-23.5 58.5q0 27 17 53l63 103q-25 33 -45 70.5t-35 82.5q-12 37 -19 72t-11.5 78t-6.5 98t-2 133zM397 696q0 -88 2 -144t7 -93l389 645q-59 47 -152 47 q-86 0 -143.5 -40t-79.5 -112q-6 -18 -10 -42.5t-7.5 -60.5t-4.5 -84t-1 -116zM494 287q57 -45 149 -45q86 0 143.5 40t79.5 111q6 18 10.5 43t7.5 60.5t4 84t1 115.5q0 86 -2 141.5t-6 92.5z" />
<glyph unicode="&#xd9;" horiz-adv-x="1320" d="M127 514v731q0 72 43 116t109 44t107.5 -44t41.5 -116v-741q0 -127 66.5 -193.5t167.5 -66.5q104 0 167.5 67.5t63.5 192.5v741q0 72 42 116t107 44q66 0 109 -44t43 -116v-731q0 -131 -39 -231.5t-109.5 -168t-168.5 -102.5t-215 -35q-123 0 -221.5 35t-168 102.5 t-107.5 168t-38 231.5zM418 1763q0 47 32.5 75t75.5 28q53 0 94 -43l101 -113q39 -43 39 -96q0 -43 -31 -72t-72 -29q-57 0 -96 46l-109 114q-35 35 -34 90z" />
<glyph unicode="&#xda;" horiz-adv-x="1320" d="M127 514v731q0 72 43 116t109 44t107.5 -44t41.5 -116v-741q0 -127 66.5 -193.5t167.5 -66.5q104 0 167.5 67.5t63.5 192.5v741q0 72 42 116t107 44q66 0 109 -44t43 -116v-731q0 -131 -39 -231.5t-109.5 -168t-168.5 -102.5t-215 -35q-123 0 -221.5 35t-168 102.5 t-107.5 168t-38 231.5zM557 1614q0 55 35 92l104 117q41 43 94 43q43 0 76 -28t33 -75q0 -55 -35 -90l-108 -114q-39 -45 -97 -46q-41 0 -71.5 29t-30.5 72z" />
<glyph unicode="&#xdb;" horiz-adv-x="1320" d="M127 514v731q0 72 43 116t109 44t107.5 -44t41.5 -116v-741q0 -127 66.5 -193.5t167.5 -66.5q104 0 167.5 67.5t63.5 192.5v741q0 72 42 116t107 44q66 0 109 -44t43 -116v-731q0 -131 -39 -231.5t-109.5 -168t-168.5 -102.5t-215 -35q-123 0 -221.5 35t-168 102.5 t-107.5 168t-38 231.5zM371 1587q0 33 25 62l131 151q29 35 59.5 54.5t73.5 19.5t73.5 -19.5t59.5 -54.5l131 -151q25 -29 25 -62q0 -37 -25.5 -59.5t-60.5 -22.5q-43 0 -80 37l-121 117h-4l-121 -117q-37 -37 -80 -37q-35 0 -60.5 22.5t-25.5 59.5z" />
<glyph unicode="&#xdc;" horiz-adv-x="1320" d="M127 514v731q0 72 43 116t109 44t107.5 -44t41.5 -116v-741q0 -127 66.5 -193.5t167.5 -66.5q104 0 167.5 67.5t63.5 192.5v741q0 72 42 116t107 44q66 0 109 -44t43 -116v-731q0 -131 -39 -231.5t-109.5 -168t-168.5 -102.5t-215 -35q-123 0 -221.5 35t-168 102.5 t-107.5 168t-38 231.5zM308 1677q0 61 43 103.5t104 42.5q59 0 102.5 -42t43.5 -104q0 -61 -43.5 -103t-102.5 -42q-61 0 -104 42t-43 103zM719 1677q0 61 43 103.5t105 42.5q59 0 102 -42t43 -104q0 -61 -43 -103t-102 -42q-61 0 -104.5 42t-43.5 103z" />
<glyph unicode="&#xdd;" horiz-adv-x="1161" d="M51 1270q0 59 41 97t101 38q84 0 133 -90l254 -477h6l256 477q47 90 133 90q59 0 98 -38t39 -97q0 -41 -22 -82l-359 -635v-406q0 -74 -42.5 -116.5t-108.5 -42.5q-63 0 -106.5 43t-43.5 116v406l-356 635q-23 41 -23 82zM479 1614q0 55 35 92l104 117q41 43 94 43 q43 0 76 -28t33 -75q0 -55 -35 -90l-108 -114q-39 -45 -97 -46q-41 0 -71.5 29t-30.5 72z" />
<glyph unicode="&#xde;" horiz-adv-x="1239" d="M133 147v1098q0 72 43 116t109 44t107.5 -44t41.5 -116v-61q0 -12 12 -13h248q115 0 205 -32.5t152.5 -92t95.5 -141.5t33 -182q0 -98 -33 -181t-96.5 -141.5t-153.5 -91.5t-203 -33h-248q-12 0 -12 -12v-117q0 -72 -41.5 -115.5t-107.5 -43.5t-109 44t-43 115zM434 549 q0 -12 12 -12h230q96 0 149.5 50t53.5 136t-53.5 137t-149.5 51h-230q-12 0 -12 -12v-350z" />
<glyph unicode="&#xdf;" horiz-adv-x="1150" d="M129 139v854q0 199 109.5 310.5t355.5 111.5q217 0 336 -89t119 -253q0 -150 -117 -231v-4q76 -39 108 -140q12 -39 19.5 -96t7.5 -141q0 -94 -7 -154.5t-22 -101.5q-35 -111 -124.5 -162t-249.5 -51q-59 0 -91 32.5t-32 84.5q0 53 32.5 82.5t88.5 37.5q41 6 68.5 24.5 t37.5 57.5q4 16 8 48t4 106q0 78 -6 117t-12 57q-12 41 -42 58.5t-71 17.5q-59 0 -93 32.5t-34 83.5q0 53 34 86t93 33q113 0 113 113q0 115 -164 115q-96 0 -139 -42t-43 -137v-860q0 -72 -41 -111.5t-103 -39.5q-63 0 -103 40t-40 111z" />
<glyph unicode="&#xe0;" horiz-adv-x="1081" d="M86 281q0 164 112.5 241.5t297.5 77.5h178q12 0 12 12v11q0 70 -49 108.5t-154 38.5q-47 0 -89 -9t-70 -20q-18 -6 -35 -10t-33 -4q-51 0 -83 30.5t-32 84.5q0 33 16.5 63.5t57.5 50.5q49 25 124 41.5t179 16.5q225 0 334 -106.5t109 -293.5v-270q0 -35 4 -55.5t14 -38.5 l27 -45q25 -41 24 -84q0 -57 -42 -95t-101 -38q-78 0 -117 55l-25 35h-2q-39 -47 -113.5 -74t-166.5 -27q-193 0 -285 81t-92 223zM348 1360q0 47 34 75.5t75 28.5q59 0 96 -49l88 -125q16 -23 21 -42t5 -42q0 -47 -30.5 -73.5t-75.5 -26.5q-57 0 -96 51l-90 121 q-16 23 -21.5 40t-5.5 42zM358 297q1 -104 144 -104q184 0 184 137v67q0 12 -12 13h-139q-176 0 -177 -113z" />
<glyph unicode="&#xe1;" horiz-adv-x="1081" d="M86 281q0 164 112.5 241.5t297.5 77.5h178q12 0 12 12v11q0 70 -49 108.5t-154 38.5q-47 0 -89 -9t-70 -20q-18 -6 -35 -10t-33 -4q-51 0 -83 30.5t-32 84.5q0 33 16.5 63.5t57.5 50.5q49 25 124 41.5t179 16.5q225 0 334 -106.5t109 -293.5v-270q0 -35 4 -55.5t14 -38.5 l27 -45q25 -41 24 -84q0 -57 -42 -95t-101 -38q-78 0 -117 55l-25 35h-2q-39 -47 -113.5 -74t-166.5 -27q-193 0 -285 81t-92 223zM358 297q1 -104 144 -104q184 0 184 137v67q0 12 -12 13h-139q-176 0 -177 -113zM438 1206q0 23 5.5 42.5t21.5 41.5l88 125q37 49 96 49 q41 0 75 -28.5t34 -75.5q0 -25 -5 -42.5t-22 -39.5l-90 -121q-39 -51 -96 -51q-45 0 -76 26.5t-31 73.5z" />
<glyph unicode="&#xe2;" horiz-adv-x="1081" d="M86 281q0 164 112.5 241.5t297.5 77.5h178q12 0 12 12v11q0 70 -49 108.5t-154 38.5q-47 0 -89 -9t-70 -20q-18 -6 -35 -10t-33 -4q-51 0 -83 30.5t-32 84.5q0 33 16.5 63.5t57.5 50.5q49 25 124 41.5t179 16.5q225 0 334 -106.5t109 -293.5v-270q0 -35 4 -55.5t14 -38.5 l27 -45q25 -41 24 -84q0 -57 -42 -95t-101 -38q-78 0 -117 55l-25 35h-2q-39 -47 -113.5 -74t-166.5 -27q-193 0 -285 81t-92 223zM252 1184q0 33 25 61l131 152q29 35 59.5 54t73.5 19t73.5 -19t59.5 -54l131 -152q25 -29 25 -61q0 -37 -25.5 -59.5t-60.5 -22.5 q-43 0 -80 37l-121 116h-4l-121 -116q-37 -37 -80 -37q-35 0 -60.5 22.5t-25.5 59.5zM358 297q1 -104 144 -104q184 0 184 137v67q0 12 -12 13h-139q-176 0 -177 -113z" />
<glyph unicode="&#xe3;" horiz-adv-x="1081" d="M86 281q0 164 112.5 241.5t297.5 77.5h178q12 0 12 12v11q0 70 -49 108.5t-154 38.5q-47 0 -89 -9t-70 -20q-18 -6 -35 -10t-33 -4q-51 0 -83 30.5t-32 84.5q0 33 16.5 63.5t57.5 50.5q49 25 124 41.5t179 16.5q225 0 334 -106.5t109 -293.5v-270q0 -35 4 -55.5t14 -38.5 l27 -45q25 -41 24 -84q0 -57 -42 -95t-101 -38q-78 0 -117 55l-25 35h-2q-39 -47 -113.5 -74t-166.5 -27q-193 0 -285 81t-92 223zM201 1233q0 41 29 80q47 57 93 79.5t93 22.5q45 0 78 -12t65 -33q35 -23 52.5 -29t35.5 -6q20 0 34 7.5t34 25.5q37 33 74 33 q39 0 63.5 -24.5t24.5 -61.5q0 -41 -29 -80q-47 -57 -93 -79.5t-93 -22.5q-45 0 -78 12t-66 33q-35 23 -52 28.5t-36 5.5q-20 0 -33.5 -7t-33.5 -25q-37 -33 -74 -33q-39 0 -63.5 24.5t-24.5 61.5zM358 297q1 -104 144 -104q184 0 184 137v67q0 12 -12 13h-139 q-176 0 -177 -113z" />
<glyph unicode="&#xe4;" horiz-adv-x="1081" d="M86 281q0 164 112.5 241.5t297.5 77.5h178q12 0 12 12v11q0 70 -49 108.5t-154 38.5q-47 0 -89 -9t-70 -20q-18 -6 -35 -10t-33 -4q-51 0 -83 30.5t-32 84.5q0 33 16.5 63.5t57.5 50.5q49 25 124 41.5t179 16.5q225 0 334 -106.5t109 -293.5v-270q0 -35 4 -55.5t14 -38.5 l27 -45q25 -41 24 -84q0 -57 -42 -95t-101 -38q-78 0 -117 55l-25 35h-2q-39 -47 -113.5 -74t-166.5 -27q-193 0 -285 81t-92 223zM189 1260q0 59 43 102t104 43q59 0 102.5 -43t43.5 -102q0 -61 -43.5 -104.5t-102.5 -43.5q-61 0 -104 43t-43 105zM358 297q1 -104 144 -104 q184 0 184 137v67q0 12 -12 13h-139q-176 0 -177 -113zM600 1260q0 59 43 102t105 43q59 0 102 -43t43 -102q0 -61 -43 -104.5t-102 -43.5q-61 0 -104.5 43t-43.5 105z" />
<glyph unicode="&#xe5;" horiz-adv-x="1081" d="M86 281q0 164 112.5 241.5t297.5 77.5h178q12 0 12 12v11q0 70 -49 108.5t-154 38.5q-47 0 -89 -9t-70 -20q-18 -6 -35 -10t-33 -4q-51 0 -83 30.5t-32 84.5q0 33 16.5 63.5t57.5 50.5q49 25 124 41.5t179 16.5q225 0 334 -106.5t109 -293.5v-270q0 -35 4 -55.5t14 -38.5 l27 -45q25 -41 24 -84q0 -57 -42 -95t-101 -38q-78 0 -117 55l-25 35h-2q-39 -47 -113.5 -74t-166.5 -27q-193 0 -285 81t-92 223zM324 1292q0 96 62.5 157.5t158.5 61.5t158.5 -61t62.5 -158q0 -96 -62.5 -157.5t-158.5 -61.5t-158.5 61.5t-62.5 157.5zM358 297 q1 -104 144 -104q184 0 184 137v67q0 12 -12 13h-139q-176 0 -177 -113zM451 1292q0 -43 26.5 -70.5t67.5 -27.5t67.5 27.5t26.5 70.5t-26.5 71t-67.5 28t-67.5 -28t-26.5 -71z" />
<glyph unicode="&#xe6;" horiz-adv-x="1671" d="M86 281q0 164 112.5 241.5t297.5 77.5h178q12 0 12 12v11q0 70 -49 108.5t-154 38.5q-47 0 -89 -9t-70 -20q-18 -6 -35 -10t-33 -4q-51 0 -83 30.5t-32 84.5q0 33 16.5 63.5t57.5 50.5q49 25 124 41.5t179 16.5q207 0 316 -92h2q59 47 132.5 69.5t161.5 22.5 q166 0 276 -73t153 -206q16 -53 24 -107.5t8 -123.5q0 -41 -24.5 -67.5t-69.5 -26.5h-526q-12 0 -13 -13q0 -27 11 -57q20 -63 73.5 -96t131.5 -33q51 0 98 14.5t88 36.5q51 31 98 31q45 0 75 -30t30 -77q0 -63 -58 -102q-72 -49 -156.5 -78t-201.5 -29q-109 0 -196 31 t-146 90h-2q-72 -72 -151 -96.5t-189 -24.5q-193 0 -285 81t-92 223zM358 297q1 -104 144 -104q184 0 184 137v67q0 12 -12 13h-139q-176 0 -177 -113zM958 612q0 -12 13 -12h325q12 0 13 12q0 25 -3 41.5t-8 32.5q-16 53 -60 81t-105 28t-104.5 -28t-59.5 -81 q-4 -16 -7.5 -32.5t-3.5 -41.5z" />
<glyph unicode="&#xe7;" horiz-adv-x="976" d="M80 496q0 78 8 134t25 101q45 139 154.5 211t267.5 72q104 0 184 -31t127 -78q31 -31 44 -57.5t13 -56.5q0 -53 -36 -88t-89 -35q-33 0 -59.5 15t-56.5 44q-47 45 -123 45q-117 0 -150 -108q-10 -29 -14 -68t-4 -100t4 -100.5t14 -67.5q33 -109 150 -109q76 0 123 45 q31 29 57 44.5t59 15.5q53 0 89 -35t36 -88q0 -31 -13 -57.5t-44 -57.5q-37 -37 -92.5 -63.5t-126.5 -36.5l-92 -269q-12 -41 -41 -60t-64 -19q-45 0 -81 26.5t-36 75.5q0 25 11 51l75 203q-104 25 -178 91.5t-108 174.5q-16 45 -24.5 101.5t-8.5 134.5z" />
<glyph unicode="&#xe8;" horiz-adv-x="1079" d="M80 496q0 78 7 134t24 103q45 135 156.5 208t271.5 73q166 0 275.5 -73t152.5 -206q16 -53 24 -107.5t8 -123.5q0 -41 -24.5 -67.5t-69.5 -26.5h-526q-12 0 -12 -13q0 -27 10 -57q20 -63 73.5 -96t131.5 -33q51 0 98 14.5t88 36.5q51 31 98 31q45 0 75 -30t30 -77 q0 -63 -58 -102q-72 -49 -156.5 -78t-201.5 -29q-174 0 -286.5 74t-155.5 209q-16 47 -24.5 102.5t-8.5 133.5zM328 1360q0 47 34 75.5t75 28.5q59 0 96 -49l88 -125q16 -23 21 -42t5 -42q0 -47 -30.5 -73.5t-75.5 -26.5q-57 0 -96 51l-90 121q-16 23 -21.5 40t-5.5 42z M367 612q0 -12 12 -12h326q12 0 12 12q0 25 -3 41.5t-7 32.5q-16 53 -60.5 81t-105.5 28t-104.5 -28t-59.5 -81q-4 -16 -7 -32.5t-3 -41.5z" />
<glyph unicode="&#xe9;" horiz-adv-x="1079" d="M80 496q0 78 7 134t24 103q45 135 156.5 208t271.5 73q166 0 275.5 -73t152.5 -206q16 -53 24 -107.5t8 -123.5q0 -41 -24.5 -67.5t-69.5 -26.5h-526q-12 0 -12 -13q0 -27 10 -57q20 -63 73.5 -96t131.5 -33q51 0 98 14.5t88 36.5q51 31 98 31q45 0 75 -30t30 -77 q0 -63 -58 -102q-72 -49 -156.5 -78t-201.5 -29q-174 0 -286.5 74t-155.5 209q-16 47 -24.5 102.5t-8.5 133.5zM367 612q0 -12 12 -12h326q12 0 12 12q0 25 -3 41.5t-7 32.5q-16 53 -60.5 81t-105.5 28t-104.5 -28t-59.5 -81q-4 -16 -7 -32.5t-3 -41.5zM422 1206 q0 23 5.5 42.5t21.5 41.5l88 125q37 49 96 49q41 0 75 -28.5t34 -75.5q0 -25 -5 -42.5t-22 -39.5l-90 -121q-39 -51 -96 -51q-45 0 -76 26.5t-31 73.5z" />
<glyph unicode="&#xea;" horiz-adv-x="1079" d="M80 496q0 78 7 134t24 103q45 135 156.5 208t271.5 73q166 0 275.5 -73t152.5 -206q16 -53 24 -107.5t8 -123.5q0 -41 -24.5 -67.5t-69.5 -26.5h-526q-12 0 -12 -13q0 -27 10 -57q20 -63 73.5 -96t131.5 -33q51 0 98 14.5t88 36.5q51 31 98 31q45 0 75 -30t30 -77 q0 -63 -58 -102q-72 -49 -156.5 -78t-201.5 -29q-174 0 -286.5 74t-155.5 209q-16 47 -24.5 102.5t-8.5 133.5zM252 1184q0 33 25 61l131 152q29 35 59.5 54t73.5 19t73.5 -19t59.5 -54l131 -152q25 -29 25 -61q0 -37 -25.5 -59.5t-60.5 -22.5q-43 0 -80 37l-121 116h-4 l-121 -116q-37 -37 -80 -37q-35 0 -60.5 22.5t-25.5 59.5zM367 612q0 -12 12 -12h326q12 0 12 12q0 25 -3 41.5t-7 32.5q-16 53 -60.5 81t-105.5 28t-104.5 -28t-59.5 -81q-4 -16 -7 -32.5t-3 -41.5z" />
<glyph unicode="&#xeb;" horiz-adv-x="1079" d="M80 496q0 78 7 134t24 103q45 135 156.5 208t271.5 73q166 0 275.5 -73t152.5 -206q16 -53 24 -107.5t8 -123.5q0 -41 -24.5 -67.5t-69.5 -26.5h-526q-12 0 -12 -13q0 -27 10 -57q20 -63 73.5 -96t131.5 -33q51 0 98 14.5t88 36.5q51 31 98 31q45 0 75 -30t30 -77 q0 -63 -58 -102q-72 -49 -156.5 -78t-201.5 -29q-174 0 -286.5 74t-155.5 209q-16 47 -24.5 102.5t-8.5 133.5zM189 1260q0 59 43 102t104 43q59 0 102.5 -43t43.5 -102q0 -61 -43.5 -104.5t-102.5 -43.5q-61 0 -104 43t-43 105zM367 612q0 -12 12 -12h326q12 0 12 12 q0 25 -3 41.5t-7 32.5q-16 53 -60.5 81t-105.5 28t-104.5 -28t-59.5 -81q-4 -16 -7 -32.5t-3 -41.5zM600 1260q0 59 43 102t105 43q59 0 102 -43t43 -102q0 -61 -43 -104.5t-102 -43.5q-61 0 -104.5 43t-43.5 105z" />
<glyph unicode="&#xec;" horiz-adv-x="544" d="M45 1360q0 47 34 75.5t75 28.5q59 0 96 -49l88 -125q16 -23 21 -42t5 -42q0 -47 -30.5 -73.5t-75.5 -26.5q-57 0 -96 51l-90 121q-16 23 -21.5 40t-5.5 42zM129 139v713q0 72 40 112t103 40q61 0 102.5 -40t41.5 -112v-713q0 -72 -41.5 -111.5t-102.5 -39.5 q-63 0 -103 40t-40 111z" />
<glyph unicode="&#xed;" horiz-adv-x="544" d="M129 139v713q0 72 40 112t103 40q61 0 102.5 -40t41.5 -112v-713q0 -72 -41.5 -111.5t-102.5 -39.5q-63 0 -103 40t-40 111zM188 1206q0 23 5.5 42.5t21.5 41.5l88 125q37 49 96 49q41 0 75 -28.5t34 -75.5q0 -25 -5 -42.5t-22 -39.5l-90 -121q-39 -51 -96 -51 q-45 0 -76 26.5t-31 73.5z" />
<glyph unicode="&#xee;" horiz-adv-x="544" d="M-12 1184q0 33 25 61l131 152q29 35 59.5 54t73.5 19t73.5 -19t59.5 -54l131 -152q25 -29 25 -61q0 -37 -25.5 -59.5t-60.5 -22.5q-43 0 -80 37l-121 116h-4l-121 -116q-37 -37 -80 -37q-35 0 -60.5 22.5t-25.5 59.5zM129 139v713q0 72 40 112t103 40q61 0 102.5 -40 t41.5 -112v-713q0 -72 -41.5 -111.5t-102.5 -39.5q-63 0 -103 40t-40 111z" />
<glyph unicode="&#xef;" horiz-adv-x="544" d="M-75 1260q0 59 43 102t104 43q59 0 102.5 -43t43.5 -102q0 -61 -43.5 -104.5t-102.5 -43.5q-61 0 -104 43t-43 105zM129 139v713q0 72 40 112t103 40q61 0 102.5 -40t41.5 -112v-713q0 -72 -41.5 -111.5t-102.5 -39.5q-63 0 -103 40t-40 111zM336 1260q0 59 43 102 t105 43q59 0 102 -43t43 -102q0 -61 -43 -104.5t-102 -43.5q-61 0 -104.5 43t-43.5 105z" />
<glyph unicode="&#xf0;" horiz-adv-x="1085" d="M82 455q0 113 29 204q41 121 130 192t218 71q35 0 72.5 -8.5t60.5 -24.5h4l-121 158l-139 -41q-18 -6 -37 -7q-41 0 -64.5 26t-23.5 65q0 29 18.5 54t57.5 36l71 20q-12 18 -20 40t-8 40q0 53 33.5 89t93.5 36q41 0 64.5 -17.5t47.5 -50.5l45 -61l148 43q18 6 37 6 q41 0 64.5 -26.5t23.5 -65.5q0 -29 -18.5 -53.5t-57.5 -34.5l-80 -25l37 -47q109 -143 173.5 -289.5t64.5 -291.5q0 -72 -6.5 -128.5t-22.5 -103.5q-43 -135 -159 -209t-275 -74q-166 0 -278.5 74t-153.5 203q-16 47 -22.5 97t-6.5 104zM371 455q0 -72 18 -129 q35 -107 154 -107q121 0 155 107q18 57 19 129q0 72 -19 131q-35 106 -155 106q-119 0 -154 -106q-18 -59 -18 -131z" />
<glyph unicode="&#xf1;" horiz-adv-x="1132" d="M129 139v713q0 72 40 112t103 40q51 0 88 -28t50 -77h2q37 47 101.5 81t160.5 34q82 0 145.5 -28t106.5 -77t64.5 -116.5t21.5 -147.5v-506q0 -72 -40.5 -111.5t-103.5 -39.5q-61 0 -102 40t-41 111v451q0 82 -39 131t-117 49t-115.5 -49t-37.5 -131v-451 q0 -72 -41 -111.5t-103 -39.5q-63 0 -103 40t-40 111zM227 1233q0 41 29 80q47 57 93 79.5t93 22.5q45 0 78 -12t65 -33q35 -23 52.5 -29t35.5 -6q20 0 34 7.5t34 25.5q37 33 74 33q39 0 63.5 -24.5t24.5 -61.5q0 -41 -29 -80q-47 -57 -93 -79.5t-93 -22.5q-45 0 -78 12 t-66 33q-35 23 -52 28.5t-36 5.5q-20 0 -33.5 -7t-33.5 -25q-37 -33 -74 -33q-39 0 -63.5 24.5t-24.5 61.5z" />
<glyph unicode="&#xf2;" horiz-adv-x="1085" d="M80 496q0 72 8 126t25 107q45 137 155.5 211t274.5 74t274.5 -74t155.5 -211q16 -53 24.5 -107.5t8.5 -125.5q0 -72 -8.5 -126.5t-24.5 -107.5q-45 -137 -155.5 -211t-274.5 -74t-274.5 74t-155.5 211q-16 53 -24.5 107.5t-8.5 126.5zM317 1360q0 47 34 75.5t75 28.5 q59 0 96 -49l88 -125q16 -23 21 -42t5 -42q0 -47 -30.5 -73.5t-75.5 -26.5q-57 0 -96 51l-90 121q-16 23 -21.5 40t-5.5 42zM371 496q0 -51 4 -92.5t14 -73.5q16 -53 55.5 -82t98.5 -29t98 28.5t55 82.5q10 33 14.5 73.5t4.5 92.5q0 51 -4 92t-15 74q-16 53 -55 81.5 t-98 28.5t-98 -28.5t-56 -81.5q-10 -33 -14 -74t-4 -92z" />
<glyph unicode="&#xf3;" horiz-adv-x="1085" d="M80 496q0 72 8 126t25 107q45 137 155.5 211t274.5 74t274.5 -74t155.5 -211q16 -53 24.5 -107.5t8.5 -125.5q0 -72 -8.5 -126.5t-24.5 -107.5q-45 -137 -155.5 -211t-274.5 -74t-274.5 74t-155.5 211q-16 53 -24.5 107.5t-8.5 126.5zM371 496q0 -51 4 -92.5t14 -73.5 q16 -53 55.5 -82t98.5 -29t98 28.5t55 82.5q10 33 14.5 73.5t4.5 92.5q0 51 -4 92t-15 74q-16 53 -55 81.5t-98 28.5t-98 -28.5t-56 -81.5q-10 -33 -14 -74t-4 -92zM448 1206q0 23 5.5 42.5t21.5 41.5l88 125q37 49 96 49q41 0 75 -28.5t34 -75.5q0 -25 -5 -42.5t-22 -39.5 l-90 -121q-39 -51 -96 -51q-45 0 -76 26.5t-31 73.5z" />
<glyph unicode="&#xf4;" horiz-adv-x="1085" d="M80 496q0 72 8 126t25 107q45 137 155.5 211t274.5 74t274.5 -74t155.5 -211q16 -53 24.5 -107.5t8.5 -125.5q0 -72 -8.5 -126.5t-24.5 -107.5q-45 -137 -155.5 -211t-274.5 -74t-274.5 74t-155.5 211q-16 53 -24.5 107.5t-8.5 126.5zM254 1184q0 33 25 61l131 152 q29 35 59.5 54t73.5 19t73.5 -19t59.5 -54l131 -152q25 -29 25 -61q0 -37 -25.5 -59.5t-60.5 -22.5q-43 0 -80 37l-121 116h-4l-121 -116q-37 -37 -80 -37q-35 0 -60.5 22.5t-25.5 59.5zM371 496q0 -51 4 -92.5t14 -73.5q16 -53 55.5 -82t98.5 -29t98 28.5t55 82.5 q10 33 14.5 73.5t4.5 92.5q0 51 -4 92t-15 74q-16 53 -55 81.5t-98 28.5t-98 -28.5t-56 -81.5q-10 -33 -14 -74t-4 -92z" />
<glyph unicode="&#xf5;" horiz-adv-x="1085" d="M80 496q0 72 8 126t25 107q45 137 155.5 211t274.5 74t274.5 -74t155.5 -211q16 -53 24.5 -107.5t8.5 -125.5q0 -72 -8.5 -126.5t-24.5 -107.5q-45 -137 -155.5 -211t-274.5 -74t-274.5 74t-155.5 211q-16 53 -24.5 107.5t-8.5 126.5zM205 1233q0 41 29 80q47 57 93 79.5 t93 22.5q45 0 78 -12t65 -33q35 -23 52.5 -29t35.5 -6q20 0 34 7.5t34 25.5q37 33 74 33q39 0 63.5 -24.5t24.5 -61.5q0 -41 -29 -80q-47 -57 -93 -79.5t-93 -22.5q-45 0 -78 12t-66 33q-35 23 -52 28.5t-36 5.5q-20 0 -33.5 -7t-33.5 -25q-37 -33 -74 -33q-39 0 -63.5 24.5 t-24.5 61.5zM371 496q0 -51 4 -92.5t14 -73.5q16 -53 55.5 -82t98.5 -29t98 28.5t55 82.5q10 33 14.5 73.5t4.5 92.5q0 51 -4 92t-15 74q-16 53 -55 81.5t-98 28.5t-98 -28.5t-56 -81.5q-10 -33 -14 -74t-4 -92z" />
<glyph unicode="&#xf6;" horiz-adv-x="1085" d="M80 496q0 72 8 126t25 107q45 137 155.5 211t274.5 74t274.5 -74t155.5 -211q16 -53 24.5 -107.5t8.5 -125.5q0 -72 -8.5 -126.5t-24.5 -107.5q-45 -137 -155.5 -211t-274.5 -74t-274.5 74t-155.5 211q-16 53 -24.5 107.5t-8.5 126.5zM191 1260q0 59 43 102t104 43 q59 0 102.5 -43t43.5 -102q0 -61 -43.5 -104.5t-102.5 -43.5q-61 0 -104 43t-43 105zM371 496q0 -51 4 -92.5t14 -73.5q16 -53 55.5 -82t98.5 -29t98 28.5t55 82.5q10 33 14.5 73.5t4.5 92.5q0 51 -4 92t-15 74q-16 53 -55 81.5t-98 28.5t-98 -28.5t-56 -81.5 q-10 -33 -14 -74t-4 -92zM602 1260q0 59 43 102t105 43q59 0 102 -43t43 -102q0 -61 -43 -104.5t-102 -43.5q-61 0 -104.5 43t-43.5 105z" />
<glyph unicode="&#xf7;" d="M94 565q0 53 35 87t94 34h692q59 0 94 -34t35 -87t-34.5 -87t-94.5 -34h-692q-59 0 -94 34t-35 87zM416 182q0 66 45 111t110 45q66 0 111 -45t45 -111t-45 -110.5t-111 -44.5t-110.5 45t-44.5 110zM416 948q0 66 45 111t110 45q66 0 111 -45t45 -111t-45 -110.5 t-111 -44.5t-110.5 45t-44.5 110z" />
<glyph unicode="&#xf8;" horiz-adv-x="1085" d="M80 496q0 72 8 126t25 107q45 137 155.5 211t274.5 74q147 0 250 -60l59 80q25 33 57 33q23 0 41.5 -16.5t18.5 -40.5q0 -25 -19 -49l-61 -84q57 -63 84 -148q16 -53 24.5 -107.5t8.5 -125.5q0 -72 -8.5 -126.5t-24.5 -107.5q-45 -137 -155.5 -211t-274.5 -74 q-152 0 -256 62l-58 -80q-24 -33 -57 -33q-23 0 -41 16.5t-18 41.5t18 49l62 84q-51 57 -80 145q-16 53 -24.5 107.5t-8.5 126.5zM367 496q0 -39 2 -73t6 -63l266 385q-41 29 -98 29q-59 0 -100.5 -28.5t-57.5 -81.5q-10 -33 -14 -75t-4 -93zM444 244q40 -27 99 -27 t100 28.5t57 82.5q10 33 14.5 74.5t4.5 93.5q0 39 -3 71.5t-7 61.5z" />
<glyph unicode="&#xf9;" horiz-adv-x="1124" d="M119 346v506q0 72 41 112t104 40q61 0 101.5 -40t40.5 -112v-451q0 -82 36.5 -131t114.5 -49q76 0 114 49t38 131v451q0 72 39.5 112t103.5 40q61 0 102 -40t41 -112v-713q0 -72 -40 -111.5t-103 -39.5q-51 0 -88 27.5t-49 76.5h-2q-37 -47 -101.5 -81t-160.5 -34 q-82 0 -144.5 28t-103.5 77t-62.5 116.5t-21.5 147.5zM342 1360q0 47 34 75.5t75 28.5q59 0 96 -49l88 -125q16 -23 21 -42t5 -42q0 -47 -30.5 -73.5t-75.5 -26.5q-57 0 -96 51l-90 121q-16 23 -21.5 40t-5.5 42z" />
<glyph unicode="&#xfa;" horiz-adv-x="1124" d="M119 346v506q0 72 41 112t104 40q61 0 101.5 -40t40.5 -112v-451q0 -82 36.5 -131t114.5 -49q76 0 114 49t38 131v451q0 72 39.5 112t103.5 40q61 0 102 -40t41 -112v-713q0 -72 -40 -111.5t-103 -39.5q-51 0 -88 27.5t-49 76.5h-2q-37 -47 -101.5 -81t-160.5 -34 q-82 0 -144.5 28t-103.5 77t-62.5 116.5t-21.5 147.5zM458 1206q0 23 5.5 42.5t21.5 41.5l88 125q37 49 96 49q41 0 75 -28.5t34 -75.5q0 -25 -5 -42.5t-22 -39.5l-90 -121q-39 -51 -96 -51q-45 0 -76 26.5t-31 73.5z" />
<glyph unicode="&#xfb;" horiz-adv-x="1124" d="M119 346v506q0 72 41 112t104 40q61 0 101.5 -40t40.5 -112v-451q0 -82 36.5 -131t114.5 -49q76 0 114 49t38 131v451q0 72 39.5 112t103.5 40q61 0 102 -40t41 -112v-713q0 -72 -40 -111.5t-103 -39.5q-51 0 -88 27.5t-49 76.5h-2q-37 -47 -101.5 -81t-160.5 -34 q-82 0 -144.5 28t-103.5 77t-62.5 116.5t-21.5 147.5zM272 1184q0 33 25 61l131 152q29 35 59.5 54t73.5 19t73.5 -19t59.5 -54l131 -152q25 -29 25 -61q0 -37 -25.5 -59.5t-60.5 -22.5q-43 0 -80 37l-121 116h-4l-121 -116q-37 -37 -80 -37q-35 0 -60.5 22.5t-25.5 59.5z " />
<glyph unicode="&#xfc;" horiz-adv-x="1124" d="M119 346v506q0 72 41 112t104 40q61 0 101.5 -40t40.5 -112v-451q0 -82 36.5 -131t114.5 -49q76 0 114 49t38 131v451q0 72 39.5 112t103.5 40q61 0 102 -40t41 -112v-713q0 -72 -40 -111.5t-103 -39.5q-51 0 -88 27.5t-49 76.5h-2q-37 -47 -101.5 -81t-160.5 -34 q-82 0 -144.5 28t-103.5 77t-62.5 116.5t-21.5 147.5zM209 1260q0 59 43 102t104 43q59 0 102.5 -43t43.5 -102q0 -61 -43.5 -104.5t-102.5 -43.5q-61 0 -104 43t-43 105zM620 1260q0 59 43 102t105 43q59 0 102 -43t43 -102q0 -61 -43 -104.5t-102 -43.5q-61 0 -104.5 43 t-43.5 105z" />
<glyph unicode="&#xfd;" horiz-adv-x="1038" d="M61 868q0 59 41 97.5t101 38.5q51 0 82.5 -27t50.5 -74l190 -506h4l177 506q35 100 131 101q59 0 99 -38t40 -98q0 -33 -14 -67l-355 -887q-33 -80 -66.5 -134t-74.5 -87t-91 -47.5t-118 -14.5h-12q-61 0 -97 34t-36 87t34.5 87t98.5 36q47 2 74.5 24.5t46.5 75.5l26 74 l-317 752q-14 35 -15 67zM428 1206q0 23 5.5 42.5t21.5 41.5l88 125q37 49 96 49q41 0 75 -28.5t34 -75.5q0 -25 -5 -42.5t-22 -39.5l-90 -121q-39 -51 -96 -51q-45 0 -76 26.5t-31 73.5z" />
<glyph unicode="&#xfe;" horiz-adv-x="1128" d="M129 -229v1482q0 72 40 112t103 40q61 0 102.5 -40t41.5 -112v-346h2q29 43 91 75t161 32q123 0 214 -67.5t130 -184.5q18 -55 26.5 -118.5t8.5 -147.5t-8.5 -147.5t-26.5 -119.5q-39 -117 -130 -184.5t-214 -67.5q-98 0 -161 32t-91 75h-2v-313q0 -72 -41.5 -112 t-102.5 -40q-63 0 -103 40t-40 112zM416 496q0 -106 18 -162q37 -115 152 -115q117 0 153 115q18 55 19 162q0 106 -19 161q-37 115 -153 115q-115 0 -152 -115q-18 -55 -18 -161z" />
<glyph unicode="&#xff;" horiz-adv-x="1038" d="M61 868q0 59 41 97.5t101 38.5q51 0 82.5 -27t50.5 -74l190 -506h4l177 506q35 100 131 101q59 0 99 -38t40 -98q0 -33 -14 -67l-355 -887q-33 -80 -66.5 -134t-74.5 -87t-91 -47.5t-118 -14.5h-12q-61 0 -97 34t-36 87t34.5 87t98.5 36q47 2 74.5 24.5t46.5 75.5l26 74 l-317 752q-14 35 -15 67zM168 1260q0 59 43 102t104 43q59 0 102.5 -43t43.5 -102q0 -61 -43.5 -104.5t-102.5 -43.5q-61 0 -104 43t-43 105zM579 1260q0 59 43 102t105 43q59 0 102 -43t43 -102q0 -61 -43 -104.5t-102 -43.5q-61 0 -104.5 43t-43.5 105z" />
<glyph unicode="&#x152;" horiz-adv-x="1906" d="M96 696q0 80 2 137.5t7.5 102.5t13.5 81t20 70q51 158 172 243t291 85q104 0 177 -30.5t108 -81.5h2q10 45 44 67.5t81 22.5h676q63 0 101 -37t38 -94q0 -55 -38 -92t-101 -37h-494q-12 0 -12 -13v-276q0 -12 12 -13h395q63 0 100.5 -35.5t37.5 -93.5q0 -57 -37 -93 t-101 -36h-395q-12 0 -12 -12v-289q0 -12 12 -12h494q63 0 101 -37t38 -92q0 -57 -38 -94t-101 -37h-676q-47 0 -81 22.5t-44 67.5h-2q-35 -51 -107.5 -82t-177.5 -31q-170 0 -291 85t-172 243q-12 35 -20 71t-13.5 81t-7.5 102t-2 137zM401 696q0 -68 1 -116t4.5 -82.5 t7.5 -59t10 -43.5q23 -72 78 -111.5t141 -39.5t141.5 40t77.5 111q6 18 10.5 43t7.5 59.5t4 83t1 115.5q0 68 -1 116t-4 83t-7.5 59.5t-10.5 42.5q-23 72 -78 112t-141 40t-141.5 -40t-77.5 -112q-6 -18 -10 -42.5t-7.5 -59.5t-4.5 -83t-1 -116z" />
<glyph unicode="&#x153;" horiz-adv-x="1710" d="M80 496q0 72 8 126t25 107q45 137 155.5 211t274.5 74q106 0 178 -30t137 -87h4q55 59 134 88t173 29q166 0 275.5 -73t152.5 -206q16 -53 24.5 -107.5t8.5 -123.5q0 -41 -24.5 -67.5t-69.5 -26.5h-526q-12 0 -13 -13q0 -27 11 -57q20 -63 73.5 -96t130.5 -33 q51 0 98.5 14.5t88.5 36.5q51 31 98 31q45 0 75 -30t30 -77q0 -63 -58 -102q-72 -49 -156.5 -78t-201.5 -29q-102 0 -184 31t-138 90h-4q-63 -66 -141 -93.5t-176 -27.5q-164 0 -274.5 74t-155.5 211q-16 53 -24.5 107.5t-8.5 126.5zM371 496q0 -51 4 -92.5t14 -73.5 q16 -53 55.5 -82t98.5 -29t98 28.5t55 82.5q10 33 14.5 73.5t4.5 92.5q0 51 -4 92t-15 74q-16 53 -55 81.5t-98 28.5t-98 -28.5t-56 -81.5q-10 -33 -14 -74t-4 -92zM997 612q0 -12 13 -12h325q12 0 13 12q0 25 -3.5 41.5t-7.5 32.5q-16 53 -60 81t-106 28q-61 0 -104 -28 t-59 -81q-4 -16 -7.5 -32.5t-3.5 -41.5z" />
<glyph unicode="&#x178;" horiz-adv-x="1161" d="M51 1270q0 59 41 97t101 38q84 0 133 -90l254 -477h6l256 477q47 90 133 90q59 0 98 -38t39 -97q0 -41 -22 -82l-359 -635v-406q0 -74 -42.5 -116.5t-108.5 -42.5q-63 0 -106.5 43t-43.5 116v406l-356 635q-23 41 -23 82zM228 1677q0 61 43 103.5t104 42.5 q59 0 102.5 -42t43.5 -104q0 -61 -43.5 -103t-102.5 -42q-61 0 -104 42t-43 103zM639 1677q0 61 43 103.5t105 42.5q59 0 102 -42t43 -104q0 -61 -43 -103t-102 -42q-61 0 -104.5 42t-43.5 103z" />
<glyph unicode="&#x2c6;" horiz-adv-x="929" d="M176 1184q0 33 25 61l131 152q29 35 59.5 54t73.5 19t73.5 -19t59.5 -54l131 -152q25 -29 25 -61q0 -37 -25.5 -59.5t-60.5 -22.5q-43 0 -80 37l-121 116h-4l-121 -116q-37 -37 -80 -37q-35 0 -60.5 22.5t-25.5 59.5z" />
<glyph unicode="&#x2dc;" horiz-adv-x="929" d="M127 1233q0 41 29 80q47 57 93 79.5t93 22.5q45 0 78 -12t65 -33q35 -23 52.5 -29t35.5 -6q20 0 34 7.5t34 25.5q37 33 74 33q39 0 63.5 -24.5t24.5 -61.5q0 -41 -29 -80q-47 -57 -93 -79.5t-93 -22.5q-45 0 -78 12t-66 33q-35 23 -52 28.5t-36 5.5q-20 0 -33.5 -7 t-33.5 -25q-37 -33 -74 -33q-39 0 -63.5 24.5t-24.5 61.5z" />
<glyph unicode="&#x2000;" horiz-adv-x="948" />
<glyph unicode="&#x2001;" horiz-adv-x="1896" />
<glyph unicode="&#x2002;" horiz-adv-x="948" />
<glyph unicode="&#x2003;" horiz-adv-x="1896" />
<glyph unicode="&#x2004;" horiz-adv-x="632" />
<glyph unicode="&#x2005;" horiz-adv-x="474" />
<glyph unicode="&#x2006;" horiz-adv-x="316" />
<glyph unicode="&#x2007;" horiz-adv-x="316" />
<glyph unicode="&#x2008;" horiz-adv-x="237" />
<glyph unicode="&#x2009;" horiz-adv-x="379" />
<glyph unicode="&#x200a;" horiz-adv-x="105" />
<glyph unicode="&#x2010;" horiz-adv-x="802" d="M74 543q0 55 35.5 90t97.5 35h389q61 0 97 -35t36 -90t-36 -90t-97 -35h-389q-61 0 -97 34.5t-36 90.5z" />
<glyph unicode="&#x2011;" horiz-adv-x="802" d="M74 543q0 55 35.5 90t97.5 35h389q61 0 97 -35t36 -90t-36 -90t-97 -35h-389q-61 0 -97 34.5t-36 90.5z" />
<glyph unicode="&#x2012;" horiz-adv-x="802" d="M74 543q0 55 35.5 90t97.5 35h389q61 0 97 -35t36 -90t-36 -90t-97 -35h-389q-61 0 -97 34.5t-36 90.5z" />
<glyph unicode="&#x2013;" horiz-adv-x="1095" d="M29 543q0 53 34.5 87t94.5 34h780q59 0 94 -34t35 -87t-35 -87t-94 -34h-780q-59 0 -94 33.5t-35 87.5z" />
<glyph unicode="&#x2014;" horiz-adv-x="1830" d="M29 543q0 53 33.5 87t95.5 34h1513q63 0 97 -34t34 -87t-33.5 -87t-97.5 -34h-1513q-61 0 -95 33.5t-34 87.5z" />
<glyph unicode="&#x2018;" horiz-adv-x="473" d="M94 1065q0 12 2 25.5t6 23.5l62 197q16 47 47 70.5t72 23.5q55 0 90 -35t35 -88q0 -12 -2.5 -25.5t-6.5 -23.5l-61 -197q-16 -47 -47 -70.5t-72 -23.5q-55 0 -90 35t-35 88z" />
<glyph unicode="&#x2019;" horiz-adv-x="473" d="M94 1065q0 12 2 25.5t6 23.5l62 197q16 47 47 70.5t72 23.5q55 0 90 -35t35 -88q0 -12 -2.5 -25.5t-6.5 -23.5l-61 -197q-16 -47 -47 -70.5t-72 -23.5q-55 0 -90 35t-35 88z" />
<glyph unicode="&#x201a;" horiz-adv-x="473" d="M94 -111q0 12 2 25.5t6 24.5l62 196q16 47 47 70.5t72 23.5q55 0 90 -34.5t35 -88.5q0 -12 -2.5 -25t-6.5 -24l-61 -196q-16 -47 -47 -70.5t-72 -23.5q-55 0 -90 34.5t-35 87.5z" />
<glyph unicode="&#x201c;" horiz-adv-x="851" d="M94 1065q0 12 2 25.5t6 23.5l62 197q16 47 47 70.5t72 23.5q55 0 90 -35t35 -88q0 -12 -2.5 -25.5t-6.5 -23.5l-61 -197q-16 -47 -47 -70.5t-72 -23.5q-55 0 -90 35t-35 88zM473 1065q0 12 2 25.5t6 23.5l62 197q16 47 47 70.5t72 23.5q55 0 89.5 -35t34.5 -88 q0 -12 -2 -25.5t-6 -23.5l-61 -197q-16 -47 -47 -70.5t-72 -23.5q-55 0 -90 35t-35 88z" />
<glyph unicode="&#x201d;" horiz-adv-x="851" d="M94 1065q0 12 2 25.5t6 23.5l62 197q16 47 47 70.5t72 23.5q55 0 90 -35t35 -88q0 -12 -2.5 -25.5t-6.5 -23.5l-61 -197q-16 -47 -47 -70.5t-72 -23.5q-55 0 -90 35t-35 88zM473 1065q0 12 2 25.5t6 23.5l62 197q16 47 47 70.5t72 23.5q55 0 89.5 -35t34.5 -88 q0 -12 -2 -25.5t-6 -23.5l-61 -197q-16 -47 -47 -70.5t-72 -23.5q-55 0 -90 35t-35 88z" />
<glyph unicode="&#x201e;" horiz-adv-x="851" d="M94 -111q0 12 2 25.5t6 24.5l62 196q16 47 47 70.5t72 23.5q55 0 90 -34.5t35 -88.5q0 -12 -2.5 -25t-6.5 -24l-61 -196q-16 -47 -47 -70.5t-72 -23.5q-55 0 -90 34.5t-35 87.5zM473 -111q0 12 2 25.5t6 24.5l62 196q16 47 47 70.5t72 23.5q55 0 89.5 -34.5t34.5 -88.5 q0 -12 -2 -25t-6 -24l-61 -196q-16 -47 -47 -70.5t-72 -23.5q-55 0 -90 34.5t-35 87.5z" />
<glyph unicode="&#x2022;" horiz-adv-x="972" d="M178 631q0 68 22.5 124t63.5 98t97.5 64.5t123.5 22.5q68 0 124.5 -22.5t98.5 -64.5t64.5 -98.5t22.5 -123.5q0 -68 -22.5 -124t-64.5 -97t-98.5 -63.5t-124.5 -22.5t-124 22.5t-97 63.5t-63.5 97t-22.5 124z" />
<glyph unicode="&#x2026;" horiz-adv-x="1597" d="M98 145q0 70 49.5 119t118.5 49q70 0 119 -49t49 -119t-49 -119t-119 -49t-119 49.5t-49 118.5zM631 145q0 70 49 119t119 49t119 -49t49 -119t-49 -119t-119 -49t-119 49.5t-49 118.5zM1163 145q0 70 49.5 119t118.5 49q70 0 119 -49t49 -119t-49 -119t-119 -49 t-119 49.5t-49 118.5z" />
<glyph unicode="&#x202f;" horiz-adv-x="379" />
<glyph unicode="&#x2039;" horiz-adv-x="657" d="M57 541q0 25 11.5 44t33.5 42l287 286q39 39 88 39q41 0 69.5 -27.5t28.5 -70.5q0 -47 -38 -86l-220 -217q-10 -10 0 -21l220 -217q39 -39 38 -86q0 -43 -28.5 -70.5t-69.5 -27.5q-49 0 -88 39l-287 287q-23 23 -34 42t-11 44z" />
<glyph unicode="&#x203a;" horiz-adv-x="657" d="M82 227q0 47 39 86l219 217q10 10 0 21l-219 217q-39 39 -39 86q0 43 28.5 70.5t69.5 27.5q49 0 88 -39l287 -286q23 -23 34 -42.5t11 -43.5q0 -25 -11 -44.5t-34 -41.5l-287 -287q-39 -39 -88 -39q-41 0 -69.5 27.5t-28.5 70.5z" />
<glyph unicode="&#x205f;" horiz-adv-x="474" />
<glyph unicode="&#x20ac;" d="M70 569q0 37 23.5 60.5t68.5 23.5h33q12 0 12 13v69q0 12 -12 13h-33q-45 0 -68.5 23.5t-23.5 59.5q0 37 23.5 60.5t68.5 23.5h33q12 0 12 13q0 57 7 104t19 88q47 145 160 220t279 75q72 0 135 -18.5t113.5 -48t84 -66.5t48.5 -74q10 -23 10 -55q0 -49 -35 -83t-86 -34 q-63 0 -117 66q-55 70 -151 69q-59 0 -99 -27.5t-61 -88.5q-8 -23 -12 -51.5t-4 -75.5q0 -12 12 -13h303q43 0 66.5 -23.5t23.5 -60.5t-23.5 -60t-66.5 -23h-303q-12 0 -12 -13v-69q0 -12 12 -13h221q43 0 66.5 -23.5t23.5 -60.5t-23.5 -60.5t-66.5 -23.5h-221 q-12 0 -12 -12q0 -53 4 -83t12 -52q20 -61 60 -89t100 -28q96 0 151 70q53 66 117 65q51 0 86 -33.5t35 -82.5q0 -33 -10 -56q-14 -37 -48 -73.5t-84.5 -66.5t-113.5 -48.5t-135 -18.5q-166 0 -278.5 75t-160.5 220q-12 41 -19 88.5t-7 112.5q0 12 -12 12h-33 q-45 0 -68.5 23.5t-23.5 60.5z" />
<glyph unicode="&#x2122;" horiz-adv-x="1732" d="M66 1305q0 39 24.5 63.5t67.5 24.5h495q43 0 67.5 -25t24.5 -63q0 -37 -24.5 -61.5t-67.5 -24.5h-137q-12 0 -12 -13v-528q0 -47 -27.5 -76t-70.5 -29t-72 29t-29 76v528q0 12 -12 13h-135q-43 0 -67.5 24.5t-24.5 61.5zM848 670v630q0 47 27.5 76t72.5 29q74 0 109 -78 l180 -397h8l174 397q35 78 107 78q47 0 73.5 -28.5t26.5 -76.5v-630q0 -43 -24.5 -70t-65.5 -27t-66.5 26t-25.5 71v336h-4l-117 -261q-27 -57 -84 -57q-59 0 -86 57l-119 261h-4v-336q0 -43 -25.5 -70t-64.5 -27q-41 0 -66.5 26t-25.5 71z" />
<glyph unicode="&#x25fc;" horiz-adv-x="1003" d="M0 0v1004h1004v-1004h-1004z" />
</font>
</defs>
</svg>
