<?xml version="1.0" standalone="no"?>
<!DOCTYPE svg PUBLIC "-//W3C//DTD SVG 1.1//EN" "http://www.w3.org/Graphics/SVG/1.1/DTD/svg11.dtd" >
<svg xmlns="http://www.w3.org/2000/svg">
<metadata></metadata>
<defs>
<font id="din_next_rounded_lt_w01_ligRg" horiz-adv-x="1089" >
<font-face units-per-em="2048" ascent="1526" descent="-522" />
<missing-glyph horiz-adv-x="503" />
<glyph horiz-adv-x="2048" />
<glyph horiz-adv-x="2048" />
<glyph unicode="&#xd;" horiz-adv-x="0" />
<glyph unicode=" "  horiz-adv-x="503" />
<glyph unicode="&#x09;" horiz-adv-x="503" />
<glyph unicode="&#xa0;" horiz-adv-x="503" />
<glyph unicode="!" horiz-adv-x="544" d="M186 78q0 35 26 60.5t60 25.5q35 0 60.5 -25.5t25.5 -60.5t-25.5 -60.5t-60.5 -25.5t-60.5 25.5t-25.5 60.5zM217 410v931q0 29 15.5 44.5t39.5 15.5q25 0 40.5 -15.5t15.5 -44.5v-931q0 -29 -15.5 -43.5t-40.5 -14.5t-40 14.5t-15 43.5z" />
<glyph unicode="&#x22;" horiz-adv-x="643" d="M152 1108v242q0 51 45 51q47 0 47 -51v-242q0 -51 -47 -51q-45 0 -45 51zM399 1108v242q0 51 45 51q47 0 48 -51v-242q-1 -51 -48 -51q-45 0 -45 51z" />
<glyph unicode="#" horiz-adv-x="1060" d="M49 494q0 45 49 45h156l47 348h-154q-49 0 -49 45t49 45h166l52 383q6 41 47 41q51 0 45 -53l-51 -371h315l51 383q6 41 47 41q51 0 45 -53l-49 -371h148q49 0 49 -45t-49 -45h-160l-47 -348h157q49 0 50 -45q0 -45 -50 -45h-170l-57 -416q-6 -41 -47 -41q-51 0 -45 53 l55 404h-315l-55 -416q-6 -41 -48 -41q-51 0 -45 53l56 404h-144q-49 0 -49 45zM346 539h316l47 348h-316z" />
<glyph unicode="$" d="M125 131q0 53 53 53q16 0 31 -8q55 -35 133 -60.5t164 -29.5v567q-186 29 -272.5 129.5t-86.5 243.5q0 84 27 152.5t74 118t112.5 79t145.5 35.5v88q0 47 39 47q41 0 41 -47v-88q82 -4 149.5 -25.5t116.5 -48.5q29 -16 29 -49q0 -23 -14.5 -37t-37.5 -14q-16 0 -36 10 q-51 25 -99.5 39t-107.5 19v-549q188 -25 279 -124.5t91 -248.5q0 -84 -25.5 -153.5t-72.5 -122t-115.5 -84t-156.5 -39.5v-90q0 -47 -41 -48q-39 0 -39 48v86q-109 4 -198.5 33.5t-155.5 70.5q-27 14 -27 47zM256 1034q0 -102 55.5 -172.5t194.5 -95.5v539 q-117 -10 -183.5 -83t-66.5 -188zM586 88q123 14 192.5 88t69.5 201q0 104 -58.5 174t-203.5 92v-555z" />
<glyph unicode="%" horiz-adv-x="1579" d="M180 1042q0 49 1 83t2 58.5t4 42t10 34.5q23 72 81 110.5t140 38.5t140 -39t81 -110q6 -16 9 -34t4 -42.5t2 -58t1 -83.5q0 -49 -1 -82.5t-2 -58t-4 -42t-9 -34.5q-23 -72 -81 -110.5t-140 -38.5t-140.5 39t-80.5 110q-6 16 -9.5 34t-4.5 42.5t-2 58t-1 82.5zM272 961.5 q0 -31.5 2 -52t5.5 -34t7.5 -27.5q14 -41 49 -64.5t82 -23.5t82 23.5t49 64.5q4 14 7 27.5t4 34t2 52t1 80.5t-1 81t-2 52.5t-4 34t-7 27.5q-14 41 -49 64.5t-82 23.5t-82 -23.5t-49 -64.5q-4 -14 -7.5 -27.5t-5.5 -34t-2 -52v-81.5v-80.5zM350 14q0 12 6 25l787 1358 q14 25 39 24q18 0 30.5 -11t12.5 -32q0 -12 -6 -24l-787 -1358q-14 -25 -39 -25q-18 0 -30.5 11.5t-12.5 31.5zM924 350q0 49 1 83t2 58.5t4 42t9 33.5q23 72 81 111t140 39t140.5 -39t80.5 -111q6 -16 9.5 -33.5t4.5 -42t2 -58.5t1 -83t-1 -83t-2 -58.5t-4 -41.5t-10 -34 q-23 -72 -81 -110.5t-140 -38.5t-140 38.5t-81 110.5q-6 16 -9 33.5t-4 42t-2 58.5t-1 83zM1016 269.5q0 -31.5 2 -52t5 -34t7 -27.5q14 -41 49 -64.5t82 -23.5t82 23.5t49 64.5q4 14 7.5 27.5t4.5 34t2 52t1 80.5t-1 81t-2 52.5t-4.5 33.5t-7.5 28q-14 41 -49 64.5 t-82 23.5t-82 -23.5t-49 -64.5q-4 -14 -7 -27.5t-5 -34t-2 -52.5v-81v-80.5z" />
<glyph unicode="&#x26;" horiz-adv-x="1265" d="M156 330q0 121 73.5 225t214.5 221q-55 76 -92 127t-58.5 90t-30.5 71t-9 69q0 61 22.5 112t61.5 89t93 58.5t118 20.5q63 0 117.5 -21.5t94.5 -58.5t61.5 -88t21.5 -110q0 -45 -12.5 -86t-41 -85t-78.5 -92.5t-124 -109.5l309 -408l129 162q18 23 43 23q18 0 31.5 -11.5 t13.5 -33.5q0 -18 -12 -37l-141 -185l104 -137q20 -29 35.5 -35t44.5 -6t43 -15.5t14 -37.5q0 -23 -14 -38t-43 -15h-17q-27 0 -46 3t-35.5 12t-32 24.5t-33.5 40.5l-92 120q-88 -102 -178 -155t-201 -53q-84 0 -149.5 25.5t-110.5 72.5t-69.5 110.5t-24.5 141.5zM262 336 q0 -113 64.5 -183.5t187.5 -70.5q37 0 70.5 7t70.5 26.5t79 56.5t93 96l-321 428q-119 -92 -181.5 -177t-62.5 -183zM360 1135q0 -25 7.5 -49.5t27 -57.5t51 -76.5t80.5 -109.5q70 57 111 98t63.5 74t29.5 61.5t7 59.5q0 78 -53 127t-135 49q-84 0 -136.5 -49.5 t-52.5 -126.5z" />
<glyph unicode="'" horiz-adv-x="397" d="M152 1108v242q0 51 45 51q47 0 47 -51v-242q0 -51 -47 -51q-45 0 -45 51z" />
<glyph unicode="(" horiz-adv-x="565" d="M154 672q0 219 59 428t158 397q14 27 43 27q16 0 29.5 -11.5t13.5 -27.5q0 -14 -8 -31q-96 -193 -142.5 -388.5t-46.5 -393.5q0 -199 46 -394.5t143 -388.5q8 -16 8 -30q0 -16 -13.5 -27.5t-29.5 -11.5q-29 -1 -43 26q-98 188 -157.5 397.5t-59.5 428.5z" />
<glyph unicode=")" horiz-adv-x="565" d="M94 -141q0 14 8 30q96 193 142.5 388.5t46.5 394.5t-46 394.5t-143 387.5q-8 16 -8 31q0 16 13.5 27.5t29.5 11.5q29 0 43 -27q98 -188 157.5 -397t59.5 -428t-59 -428t-158 -398q-14 -27 -43 -26q-16 0 -29.5 11t-13.5 28z" />
<glyph unicode="*" horiz-adv-x="714" d="M98 981q0 20 21 33l166 94l-166 94q-20 12 -21 33q0 16 10.5 27.5t26.5 11.5q12 0 23 -6l164 -99l-3 191q0 20 10.5 30.5t26.5 10.5q39 0 39 -41l-2 -191l164 99q8 6 23 6q16 0 26 -11.5t10 -27.5q0 -20 -20 -33l-168 -94l168 -94q20 -12 20 -33q0 -16 -10 -27.5 t-26 -11.5q-14 0 -23 6l-164 96l2 -188q0 -41 -39 -41q-16 0 -26.5 10.5t-10.5 30.5l3 188l-164 -96q-10 -6 -23 -6q-16 0 -26.5 11.5t-10.5 27.5z" />
<glyph unicode="+" d="M127 565q0 51 57 51h295q12 0 13 13v299q0 29 15 43t38 14t38 -14.5t15 -42.5v-299q0 -12 12 -13h295q57 0 58 -51q0 -51 -58 -51h-295q-12 0 -12 -12v-299q0 -29 -15.5 -43.5t-37.5 -14.5q-23 0 -38 14.5t-15 43.5v299q0 12 -13 12h-295q-57 0 -57 51z" />
<glyph unicode="," horiz-adv-x="436" d="M100 -209q0 10 4 27l91 272q16 47 53 47q23 0 40 -13t17 -40q0 -10 -4 -27l-96 -272q-16 -47 -53 -47q-51 0 -52 53z" />
<glyph unicode="-" horiz-adv-x="765" d="M92 543q0 51 58 51h466q57 0 58 -51q0 -51 -58 -51h-466q-57 0 -58 51z" />
<glyph unicode="." horiz-adv-x="450" d="M135 82q0 37 26.5 63.5t63.5 26.5t63.5 -26.5t26.5 -63.5t-26.5 -63.5t-63.5 -26.5t-63.5 26.5t-26.5 63.5z" />
<glyph unicode="/" horiz-adv-x="833" d="M147 16q0 10 5 23l440 1343q12 39 45 39q20 0 34.5 -11t14.5 -34q0 -10 -4 -22l-440 -1344q-12 -39 -45 -39q-20 0 -35 11t-15 34z" />
<glyph unicode="0" d="M156 696q0 125 2 207t7 133t10 80t11 47q41 123 133.5 186.5t225.5 63.5t225 -63.5t133 -186.5q6 -18 11.5 -47t10.5 -80t7 -133t2 -207t-2 -206.5t-7 -133t-10.5 -80t-11.5 -47.5q-41 -123 -133 -186t-225 -63t-225.5 63t-133.5 186q-6 18 -11 47t-10 80.5t-7 133 t-2 206.5zM266 696q0 -121 2 -198.5t6.5 -125.5t9.5 -75t11 -43q29 -88 93.5 -129t156.5 -41t156.5 41t93.5 129q6 16 11 43t9 75t6 125.5t2 198.5t-2 199t-6 126t-9 74.5t-11 43.5q-29 88 -93.5 129t-156.5 41t-156.5 -41t-93.5 -129q-6 -16 -11 -43t-9.5 -75t-6.5 -126 t-2 -199z" />
<glyph unicode="1" d="M225 1141q0 29 31 51l238 170q33 23 48 31t31 8q23 0 39.5 -14.5t16.5 -43.5v-1292q0 -29 -16.5 -44t-39.5 -15q-25 0 -40 15.5t-15 43.5v1192h-4l-205 -139q-16 -10 -37 -10q-18 0 -32.5 12t-14.5 35z" />
<glyph unicode="2" d="M162 51q0 16 6 32.5t27 41.5l497 649q51 68 82 134.5t31 138.5q0 115 -73 187.5t-191 72.5q-111 0 -174.5 -56.5t-85.5 -150.5q-10 -49 -52 -49q-55 0 -55 53q0 10 4 26q10 49 37 99.5t72 91.5t108.5 66.5t147.5 25.5t152.5 -27.5t117.5 -75.5t75.5 -116t26.5 -147 q0 -92 -36.5 -172t-102.5 -166l-463 -598v-5h553q29 0 42.5 -15t13.5 -38t-13.5 -38t-42.5 -15h-649q-29 0 -42 14t-13 37z" />
<glyph unicode="3" d="M152 260q0 49 53 49q18 0 30.5 -12t22.5 -37q37 -80 101.5 -127t177.5 -47q133 0 208.5 81t75.5 208q0 131 -79.5 214t-215.5 83h-30q-29 0 -43.5 15t-14.5 38t14.5 38t43.5 15h30q119 0 193 75t74 194q0 117 -71 188.5t-194 71.5q-100 0 -160.5 -43t-95.5 -123 q-18 -49 -53 -49q-53 0 -53 49q0 12 4 24q14 47 44 92.5t75 80t105.5 55t135.5 20.5q86 0 155 -26.5t117 -75.5t74.5 -116t26.5 -146q0 -61 -16.5 -111.5t-43 -88.5t-60 -66.5t-66.5 -47.5v-4q35 -14 72.5 -43t69.5 -72t52.5 -102t20.5 -135q0 -88 -30 -162t-82 -126 t-124.5 -81.5t-158.5 -29.5q-84 0 -147.5 21.5t-111 57t-78 82t-44.5 95.5q-4 12 -4 24z" />
<glyph unicode="4" d="M111 328q0 16 3 29.5t19 45.5l438 957q18 41 52 41q23 0 37 -13.5t14 -35.5q0 -14 -6 -29l-424 -934v-4h430q12 0 12 12v351q0 29 15.5 44t39.5 15q25 0 40.5 -15.5t15.5 -43.5v-351q0 -12 12 -12h125q29 0 43 -15.5t14 -37.5q0 -23 -14 -38t-43 -15h-125q-12 0 -12 -13 v-215q0 -29 -15.5 -44t-40.5 -15t-40 15.5t-15 43.5v215q0 12 -12 13h-510q-27 0 -40 14t-13 35z" />
<glyph unicode="5" d="M190 262q0 23 15.5 36t38.5 13q37 0 53 -49q63 -176 262 -176q86 0 151.5 40t90.5 118q10 35 16 84t6 118q0 74 -7 121t-19 82q-55 160 -234 160q-80 0 -132 -36t-97 -101q-23 -35 -38 -47.5t-36 -12.5q-51 0 -51 58v671q0 51 51 52h598q29 0 43 -15.5t14 -38.5t-14 -38 t-43 -15h-530q-12 0 -13 -12v-481h2q29 45 94.5 83.5t159.5 38.5q123 0 209 -56t121 -167q14 -43 23.5 -101.5t9.5 -144.5q0 -80 -7 -136t-22 -97q-37 -113 -128 -173t-218 -60q-147 0 -238 71.5t-126 186.5q-4 12 -5 24z" />
<glyph unicode="6" d="M137 399q0 82 26.5 161t65.5 153l336 655q16 33 49 33q25 0 40.5 -15.5t15.5 -37.5q0 -16 -8 -33l-285 -543l4 -6q25 23 72 37t106 14q84 0 156.5 -29.5t125 -84t82 -130t29.5 -170.5q0 -98 -30.5 -177t-85 -133t-129 -83.5t-162.5 -29.5t-163 29.5t-129 83.5t-85 132 t-31 174zM248 397q0 -70 21.5 -127t61.5 -98t94 -63.5t120 -22.5t120 22.5t94 63.5t61.5 98.5t21.5 126.5q0 70 -21.5 127.5t-61.5 98.5t-94.5 64.5t-119.5 23.5q-66 0 -120 -23.5t-94 -64.5t-61.5 -98.5t-21.5 -127.5z" />
<glyph unicode="7" d="M193 1114v227q0 51 51 52h653q29 0 42 -14.5t13 -37.5t-16 -61l-498 -1251q-16 -37 -51 -37q-23 0 -38 14t-15 37q0 10 4 23l481 1214v6h-504q-12 0 -12 -14v-158q0 -29 -15.5 -44t-39.5 -15q-25 0 -40 15t-15 44z" />
<glyph unicode="8" d="M135 377q0 129 62.5 221t160.5 133v4q-82 41 -134 121t-52 191q0 78 26.5 144t76 115.5t118 78t152.5 28.5t152.5 -28.5t117.5 -78t76 -116t27 -143.5q0 -111 -52.5 -191t-134.5 -121v-4q98 -41 160.5 -133t62.5 -221q0 -88 -30.5 -161t-85 -125t-129 -81.5t-164.5 -29.5 t-165 29.5t-129 81.5t-85 125t-31 161zM246 381q0 -63 21.5 -117.5t60.5 -93.5t94 -61.5t123 -22.5t123 22.5t94 61.5t60.5 93t21.5 118q0 63 -21.5 118.5t-60.5 95.5t-94.5 62.5t-122.5 22.5q-68 0 -123 -22.5t-94 -62.5t-60.5 -95.5t-21.5 -118.5zM283 1047 q0 -55 18 -102.5t52 -83.5t83.5 -55.5t108.5 -19.5t107 19.5t83 55.5t53.5 83t18.5 103q0 55 -19.5 103t-53.5 83t-83 54.5t-106 19.5q-59 0 -107.5 -19.5t-82 -54.5t-53 -83t-19.5 -103z" />
<glyph unicode="9" d="M137 989q0 98 31 177t85 133.5t129 84t163 29.5t162.5 -29.5t129 -84t85 -132t30.5 -174.5q0 -82 -26.5 -160.5t-65.5 -152.5l-336 -655q-16 -33 -49 -33q-25 0 -40 15t-15 38q0 16 8 33l285 543l-4 6q-25 -23 -72 -37.5t-107 -14.5q-84 0 -156.5 30t-124.5 84t-82 130 t-30 170zM248 995q0 -70 21.5 -127t61.5 -99t94 -64.5t120 -22.5t120 22.5t94 64.5t61.5 99.5t21.5 126.5q0 70 -21.5 127.5t-61.5 98.5t-94.5 63.5t-119.5 22.5q-66 0 -120 -22.5t-94 -63.5t-61.5 -98.5t-21.5 -127.5z" />
<glyph unicode=":" horiz-adv-x="466" d="M143 82q0 37 27 63.5t63 26.5q37 0 64 -26.5t27 -63.5t-27 -63.5t-64 -26.5t-63.5 26.5t-26.5 63.5zM143 895q0 37 27 63.5t63 26.5q37 0 64 -26.5t27 -63.5t-27 -63.5t-64 -26.5t-63.5 26.5t-26.5 63.5z" />
<glyph unicode=";" horiz-adv-x="466" d="M100 -209q0 10 4 27l91 272q16 47 53 47q23 0 40 -13t17 -40q0 -10 -4 -27l-96 -272q-16 -47 -53 -47q-51 0 -52 53zM143 895q0 37 27 63.5t63 26.5q37 0 64 -26.5t27 -63.5t-27 -63.5t-64 -26.5t-63.5 26.5t-26.5 63.5z" />
<glyph unicode="&#x3c;" d="M127 565q0 20 12.5 36.5t42.5 29.5l705 287q12 4 24 4q23 0 37.5 -13.5t14.5 -36.5q0 -37 -35 -51l-643 -254v-4l643 -254q35 -14 35 -51q0 -23 -14.5 -36t-37.5 -13q-12 0 -24 4l-705 287q-55 23 -55 65z" />
<glyph unicode="=" d="M127 367q0 51 57 51h721q57 0 58 -51q0 -51 -58 -52h-721q-57 0 -57 52zM127 764q0 51 57 51h721q57 0 58 -51q0 -51 -58 -51h-721q-57 0 -57 51z" />
<glyph unicode="&#x3e;" d="M127 258q0 37 35 51l643 254v4l-643 254q-35 14 -35 51q0 23 14.5 36.5t36.5 13.5q12 0 25 -4l704 -287q31 -12 43.5 -28.5t12.5 -37.5q0 -43 -56 -65l-704 -287q-13 -4 -25 -4q-23 0 -37 13.5t-14 35.5z" />
<glyph unicode="?" horiz-adv-x="913" d="M109 1112v9t4 18q29 121 117.5 197.5t236.5 76.5q78 0 142.5 -24.5t110.5 -69.5t71.5 -105.5t25.5 -134.5q0 -41 -8 -76.5t-23.5 -70.5t-38 -71t-53.5 -79l-114 -153q-20 -27 -34 -48.5t-21 -41t-10 -42t-3 -51.5v-38q0 -29 -15.5 -44.5t-39.5 -15.5q-25 0 -40.5 15.5 t-15.5 44.5v47q0 63 14.5 107t49.5 91l117 156q37 47 60.5 83t37.5 66.5t20.5 58t6.5 60.5q0 113 -70 171.5t-174 58.5q-94 0 -157.5 -48.5t-86.5 -140.5q-14 -57 -57 -57q-23 0 -38 14.5t-15 36.5zM371 78q0 35 25.5 60.5t60.5 25.5t60.5 -25.5t25.5 -60.5t-25.5 -60.5 t-60.5 -25.5t-60.5 25.5t-25.5 60.5z" />
<glyph unicode="@" horiz-adv-x="1810" d="M100 547q0 178 59.5 326.5t166 255t254 165t323.5 58.5q178 0 326.5 -59.5t255 -165t166 -254t59.5 -326.5q0 -115 -24.5 -197t-67.5 -134t-100.5 -76.5t-120.5 -24.5q-88 0 -150.5 43t-91.5 116h-2q-35 -78 -106.5 -118.5t-174.5 -40.5q-219 0 -286 204 q-12 41 -19.5 90.5t-7.5 127.5t7 127t20 90q35 104 107.5 154t176.5 50q98 0 160 -35.5t90 -84.5h4v55q0 27 13.5 40t36.5 13t36 -13t13 -40v-479q0 -106 54 -155.5t122 -49.5q43 0 81 16.5t67.5 55t47 104.5t17.5 162q0 158 -51.5 289t-143.5 224t-223 145t-291 52 q-158 0 -288 -51t-222 -145t-143 -224t-51 -290t51 -291t143 -224t222 -145.5t288 -52.5q147 0 246.5 23.5t181.5 62.5q12 6 25 6q18 0 30.5 -11t12.5 -30q0 -29 -27 -43q-92 -51 -204.5 -76.5t-264.5 -25.5q-176 0 -323.5 59.5t-254 166t-166 255t-59.5 326.5zM657 537 q0 -63 6.5 -105.5t16.5 -75.5q51 -145 211 -145q162 0 213 145q10 33 15 75t5 106q0 63 -5 105t-15 75q-27 78 -80 111.5t-133 33.5q-82 0 -133 -33.5t-78 -111.5q-10 -33 -16.5 -75t-6.5 -105z" />
<glyph unicode="A" horiz-adv-x="1220" d="M76 45q0 10 4 23l459 1271q20 61 73 62q51 0 74 -62l455 -1271q4 -12 4 -23q0 -25 -16.5 -39t-38.5 -14q-41 0 -58 41l-119 329h-606l-119 -329q-16 -41 -57 -41q-23 0 -39 14t-16 39zM346 475h528l-260 729h-6z" />
<glyph unicode="B" horiz-adv-x="1230" d="M193 55v1282q0 55 57 56h430q199 0 302 -98.5t103 -264.5q0 -127 -58 -204.5t-157 -106.5v-4q39 -8 81 -33t77 -66t57.5 -100t22.5 -135q0 -180 -110.5 -280.5t-315.5 -100.5h-432q-57 0 -57 55zM309 123q0 -12 13 -12h366q152 0 227.5 73.5t75.5 196.5t-75.5 197.5 t-227.5 74.5h-366q-12 0 -13 -12v-518zM309 776q0 -12 13 -12h358q141 0 215 71.5t74 188.5q0 119 -75 188.5t-216 69.5h-356q-12 0 -13 -12v-494z" />
<glyph unicode="C" horiz-adv-x="1138" d="M133 696q0 92 3 157t7 112t11.5 78.5t15.5 58.5q104 311 444 311q61 0 122 -14.5t114 -44t96 -73.5t70 -103q8 -20 8 -33q0 -27 -15.5 -41t-39.5 -14q-31 0 -51 36q-100 176 -304 177q-131 0 -210.5 -58.5t-120.5 -173.5q-6 -20 -12.5 -49t-10.5 -72t-6 -104.5t-2 -149.5 t2 -149.5t6 -104.5t10 -71.5t13 -48.5q41 -115 120.5 -173.5t210.5 -58.5q203 0 304 176q20 37 51 37q25 0 40 -14.5t15 -40.5q0 -12 -8 -33q-27 -59 -70 -103t-96 -74t-113.5 -44t-122.5 -14q-340 0 -444 311q-8 27 -15.5 58.5t-11.5 78.5t-7 111.5t-3 156.5z" />
<glyph unicode="D" horiz-adv-x="1269" d="M193 55v1282q0 55 57 56h366q193 0 308.5 -81t165.5 -235q12 -37 19 -72.5t12 -78.5t7 -98.5t2 -131.5t-2 -131t-7 -98t-12 -79t-19 -73q-49 -154 -165 -234.5t-309 -80.5h-366q-57 0 -57 55zM309 123q0 -12 13 -12h278q158 0 246 56t131 187q10 31 17 64t11.5 72.5 t6.5 89t2 116.5q0 68 -2 117t-6.5 89t-11.5 73t-17 63q-43 131 -131 187.5t-246 56.5h-278q-12 0 -13 -12v-1147z" />
<glyph unicode="E" horiz-adv-x="1138" d="M193 55v1282q0 55 57 56h729q29 0 44 -15.5t15 -40.5t-15 -40t-44 -15h-657q-12 0 -13 -12v-496q0 -12 13 -12h561q29 0 44 -15.5t15 -39.5q0 -25 -15.5 -40.5t-43.5 -15.5h-561q-12 0 -13 -12v-516q0 -12 13 -12h657q29 0 44 -15.5t15 -40.5t-15 -40t-44 -15h-729 q-57 0 -57 55z" />
<glyph unicode="F" horiz-adv-x="1128" d="M193 55v1282q0 55 57 56h729q29 0 44 -15.5t15 -40.5t-15 -40t-44 -15h-657q-12 0 -13 -12v-510q0 -12 13 -12h561q29 0 44 -15.5t15 -40.5t-15.5 -40t-43.5 -15h-561q-12 0 -13 -10v-572q0 -31 -16.5 -47t-40.5 -16q-27 0 -43 16.5t-16 46.5z" />
<glyph unicode="G" horiz-adv-x="1247" d="M133 696q0 90 3 154.5t8.5 112t12.5 79t15 58.5q51 156 166 234.5t287 78.5q150 0 261 -62.5t161 -168.5q8 -20 8 -33q0 -27 -15.5 -41t-40.5 -14q-31 0 -51 36q-49 82 -131 127.5t-194 45.5q-260 0 -338 -236q-6 -20 -12.5 -48t-11.5 -71t-7 -104.5t-2 -147.5t2 -147.5 t7 -104.5t11.5 -70.5t12.5 -47.5q78 -236 340 -236q127 0 214 58.5t126 173.5q14 41 23 102t9 162q0 12 -12 12h-293q-29 0 -43 16.5t-14 38.5q0 23 14.5 39.5t42.5 16.5h367q23 0 39 -15.5t16 -38.5v-51q0 -104 -10 -183t-27 -126q-49 -156 -165.5 -235.5t-284.5 -79.5 q-172 0 -288 78.5t-167 234.5q-8 27 -15 58.5t-12.5 78.5t-8.5 111.5t-3 154.5z" />
<glyph unicode="H" horiz-adv-x="1331" d="M193 55v1282q0 31 16 47.5t41 16.5q27 0 43 -16.5t16 -47.5v-563q0 -12 13 -12h686q14 0 14 12v563q0 31 16.5 47.5t40.5 16.5q27 0 43.5 -16.5t16.5 -47.5v-1282q0 -31 -16.5 -47t-43.5 -16q-25 0 -41 16.5t-16 46.5v584q0 12 -14 12h-686q-12 0 -13 -12v-584 q0 -31 -16.5 -47t-42.5 -16q-25 0 -41 16.5t-16 46.5z" />
<glyph unicode="I" horiz-adv-x="501" d="M193 55v1282q0 31 16 47.5t41 16.5q27 0 43 -16.5t16 -47.5v-1282q0 -31 -16.5 -47t-42.5 -16q-25 0 -41 16.5t-16 46.5z" />
<glyph unicode="J" horiz-adv-x="962" d="M89 159q15 15 38 15q20 0 39 -12q45 -31 100.5 -51.5t112.5 -20.5q133 0 210 77t77 251v919q0 31 16 47.5t41 16.5q27 0 43 -16.5t16 -47.5v-921q0 -223 -110.5 -329.5t-294.5 -106.5q-84 0 -157 27.5t-122 64.5q-24 17 -24 47q0 25 15 40z" />
<glyph unicode="K" horiz-adv-x="1198" d="M193 55v1282q0 31 16 47.5t41 16.5q27 0 43 -16.5t16 -47.5v-770l668 809q20 25 49 25q20 0 35.5 -13.5t15.5 -35.5q0 -20 -16 -41l-387 -465l438 -762q12 -23 12 -37q0 -25 -14 -41t-39 -16q-35 0 -55 35l-420 727l-287 -340v-357q0 -31 -16.5 -47t-42.5 -16 q-25 0 -41 16.5t-16 46.5z" />
<glyph unicode="L" horiz-adv-x="1085" d="M193 55v1282q0 31 16 47.5t41 16.5q27 0 43 -16.5t16 -47.5v-1214q0 -12 13 -12h659q29 0 44 -15.5t15 -40.5t-15 -40t-44 -15h-733q-55 0 -55 55z" />
<glyph unicode="M" horiz-adv-x="1546" d="M193 55v1272q0 74 69 74q51 0 78 -64l432 -962h8l426 962q27 63 78 64q70 0 70 -74v-1272q0 -31 -16.5 -47t-43.5 -16q-25 0 -41 16.5t-16 46.5v1053h-8l-379 -838q-20 -43 -35.5 -56t-40.5 -13q-27 0 -42 13t-36 56l-377 838h-10v-1053q0 -31 -16.5 -47t-42.5 -16 q-25 0 -41 16.5t-16 46.5z" />
<glyph unicode="N" horiz-adv-x="1333" d="M193 55v1272q0 74 71 74q29 0 47.5 -15.5t36.5 -48.5l670 -1110h6v1110q0 63 57 64q27 0 43.5 -16.5t16.5 -47.5v-1271q0 -74 -72 -74q-29 0 -47 15.5t-39 47.5l-666 1112h-8v-1112q0 -31 -16.5 -47t-42.5 -16q-25 0 -41 16.5t-16 46.5z" />
<glyph unicode="O" horiz-adv-x="1247" d="M133 696q0 90 3 153.5t8.5 110t12.5 79t17 61.5q51 154 165 233.5t286 79.5q170 0 283.5 -80t164.5 -233q8 -29 16.5 -61.5t13.5 -79t8 -110t3 -153.5t-3 -153.5t-8 -109.5t-13.5 -80t-16.5 -60q-51 -154 -164.5 -233.5t-283.5 -79.5q-172 0 -286 79.5t-165 233.5 q-10 27 -17 60.5t-12.5 79.5t-8.5 109.5t-3 153.5zM252 696q0 -84 3 -145.5t7 -104.5t11.5 -71.5t13.5 -48.5q78 -236 338 -236q258 0 336 236q6 20 13 48.5t11 71.5t7 104.5t3 145.5t-3 145.5t-7 104.5t-11 72t-13 49q-78 236 -336 236q-260 0 -338 -236q-6 -20 -13.5 -49 t-11.5 -72t-7 -104.5t-3 -145.5z" />
<glyph unicode="P" horiz-adv-x="1198" d="M193 55v1282q0 55 55 56h430q199 0 313.5 -105.5t114.5 -290.5q0 -184 -114.5 -288.5t-313.5 -104.5h-356q-12 0 -13 -12v-537q0 -31 -16 -47t-43 -16q-25 0 -41 16.5t-16 46.5zM309 727q0 -12 13 -12h352q154 0 234.5 73.5t80.5 208.5t-81 210t-234 75h-352 q-12 0 -13 -12v-543z" />
<glyph unicode="Q" horiz-adv-x="1245" d="M133 696q0 90 3 153.5t8.5 110t12.5 79t17 61.5q51 154 165 233.5t286 79.5q170 0 283.5 -80t164.5 -233q8 -29 16.5 -61.5t13.5 -79t8 -110t3 -153.5t-3 -153.5t-8 -109.5t-13.5 -80t-16.5 -60q-12 -39 -28.5 -72t-36.5 -61l122 -131q16 -20 17 -41q0 -20 -15.5 -35.5 t-37.5 -15.5q-23 0 -41 18l-119 125q-59 -51 -137 -75.5t-172 -24.5q-172 0 -286 79.5t-165 233.5q-10 27 -17 60.5t-12.5 79.5t-8.5 109.5t-3 153.5zM252 696q0 -84 3 -145.5t7 -104.5t11.5 -71.5t13.5 -48.5q78 -236 338 -236q141 0 231 74l-151 162q-16 20 -17 41 q0 20 15.5 35.5t37.5 15.5q23 0 41 -19l144 -153q10 18 18 37.5t17 42.5q6 20 13 48.5t11 71.5t7 104.5t3 145.5t-3 145.5t-7 104.5t-11 72t-13 49q-78 236 -336 236q-260 0 -338 -236q-6 -20 -13.5 -49t-11.5 -72t-7 -104.5t-3 -145.5z" />
<glyph unicode="R" horiz-adv-x="1259" d="M193 55v1282q0 55 57 56h432q197 0 309.5 -102.5t112.5 -282.5q0 -147 -76 -242.5t-211 -128.5l279 -561q6 -16 6 -29q0 -23 -14.5 -39t-43.5 -16q-35 0 -55 37l-289 594h-18h-360q-12 0 -13 -13v-555q0 -31 -16.5 -47t-42.5 -16q-25 0 -41 16.5t-16 46.5zM309 745 q0 -12 13 -12h358q152 0 229.5 70.5t77.5 204.5q0 133 -78 203.5t-229 70.5h-358q-12 0 -13 -12v-525z" />
<glyph unicode="S" horiz-adv-x="1214" d="M131 170q0 23 16.5 40t42.5 17q20 0 43 -14q70 -47 164.5 -85t206.5 -38q168 0 264.5 78t96.5 207q0 51 -16.5 96t-54.5 79t-102.5 58.5t-160.5 36.5l-66 8q-205 27 -302 121t-97 248q0 90 30.5 162.5t88 123t138.5 78t179 27.5q111 0 202 -25.5t157 -66.5q38 -24 38 -55 q0 -25 -15 -41.5t-40 -16.5q-10 0 -20.5 4.5t-20.5 8.5q-72 39 -145.5 60.5t-159.5 21.5q-154 0 -234.5 -76t-80.5 -195q0 -109 73.5 -176.5t253.5 -89.5l64 -8q209 -27 308 -122t99 -253q0 -88 -31.5 -162t-93 -128t-153.5 -83.5t-213 -29.5q-129 0 -239.5 40.5 t-188.5 94.5q-31 20 -31 55z" />
<glyph unicode="T" horiz-adv-x="1071" d="M37 1337q0 25 15.5 40.5t43.5 15.5h879q29 0 44 -15.5t15 -40.5t-15 -40t-44 -15h-369q-12 0 -12 -12v-1215q0 -31 -16 -47t-43 -16q-25 0 -41.5 16.5t-16.5 46.5v1215q0 12 -12 12h-369q-29 0 -44 15.5t-15 39.5z" />
<glyph unicode="U" horiz-adv-x="1300" d="M178 481v856q0 31 16.5 47.5t43.5 16.5q25 0 41 -16.5t16 -47.5v-858q0 -199 94 -294t260 -95q168 0 262.5 95.5t94.5 293.5v858q0 31 16 47.5t41 16.5q27 0 43 -16.5t16 -47.5v-856q0 -127 -33.5 -221t-95 -156.5t-148.5 -93t-196 -30.5q-215 0 -343 122.5t-128 378.5z " />
<glyph unicode="V" horiz-adv-x="1144" d="M61 1346q0 25 16.5 40t41.5 15q39 0 55 -45l399 -1161h5l393 1161q16 45 55 45q25 0 41 -15.5t16 -39.5q0 -14 -4 -27l-436 -1264q-10 -33 -26.5 -48t-45.5 -15t-44 15.5t-25 47.5l-436 1264q-4 16 -5 27z" />
<glyph unicode="W" horiz-adv-x="1673" d="M72 1346q0 23 13 39t42 16q45 0 57 -45l273 -1131h4l309 1110q18 66 68 66q47 0 65 -66l316 -1110h4l266 1131q12 45 57 45q29 0 42.5 -16.5t13.5 -38.5q0 -12 -5 -29l-311 -1260q-10 -37 -24 -51t-41 -14q-29 0 -42.5 15.5t-23.5 49.5l-315 1104h-4l-318 -1104 q-10 -35 -23.5 -50t-41.5 -15q-27 0 -41.5 14t-24.5 51l-313 1268q-2 10 -2 21z" />
<glyph unicode="X" horiz-adv-x="1095" d="M82 47q0 18 10 37l391 647l-346 578q-10 18 -10 37q0 23 16.5 39t42.5 16q16 0 28.5 -9.5t21.5 -21.5l313 -522h2l315 522q8 12 20.5 21.5t28.5 9.5q27 0 43.5 -16.5t16.5 -38.5q0 -18 -10 -37l-351 -578l390 -647q10 -18 10 -37q0 -23 -16.5 -39t-43.5 -16 q-16 0 -28.5 9t-20.5 22l-354 591h-2l-359 -591q-8 -12 -20 -21.5t-29 -9.5q-27 0 -43 16.5t-16 38.5z" />
<glyph unicode="Y" horiz-adv-x="1046" d="M57 1348q0 23 16.5 38t41.5 15q33 0 51 -31l358 -659h6l353 659q14 31 51 31q25 0 40 -15.5t15 -37.5q0 -14 -8 -31l-399 -746v-516q0 -31 -16.5 -47t-43.5 -16q-25 0 -41 16.5t-16 46.5v516l-399 746q-8 16 -9 31z" />
<glyph unicode="Z" horiz-adv-x="1105" d="M100 57q0 16 6.5 34t22.5 44l729 1145v2h-672q-29 0 -44 15.5t-15 39.5q0 25 15.5 40.5t43.5 15.5h754q29 0 46.5 -15.5t17.5 -42.5q0 -33 -29 -78l-729 -1144v-2h698q29 0 44.5 -15.5t15.5 -40.5t-15.5 -40t-44.5 -15h-782q-29 0 -45.5 15.5t-16.5 41.5z" />
<glyph unicode="[" horiz-adv-x="579" d="M205 -123v1589q0 49 49 50h188q51 0 52 -50q0 -47 -52 -47h-118q-12 0 -13 -12v-1470q0 -12 13 -13h118q51 0 52 -47q0 -49 -52 -49h-188q-49 0 -49 49z" />
<glyph unicode="\" horiz-adv-x="833" d="M147 1376q0 23 14.5 34t35.5 11q33 0 45 -39l440 -1343q4 -16 4 -23q0 -23 -14.5 -34t-34.5 -11q-33 0 -45 39l-440 1344q-4 16 -5 22z" />
<glyph unicode="]" horiz-adv-x="579" d="M86 -123q0 47 51 47h121q12 0 12 13v1470q0 12 -12 12h-121q-51 0 -51 47q0 49 51 50h191q47 0 47 -50v-1589q0 -49 -47 -49h-191q-51 0 -51 49z" />
<glyph unicode="^" d="M152 618q0 14 8 31l321 699q25 53 64 53t63 -53l322 -699q8 -16 8 -31q0 -18 -13 -32.5t-38 -14.5q-33 0 -49 37l-291 647h-4l-291 -647q-16 -37 -49 -37q-25 0 -38 14.5t-13 32.5z" />
<glyph unicode="_" horiz-adv-x="940" d="M0 -168h940v-82h-940v82z" />
<glyph unicode="`" horiz-adv-x="864" d="M319 1397q0 18 12.5 31.5t35.5 13.5q27 0 43 -27l127 -205q10 -16 10 -30q0 -18 -12 -31.5t-35 -13.5t-37 22l-133 207q-10 16 -11 33z" />
<glyph unicode="a" horiz-adv-x="1054" d="M135 268q0 145 96.5 218t274.5 73h250q12 0 12 12v70q0 121 -55.5 186.5t-198.5 65.5q-63 0 -122.5 -18.5t-100.5 -43.5q-18 -12 -39 -12q-51 0 -51 51q0 27 22 45q45 35 121 58.5t176 23.5q182 0 268 -84t86 -264v-395q0 -41 5.5 -61.5t15.5 -42.5l39 -74q8 -16 8 -31 q0 -23 -15.5 -38t-41.5 -15q-33 0 -54 35l-47 77h-4q-53 -59 -124.5 -91.5t-186.5 -32.5q-72 0 -132.5 18t-105.5 55t-70.5 91.5t-25.5 123.5zM246 266q0 -182 241 -182q127 0 204 57.5t77 159.5v145q0 12 -12 13h-234q-147 0 -211.5 -46t-64.5 -147z" />
<glyph unicode="b" horiz-adv-x="1087" d="M188 51v1290q0 29 15.5 44.5t40.5 15.5t40 -15.5t15 -44.5v-487h2q35 63 103.5 103t189.5 40q125 0 211 -62.5t125 -178.5q18 -59 26.5 -121t8.5 -146q0 -86 -8.5 -147t-26.5 -121q-39 -117 -125 -179t-211 -62q-121 0 -189.5 39.5t-103.5 103.5h-2v-72q0 -29 -15.5 -44 t-39.5 -15q-25 0 -40.5 15.5t-15.5 43.5zM299 489q0 -74 6 -133t19 -100q29 -86 94 -128t157 -42q94 0 158 46t92 130q16 47 21.5 100.5t5.5 126.5q0 72 -5 125.5t-22 100.5q-29 84 -92 130t-158 46q-92 0 -157.5 -42t-93.5 -128q-12 -41 -18.5 -100.5t-6.5 -131.5z" />
<glyph unicode="c" horiz-adv-x="952" d="M123 487q0 72 7 137.5t24 118.5q39 121 134 187.5t230 66.5q117 0 196 -47t120 -116q8 -14 8 -33q0 -20 -13.5 -34.5t-35.5 -14.5q-31 0 -52 30q-35 47 -86 78t-137 31q-98 0 -162.5 -47t-93.5 -135q-14 -41 -20 -92.5t-6 -129.5t6 -128t20 -91q29 -88 93.5 -135 t162.5 -47q86 0 137.5 30.5t85.5 78.5q20 31 52 30q23 0 36 -14t13 -35q0 -18 -8 -33q-41 -70 -120 -116.5t-196 -46.5q-135 0 -230 66.5t-134 186.5q-16 53 -23.5 117.5t-7.5 136.5z" />
<glyph unicode="d" horiz-adv-x="1087" d="M123 489q0 84 8 145.5t27 121.5q39 117 125 179t211 62q121 0 189.5 -39.5t102.5 -103.5h2v487q0 29 15.5 44.5t40.5 15.5t40 -15.5t15 -44.5v-1290q0 -29 -15 -44t-40 -15t-40.5 15.5t-15.5 43.5v72h-2q-35 -63 -103.5 -103t-188.5 -40q-125 0 -211 62t-125 179 q-18 59 -26.5 120.5t-8.5 147.5zM236 489q0 -74 5 -127t21 -100q29 -84 92.5 -130t157.5 -46q92 0 157.5 42t94.5 128q12 41 18 100.5t6 132.5q0 72 -6 131.5t-18 100.5q-29 86 -94.5 128t-157.5 42q-94 0 -157.5 -46t-92.5 -130q-16 -47 -21 -100.5t-5 -125.5z" />
<glyph unicode="e" horiz-adv-x="1030" d="M123 489q0 92 7 149.5t24 104.5q41 123 135 188.5t225 65.5q133 0 227.5 -65.5t135.5 -188.5q16 -47 23 -103t7 -130q0 -51 -51 -51h-608q-12 0 -12 -13q0 -59 4 -96t16 -74q33 -98 104.5 -144t171.5 -46q84 0 146.5 26.5t118.5 84.5q8 8 18 14t23 6q23 0 36 -13.5 t13 -33.5q0 -23 -13 -37q-53 -66 -139 -109.5t-209 -43.5q-141 0 -236 64.5t-136 191.5q-16 47 -23.5 103t-7.5 150zM236 571q0 -12 12 -12h534q12 0 13 12q0 43 -4.5 77t-14.5 63q-29 92 -97.5 138t-164.5 46t-163.5 -46t-96.5 -138q-10 -29 -14 -63t-4 -77z" />
<glyph unicode="f" horiz-adv-x="630" d="M76 928q0 23 13 36t40 13h80q12 0 12 12v105q0 88 15.5 145t47 91t84 48.5t126.5 14.5h28q29 0 43.5 -15.5t14.5 -38.5t-14.5 -38t-43.5 -15q-61 0 -98 -6t-57.5 -25.5t-27.5 -54.5t-7 -92v-119q0 -12 12 -12h184q27 0 39.5 -13.5t12.5 -35.5q0 -23 -12.5 -36t-39.5 -13 h-184q-12 0 -12 -13v-815q0 -29 -15.5 -44t-40.5 -15t-40 15.5t-15 43.5v815q0 12 -12 13h-80q-27 0 -40 13t-13 36z" />
<glyph unicode="g" horiz-adv-x="1069" d="M121 496q0 90 8 148t25 112q37 115 120.5 178t206.5 63q117 0 184.5 -38.5t102.5 -104.5h2v72q0 29 15.5 44t39.5 15q25 0 40.5 -15.5t15.5 -43.5v-908q0 -205 -105 -306t-289 -101q-94 0 -174 32.5t-131 84.5q-16 16 -16 36q0 25 15.5 41.5t39.5 16.5q14 0 25.5 -6 t21.5 -17q88 -82 224 -82q131 0 204.5 69t73.5 228v123h-2q-35 -66 -101.5 -103.5t-185.5 -37.5q-123 0 -207 63.5t-120 178.5q-16 53 -24.5 111.5t-8.5 146.5zM233 496q0 -137 27 -217q60 -177 242 -177q86 0 148.5 39t94.5 133q14 41 19.5 93.5t5.5 128.5q0 78 -5 130 t-20 93q-33 94 -95 133t-148 39q-182 0 -242 -176q-27 -80 -27 -219z" />
<glyph unicode="h" horiz-adv-x="1107" d="M188 51v1290q0 29 15.5 44.5t40.5 15.5t40 -15.5t15 -44.5v-483h2q41 66 112.5 102.5t176.5 36.5q162 0 252 -96t90 -276v-574q0 -29 -15 -44t-40 -15t-40.5 15.5t-15.5 43.5v547q0 293 -256 293q-55 0 -103 -19.5t-85 -54.5t-57.5 -85t-20.5 -114v-567q0 -29 -15.5 -44 t-39.5 -15q-25 0 -40.5 15.5t-15.5 43.5z" />
<glyph unicode="i" horiz-adv-x="487" d="M158 1315q0 35 25.5 60.5t60.5 25.5t60.5 -25.5t25.5 -60.5t-25.5 -60.5t-60.5 -25.5t-60.5 25.5t-25.5 60.5zM188 51v875q0 29 15.5 44t40.5 15t40 -15.5t15 -43.5v-875q0 -29 -15 -44t-40 -15t-40.5 15.5t-15.5 43.5z" />
<glyph unicode="j" horiz-adv-x="487" d="M-4 -315q0 23 14.5 38t42.5 15q78 0 106.5 31.5t28.5 117.5v1039q0 29 15.5 44t40.5 15t40 -15.5t15 -43.5v-1037q0 -139 -54.5 -198.5t-191.5 -59.5q-29 0 -43 15.5t-14 38.5zM158 1315q0 35 25.5 60.5t60.5 25.5t60.5 -25.5t25.5 -60.5t-25.5 -60.5t-60.5 -25.5 t-60.5 25.5t-25.5 60.5z" />
<glyph unicode="k" horiz-adv-x="1009" d="M188 51v1290q0 29 15.5 44.5t40.5 15.5t40 -15.5t15 -44.5v-909l451 533q16 20 41 20q23 0 36 -13.5t13 -35.5q0 -18 -13 -33l-245 -291l331 -536q10 -16 11 -35q0 -20 -14.5 -34.5t-39.5 -14.5q-33 0 -53 33l-309 501l-209 -241v-234q0 -29 -15.5 -44t-39.5 -15 q-25 0 -40.5 15.5t-15.5 43.5z" />
<glyph unicode="l" horiz-adv-x="536" d="M186 223v1118q0 29 15.5 44.5t40.5 15.5t40 -15.5t15 -44.5v-1114q0 -72 23.5 -99.5t89.5 -27.5q29 0 43 -15t14 -38t-14.5 -38t-42.5 -15h-21q-113 0 -158 54t-45 175z" />
<glyph unicode="m" horiz-adv-x="1738" d="M188 51v875q0 29 15.5 44t40.5 15t40 -15.5t15 -43.5v-68h2q41 66 112.5 102.5t176.5 36.5q115 0 187.5 -43t111.5 -120h2q47 76 127 119.5t201 43.5q168 0 257 -96t89 -276v-574q0 -29 -15.5 -44t-40.5 -15t-40 15.5t-15 43.5v547q0 293 -256 293q-55 0 -103 -19.5 t-85 -54.5t-57.5 -85t-20.5 -114v-567q0 -29 -15.5 -44t-39.5 -15q-25 0 -40.5 15.5t-15.5 43.5v547q0 293 -256 293q-55 0 -103 -19.5t-85 -54.5t-57.5 -85t-20.5 -114v-567q0 -29 -15.5 -44t-39.5 -15q-25 0 -40.5 15.5t-15.5 43.5z" />
<glyph unicode="n" horiz-adv-x="1107" d="M188 51v875q0 29 15.5 44t40.5 15t40 -15.5t15 -43.5v-68h2q41 66 112.5 102.5t176.5 36.5q162 0 252 -96t90 -276v-574q0 -29 -15 -44t-40 -15t-40.5 15.5t-15.5 43.5v547q0 293 -256 293q-55 0 -103 -19.5t-85 -54.5t-57.5 -85t-20.5 -114v-567q0 -29 -15.5 -44 t-39.5 -15q-25 0 -40.5 15.5t-15.5 43.5z" />
<glyph unicode="o" horiz-adv-x="1042" d="M123 489q0 88 8 146.5t25 107.5q41 123 135 188.5t229 65.5t230.5 -65.5t136.5 -188.5q16 -49 24.5 -107t8.5 -147q0 -90 -8.5 -148t-24.5 -108q-41 -123 -136.5 -188t-230.5 -65t-229 65.5t-135 187.5q-16 49 -24.5 107.5t-8.5 148.5zM236 489q0 -80 6 -130t20 -91 q29 -88 96.5 -135t161.5 -47q96 0 164 47t96 135q14 41 20.5 91.5t6.5 129.5q0 78 -6 128.5t-21 91.5q-29 88 -96.5 135t-163.5 47q-94 0 -161.5 -47t-96.5 -135q-14 -41 -20 -91.5t-6 -128.5z" />
<glyph unicode="p" horiz-adv-x="1087" d="M188 -317v1243q0 29 15.5 44t40.5 15t40 -15.5t15 -43.5v-72h2q35 63 103.5 103t189.5 40q125 0 211 -62.5t125 -178.5q18 -59 26.5 -121t8.5 -146q0 -86 -8.5 -147t-26.5 -121q-39 -117 -125 -179t-211 -62q-121 0 -189.5 39.5t-103.5 103.5h-2v-440q0 -29 -15 -44.5 t-40 -15.5t-40.5 15.5t-15.5 44.5zM299 489q0 -74 6 -133t19 -100q29 -86 94 -128t157 -42q94 0 158 46t92 130q16 47 21.5 100.5t5.5 126.5q0 72 -5 125.5t-22 100.5q-29 84 -92 130t-158 46q-92 0 -157.5 -42t-93.5 -128q-12 -41 -18.5 -100.5t-6.5 -131.5z" />
<glyph unicode="q" horiz-adv-x="1087" d="M123 489q0 84 8 145.5t27 121.5q39 117 125 179t211 62q121 0 189.5 -39.5t102.5 -103.5h2v72q0 29 15.5 44t40.5 15t40 -15.5t15 -43.5v-1243q0 -29 -15 -44.5t-40 -15.5t-40.5 15.5t-15.5 44.5v440h-2q-35 -63 -103.5 -103t-188.5 -40q-125 0 -211 62t-125 179 q-18 59 -26.5 120.5t-8.5 147.5zM236 489q0 -74 5 -127t21 -100q29 -84 92.5 -130t157.5 -46q92 0 157.5 42t94.5 128q12 41 18 100.5t6 132.5q0 72 -6 131.5t-18 100.5q-29 86 -94.5 128t-157.5 42q-94 0 -157.5 -46t-92.5 -130q-16 -47 -21 -100.5t-5 -125.5z" />
<glyph unicode="r" horiz-adv-x="798" d="M188 51v875q0 29 15.5 44t40.5 15t40 -15.5t15 -43.5v-95h2q29 74 94.5 120t161.5 46q59 0 99 -13t69 -30q33 -18 33 -49q0 -23 -15.5 -39t-40.5 -16q-14 0 -28 6q-35 16 -68 25.5t-69 9.5q-66 0 -111 -25.5t-72.5 -70.5t-41 -105.5t-13.5 -128.5v-510q0 -29 -15 -44 t-40 -15t-40.5 15.5t-15.5 43.5z" />
<glyph unicode="s" horiz-adv-x="985" d="M132 178.5q15 14.5 38 14.5q18 0 37 -13q59 -43 134 -70.5t163 -27.5q129 0 191.5 52t62.5 136q0 37 -9.5 66t-35 50.5t-68.5 34.5t-110 21l-101 11q-135 14 -208.5 78.5t-73.5 179.5q0 135 92 210.5t252 75.5q88 0 162.5 -21.5t127.5 -51.5q35 -20 35 -52 q0 -20 -13 -34.5t-34 -14.5q-20 0 -41 11q-49 27 -116.5 44t-127.5 17q-113 0 -170 -46t-57 -128q0 -72 49 -112t174 -52l101 -10q282 -31 282 -262v-2q0 -139 -96 -221t-278 -82q-111 0 -201 33.5t-152 80.5q-24 17 -24 45q0 25 15 39.5z" />
<glyph unicode="t" horiz-adv-x="636" d="M72 928q0 23 13 36t40 13h80q12 0 12 12v250q0 29 15.5 44t39.5 15q25 0 40.5 -15t15.5 -44v-250q0 -12 12 -12h156q27 0 40 -13.5t13 -35.5q0 -23 -13.5 -36t-39.5 -13h-156q-12 0 -12 -13v-606q0 -96 35.5 -128t130.5 -32q29 0 43 -15t14 -38t-14.5 -38t-42.5 -15h-27 q-135 0 -192.5 58.5t-57.5 203.5v610q0 12 -12 13h-80q-27 0 -40 13t-13 36z" />
<glyph unicode="u" horiz-adv-x="1095" d="M172 352v574q0 29 15.5 44t39.5 15q25 0 40.5 -15.5t15.5 -43.5v-547q0 -293 252 -293q55 0 103 18.5t83 54.5t55.5 86t20.5 113v568q0 29 15 44t40 15t40 -15.5t15 -43.5v-875q0 -29 -15 -44t-40 -15t-40 15.5t-15 43.5v68h-2q-41 -66 -111 -102.5t-174 -36.5 q-162 0 -250 96t-88 276z" />
<glyph unicode="v" horiz-adv-x="958" d="M78 932q0 20 13 36.5t42 16.5q23 0 35 -12t18 -29l295 -770h2l289 770q6 16 18.5 28.5t34.5 12.5q29 0 42.5 -16.5t13.5 -36.5q0 -12 -7 -31l-323 -842q-14 -39 -29.5 -53t-42.5 -14t-42 14t-29 53l-324 842q-6 18 -6 31z" />
<glyph unicode="w" horiz-adv-x="1503" d="M86 932q0 23 13.5 38t39.5 15q39 0 56 -47l247 -762h2l242 744q20 65 65 65h1q45 0 65 -65l248 -744h2l242 762q16 47 55 47q27 0 40 -15.5t13 -37.5q0 -12 -4 -25l-283 -852q-10 -35 -26 -49t-41 -14t-41 14t-27 49l-241 746h-2l-244 -746q-10 -35 -26.5 -49t-41.5 -14 t-41 14t-26 49l-283 852q-4 12 -4 25z" />
<glyph unicode="x" horiz-adv-x="946" d="M102 41q0 18 15 39l295 432l-260 385q-14 20 -15 39q0 18 13.5 33.5t35.5 15.5q31 0 52 -31l235 -346h2l238 346q20 31 51 31q23 0 35 -14.5t12 -32.5t-14 -41l-262 -385l294 -432q14 -20 15 -39q0 -18 -14 -33.5t-37 -15.5q-31 0 -52 31l-266 391h-2l-270 -391 q-20 -31 -51 -31q-23 0 -36.5 15.5t-13.5 33.5z" />
<glyph unicode="y" horiz-adv-x="958" d="M78 934q0 20 15.5 35.5t39.5 15.5q39 0 53 -41l297 -772h2l289 772q14 41 53 41q25 0 39.5 -15.5t14.5 -35.5q0 -14 -4 -27l-385 -1001q-33 -86 -63 -139.5t-62.5 -83t-70.5 -41t-83 -11.5h-16q-29 0 -43.5 15.5t-14.5 38.5t14.5 38t43.5 15q35 0 60.5 7t48 26.5t42 55.5 t41.5 95l39 98l-346 887q-4 12 -4 27z" />
<glyph unicode="z" horiz-adv-x="931" d="M96 53q0 31 33 72l563 741v4h-512q-29 0 -43 15.5t-14 38.5t14.5 38t42.5 15h600q29 0 43.5 -15.5t14.5 -37.5q0 -16 -7.5 -31.5t-25.5 -40.5l-563 -741v-5h538q29 0 43.5 -15t14.5 -38t-14.5 -38t-43.5 -15h-626q-29 0 -43.5 15.5t-14.5 37.5z" />
<glyph unicode="{" horiz-adv-x="651" d="M127 676q0 47 57 53q55 8 77 42t22 130v402q0 115 48 164t148 49h37q51 0 51 -50q0 -47 -53 -47h-27q-53 0 -76.5 -25.5t-23.5 -88.5v-394q0 -59 -6 -98t-18.5 -65.5t-33 -43t-48.5 -26.5v-4q29 -10 49 -26.5t32.5 -43t18.5 -66.5t6 -98v-401q0 -63 23.5 -89t76.5 -26h27 q53 0 53 -47q0 -49 -51 -49h-37q-100 0 -148 49t-48 164v410q0 49 -5.5 79.5t-16.5 50t-30.5 28.5t-46.5 14q-57 6 -57 53z" />
<glyph unicode="|" horiz-adv-x="503" d="M203 -127v1597q0 27 13 40.5t36 13.5t36 -13.5t13 -40.5v-1597q0 -27 -13 -40t-36 -13t-36 13t-13 40z" />
<glyph unicode="}" horiz-adv-x="651" d="M84 -123q0 47 53 47h27q53 0 76.5 25.5t23.5 89.5v401q0 57 6 97.5t18.5 67t33 43t49.5 26.5v4q-29 10 -49.5 26.5t-33 43t-18.5 65.5t-6 98v394q0 63 -23.5 88.5t-76.5 25.5h-27q-53 0 -53 47q0 49 53 50h35q100 0 149.5 -49.5t49.5 -163.5v-402q0 -96 20.5 -130 t75.5 -42q57 -6 57 -53t-57 -53q-29 -4 -47.5 -13.5t-28.5 -29t-15 -50t-5 -79.5v-410q0 -115 -49.5 -164t-149.5 -49h-35q-53 0 -53 49z" />
<glyph unicode="~" d="M131 510q0 16 8 31q45 74 105.5 108.5t126.5 34.5q59 0 105 -21.5t93 -56.5q49 -35 81 -51t71 -16q45 0 81 22.5t70 73.5q14 25 41 24q20 0 32.5 -12t12.5 -31q0 -16 -8 -30q-45 -74 -105 -109t-126 -35q-59 0 -105.5 21.5t-93.5 56.5q-49 35 -80.5 51.5t-70.5 16.5 q-45 0 -81 -22.5t-71 -73.5q-16 -25 -41 -25q-20 0 -32.5 12.5t-12.5 30.5z" />
<glyph unicode="&#xa1;" horiz-adv-x="544" d="M187 899q0 35 25.5 60.5t60.5 25.5t60.5 -25.5t25.5 -60.5t-26 -60.5t-60 -25.5q-35 0 -60.5 25.5t-25.5 60.5zM217 -364v931q0 29 15.5 43.5t40.5 14.5t40 -14.5t15 -43.5v-931q0 -29 -15.5 -44.5t-39.5 -15.5q-25 0 -40.5 15.5t-15.5 44.5z" />
<glyph unicode="&#xa2;" d="M180 487q0 90 9.5 146.5t25.5 109.5q35 106 115 172t200 78v156q0 43 39 43t39 -43v-154q113 -4 187.5 -53t109.5 -115q8 -14 8 -32q0 -20 -13 -35t-36 -15q-31 0 -51 31q-31 43 -82 76t-123 37v-803q74 6 124 38t81 77q20 31 51 30q23 0 36 -14t13 -35q0 -18 -8 -32 q-35 -66 -109.5 -115t-187.5 -53v-156q0 -43 -39 -43t-39 43v158q-121 12 -200.5 77.5t-114.5 171.5q-16 53 -25.5 109.5t-9.5 144.5zM293 487q0 -78 7.5 -128t21.5 -91q23 -74 76 -120t132 -58v795q-80 -10 -133 -56.5t-75 -119.5q-14 -41 -21.5 -92.5t-7.5 -129.5z" />
<glyph unicode="&#xa3;" d="M164 655q0 23 12 36.5t39 13.5h78q12 0 12 12v346q0 170 84 260t225 90q117 0 188.5 -59.5t100.5 -151.5q4 -16 4 -26q0 -23 -15 -36.5t-38 -13.5q-37 0 -57 50q-27 61 -69 96t-114 35q-88 0 -143 -54.5t-55 -175.5v-360q0 -12 14 -12h252q29 0 41 -13.5t12 -36.5 t-12 -36t-41 -13h-252q-14 0 -14 -12v-266q0 -78 -14.5 -128t-51.5 -91v-3h529q29 0 42 -15t13 -38t-13.5 -38t-41.5 -15h-617q-55 0 -55 51q0 18 9 35.5t32 44.5q35 39 46 76t11 106v281q0 12 -12 12h-78q-27 0 -39 13.5t-12 35.5z" />
<glyph unicode="&#xa4;" d="M109 272q0 12 4 19.5t12 17.5l111 115q-76 98 -76 240q0 139 76 239l-111 115q-8 10 -12 17t-4 20q0 20 13 34.5t36 14.5q20 0 37 -17l112 -114q47 37 107.5 57.5t130.5 20.5q68 0 128 -20.5t107 -57.5l115 114q16 16 37 17q23 0 36 -14.5t13 -34.5q0 -12 -4 -19.5 t-12 -17.5l-113 -115q37 -49 57.5 -109.5t20.5 -129.5q0 -70 -20.5 -131.5t-57.5 -108.5l113 -115q8 -10 12 -17t4 -20q0 -20 -13.5 -34.5t-35.5 -14.5q-20 0 -37 17l-115 112q-98 -76 -235 -76q-139 0 -238 76l-112 -112q-16 -16 -37 -17q-23 0 -36 14.5t-13 34.5zM256 664 q0 -63 21.5 -116.5t59.5 -93.5t91.5 -62.5t116.5 -22.5t115.5 22.5t91.5 62.5t60.5 93t21.5 117q0 63 -21.5 116.5t-60.5 93t-91.5 62t-115.5 22.5t-116.5 -22.5t-91.5 -62t-59.5 -93t-21.5 -116.5z" />
<glyph unicode="&#xa5;" d="M137 1350q0 20 14.5 35.5t41.5 15.5q33 0 49 -35l303 -664h4l299 664q16 35 49 35q27 0 41 -15.5t14 -35.5q0 -16 -8 -33l-307 -653v-2h221q53 0 53 -48q0 -45 -53 -45h-246q-12 0 -12 -12v-123q0 -12 12 -12h246q53 0 53 -47q0 -45 -53 -45h-246q-12 0 -12 -13v-266 q0 -29 -15 -44t-40 -15t-40.5 15.5t-15.5 43.5v266q0 12 -12 13h-246q-53 0 -53 45q0 47 53 47h246q12 0 12 12v123q0 12 -12 12h-246q-53 0 -53 45q0 47 53 48h222v2l-308 653q-8 16 -8 33z" />
<glyph unicode="&#xa6;" horiz-adv-x="503" d="M203 -127v639q0 27 13 40t36 13t36 -13t13 -40v-639q0 -27 -13 -40t-36 -13t-36 13t-13 40zM203 840v630q0 27 13 40.5t36 13.5t36 -13.5t13 -40.5v-630q0 -27 -13 -40.5t-36 -13.5t-36 13.5t-13 40.5z" />
<glyph unicode="&#xa7;" horiz-adv-x="1085" d="M188 518q0 117 55.5 209t170.5 125v2q-94 35 -136 102.5t-42 165.5q0 63 22.5 116.5t62 92.5t97 60.5t129.5 21.5q133 0 206.5 -64.5t98.5 -162.5q4 -16 4 -33q0 -49 -53 -49q-37 0 -49 47q-18 76 -68.5 119t-140.5 43q-94 0 -148.5 -49.5t-54.5 -141.5 q0 -96 59.5 -152.5t210.5 -88.5q147 -33 216 -124t69 -239q0 -121 -54.5 -211t-160.5 -121v-2q80 -35 131 -96t51 -176q0 -72 -24.5 -127t-68.5 -94t-103 -59.5t-129 -20.5q-137 0 -218 68.5t-104 185.5q-4 16 -4 33q0 23 14.5 36t36.5 13q18 0 33.5 -11.5t19.5 -35.5 q16 -92 72.5 -140.5t147.5 -48.5q102 0 161.5 51.5t59.5 153.5q0 98 -64.5 152.5t-218.5 85.5q-150 29 -218.5 123t-68.5 241zM295 518q0 -131 68.5 -197.5t179.5 -66.5t179.5 66.5t68.5 197.5q0 129 -69 195.5t-179 66.5q-111 0 -179.5 -66.5t-68.5 -195.5z" />
<glyph unicode="&#xa8;" horiz-adv-x="862" d="M150 1313q0 33 22.5 56.5t54.5 23.5q33 0 56.5 -23.5t23.5 -56.5t-23.5 -55.5t-56.5 -22.5t-55 22.5t-22 55.5zM557 1313q0 33 22.5 56.5t55.5 23.5t55.5 -23.5t22.5 -56.5t-22.5 -55.5t-55.5 -22.5t-55.5 22.5t-22.5 55.5z" />
<glyph unicode="&#xa9;" horiz-adv-x="1699" d="M133 696q0 154 54.5 285t150.5 227.5t227 150.5t285 54t285 -54t227 -150.5t150.5 -227.5t54.5 -285t-54.5 -284.5t-150.5 -227t-227 -150.5t-285 -54t-285 54t-227 150.5t-150.5 227.5t-54.5 284zM223 696q0 -135 47 -250.5t131 -200.5t199 -133.5t250 -48.5t249.5 48.5 t198.5 133.5t131.5 200.5t47.5 250.5t-47.5 251t-131.5 201t-198.5 133t-249.5 48t-250 -48t-199 -133t-131 -201t-47 -251zM545 696q0 74 6 117t16 76q35 104 111 156.5t186 52.5q90 0 154.5 -37t99.5 -92q6 -12 6 -23q0 -18 -11 -30.5t-32 -12.5q-23 0 -39 21 q-33 41 -72.5 63.5t-107.5 22.5q-76 0 -129 -35t-78 -111q-10 -29 -14 -65.5t-4 -102.5t4 -102.5t14 -65.5q25 -76 78 -110.5t129 -34.5q68 0 108 22.5t72 63.5q16 20 39 20q20 0 31.5 -12t11.5 -31q0 -10 -6 -22q-35 -55 -99.5 -92t-154.5 -37q-111 0 -186.5 52t-110.5 157 q-10 33 -16 76t-6 116z" />
<glyph unicode="&#xaa;" horiz-adv-x="696" d="M92 967q0 96 64.5 141t183.5 45h141q12 0 13 12v25q0 59 -35 95t-121 36q-47 0 -83 -10.5t-65 -26.5q-14 -8 -26 -8q-16 0 -27.5 12t-11.5 31q0 23 22 39q33 23 82.5 36t116.5 13q125 0 182.5 -53.5t57.5 -167.5v-203q0 -18 2 -30.5t12 -30.5l27 -54q8 -16 8 -28 q0 -45 -49 -45q-27 0 -47 32l-23 35h-2q-29 -29 -76 -50t-123 -21q-102 0 -162.5 46t-60.5 130zM186 975q0 -49 37 -76t103 -27q72 0 120 32t48 79v80q0 12 -13 12h-133q-162 0 -162 -100z" />
<glyph unicode="&#xab;" horiz-adv-x="1081" d="M129 541q0 27 33 59l260 266q16 16 37 17q23 0 36 -13.5t13 -33.5q0 -18 -16 -37l-244 -250q-8 -8 0 -17l244 -249q16 -18 16 -37q0 -20 -13 -33.5t-36 -13.5q-20 0 -37 16l-260 266q-18 18 -25.5 30.5t-7.5 29.5zM543 541q0 27 32 59l261 266q16 16 36 17 q23 0 36.5 -13.5t13.5 -33.5q0 -18 -17 -37l-243 -250q-8 -8 0 -17l243 -249q16 -18 17 -37q0 -20 -13.5 -33.5t-36.5 -13.5q-20 0 -36 16l-261 266q-33 33 -32 60z" />
<glyph unicode="&#xac;" d="M127 565q0 51 57 51h717q53 0 53 -51v-276q0 -29 -15 -43.5t-38 -14.5t-38 14.5t-15 43.5v213q0 12 -12 12h-652q-57 0 -57 51z" />
<glyph unicode="&#xad;" horiz-adv-x="763" d="M100 543q0 51 58 51h469q57 0 57 -51t-57 -51h-469q-57 0 -58 51z" />
<glyph unicode="&#xae;" horiz-adv-x="940" d="M76 1010q0 84 29.5 155.5t83 124.5t126 83t156.5 30t156.5 -30t125 -83t82 -124.5t29.5 -155.5t-29.5 -157t-82 -126t-125 -83t-156.5 -30t-156.5 30t-126 83t-83 126t-29.5 157zM139 1010q0 -72 24.5 -133.5t70 -106.5t105.5 -69.5t132 -24.5q70 0 130.5 24.5 t105.5 69.5t69.5 106.5t24.5 133.5t-24.5 132t-69.5 105t-105.5 69.5t-130.5 24.5q-72 0 -132 -24.5t-105.5 -69.5t-70 -105.5t-24.5 -131.5zM319 823v377q0 33 33 33h150q66 0 104.5 -35t38.5 -94q0 -45 -22.5 -77t-65.5 -44l74 -145q6 -12 6 -23q0 -12 -11.5 -20.5 t-23.5 -8.5q-23 0 -31 19l-84 170h-92q-6 0 -6 -6v-146q0 -37 -33 -37q-37 0 -37 37zM389 1042q0 -6 6 -6h105q41 0 58 17.5t17 50.5t-17 51.5t-58 18.5h-105q-6 0 -6 -5v-127z" />
<glyph unicode="&#xaf;" horiz-adv-x="864" d="M154 1313q0 20 14 33.5t37 13.5h454q23 0 37.5 -13.5t14.5 -33.5t-14.5 -33.5t-37.5 -13.5h-454q-23 0 -37 13t-14 34z" />
<glyph unicode="&#xb0;" horiz-adv-x="915" d="M166 1114q0 63 22.5 116.5t61.5 92.5t92 61.5t115 22.5q63 0 116.5 -22.5t92.5 -61.5t61.5 -92t22.5 -117q0 -63 -22.5 -116.5t-61.5 -92.5t-92.5 -61.5t-116.5 -22.5q-61 0 -114.5 22.5t-92.5 61.5t-61.5 92.5t-22.5 116.5zM250 1114q0 -92 57.5 -153.5t149.5 -61.5 t150.5 61.5t58.5 153.5q0 45 -15.5 84t-43 68.5t-66.5 46t-84 16.5q-92 0 -149.5 -61.5t-57.5 -153.5z" />
<glyph unicode="&#xb1;" d="M127 51q0 51 57 51h721q57 0 58 -51q0 -51 -58 -51h-721q-57 0 -57 51zM127 633q0 51 57 51h295q12 0 13 12v299q0 29 15 43.5t38 14.5t38 -14.5t15 -43.5v-299q0 -12 12 -12h295q57 0 58 -51q0 -51 -58 -51h-295q-12 0 -12 -13v-299q0 -29 -15 -43t-38 -14t-38 14.5 t-15 42.5v299q0 12 -13 13h-295q-57 0 -57 51z" />
<glyph unicode="&#xb2;" horiz-adv-x="677" d="M80 925q0 29 31 62l307 358q33 39 51 77t18 79q0 59 -36.5 98t-102.5 39q-59 0 -95 -27.5t-52 -72.5q-14 -41 -49 -41q-23 0 -34.5 12t-11.5 29q0 12 5 24q20 61 76.5 112.5t158.5 51.5q115 0 176.5 -66.5t61.5 -158.5q0 -57 -22.5 -105.5t-69.5 -101.5l-277 -322v-4h336 q23 0 35 -12t12 -31q0 -45 -47 -45h-422q-49 0 -49 45z" />
<glyph unicode="&#xb3;" horiz-adv-x="677" d="M90 1036q0 18 12.5 29.5t30.5 11.5q14 0 24.5 -7.5t22.5 -27.5q23 -33 61 -60.5t99 -27.5q72 0 116 45t44 113q0 66 -45 110.5t-129 44.5q-23 0 -36.5 12.5t-13.5 30.5q0 23 13.5 34t36.5 11q72 0 112.5 39t40.5 105q0 59 -38 99t-107 40q-57 0 -88 -22.5t-53 -57.5 q-12 -20 -22.5 -27.5t-25.5 -7.5q-18 0 -30.5 11.5t-12.5 29.5q0 10 7 27q23 53 79 94t148 41q111 0 175 -62.5t64 -160.5q0 -66 -30.5 -111t-73.5 -74v-2q20 -8 42 -25.5t40 -43t30.5 -59t12.5 -76.5q0 -109 -68.5 -177.5t-185.5 -68.5q-98 0 -159.5 40t-86.5 103 q-6 14 -6 27z" />
<glyph unicode="&#xb4;" horiz-adv-x="864" d="M319 1180q0 14 11 30l127 205q16 27 43 27q23 0 35 -13.5t12 -31.5q0 -16 -10 -33l-134 -207q-14 -23 -36 -22q-23 0 -35.5 13t-12.5 32z" />
<glyph unicode="&#xb5;" horiz-adv-x="1112" d="M188 -317v1243q0 29 15.5 44t40.5 15t40 -15.5t15 -43.5v-547q0 -293 252 -293q55 0 103 18.5t83 54.5t55.5 86t20.5 113v568q0 29 15.5 44t39.5 15q25 0 40.5 -15.5t15.5 -43.5v-875q0 -29 -15.5 -44t-40.5 -15t-40 15.5t-15 43.5v86h-2q-35 -72 -105.5 -114.5 t-168.5 -42.5q-82 0 -141.5 24.5t-94.5 79.5h-2v-401q0 -29 -15.5 -44.5t-39.5 -15.5q-25 0 -40.5 15.5t-15.5 44.5z" />
<glyph unicode="&#xb6;" horiz-adv-x="1167" d="M160 971q0 88 28.5 164.5t86 134t141.5 90.5t194 33h326q49 0 49 -50v-1667q0 -25 -14 -39t-37 -14t-38 14.5t-15 38.5v1602q0 12 -13 12h-196q-12 0 -13 -12v-1602q0 -25 -15 -39t-38 -14t-37 14.5t-14 38.5v871q-92 6 -166 40t-124 90t-77.5 131t-27.5 163z" />
<glyph unicode="&#xb7;" horiz-adv-x="450" d="M135 541q0 37 26.5 63.5t63.5 26.5t63.5 -26.5t26.5 -63.5t-26.5 -63.5t-63.5 -26.5t-63.5 26.5t-26.5 63.5z" />
<glyph unicode="&#xb8;" horiz-adv-x="864" d="M336 -266q0 14 6 30l88 236q8 20 27 20h59q20 0 14 -20l-96 -276q-12 -39 -49 -39q-20 0 -34.5 13t-14.5 36z" />
<glyph unicode="&#xb9;" horiz-adv-x="677" d="M152 1560q0 25 24 43l125 86q16 12 31.5 19.5t34.5 7.5q27 0 41 -15.5t14 -38.5v-733q0 -25 -13 -39t-36 -14q-47 0 -47 53v664h-2l-99 -68q-16 -10 -30 -10q-18 0 -30.5 12.5t-12.5 32.5z" />
<glyph unicode="&#xba;" horiz-adv-x="708" d="M90 1098q0 49 5 82.5t16 62.5q55 164 243 164t244 -164q10 -29 15 -62.5t5 -82.5t-5 -83t-15 -63q-56 -164 -244 -164t-243 164q-10 29 -15.5 63t-5.5 83zM188 1098q0 -39 4.5 -65.5t12.5 -49.5q32 -106 149 -106t150 106q8 23 12 49.5t4 65.5t-4 65.5t-12 48.5 q-33 106 -150 107q-117 0 -149 -107q-8 -23 -12.5 -49t-4.5 -65z" />
<glyph unicode="&#xbb;" horiz-adv-x="1081" d="M160 246q0 18 16 37l244 249q8 8 0 17l-244 250q-16 18 -16 37q0 20 13 33.5t36 13.5q20 0 37 -17l260 -266q18 -18 25.5 -30.5t7.5 -28.5t-7.5 -28.5t-25.5 -31.5l-260 -266q-17 -16 -37 -16q-23 0 -36 13t-13 34zM573 246q0 18 17 37l244 249q8 8 0 17l-244 250 q-16 18 -17 37q0 20 13.5 33.5t36.5 13.5q20 0 36 -17l261 -266q18 -18 25 -30.5t7 -28.5t-7 -28.5t-25 -31.5l-261 -266q-16 -16 -36 -16q-23 0 -36.5 13t-13.5 34z" />
<glyph unicode="&#xbc;" horiz-adv-x="1695" d="M189 1241q0 25 24 43l125 86q16 12 31.5 19.5t34.5 7.5q27 0 41 -15.5t14 -38.5v-733q0 -25 -13 -39t-36 -14q-47 0 -47 53v664h-2l-99 -68q-16 -10 -30 -10q-18 0 -30.5 12.5t-12.5 32.5zM381 14q0 12 7 25l786 1358q14 25 39 24q18 0 30.5 -11t12.5 -32q0 -12 -6 -24 l-787 -1358q-14 -25 -39 -25q-18 0 -30.5 11.5t-12.5 31.5zM928 205q0 16 6 32.5t19 39.5l262 532q14 31 43 31q18 0 31.5 -11.5t13.5 -29.5q0 -16 -8 -33l-254 -516v-2h246q12 0 12 12v172q0 27 13.5 40t35.5 13q20 0 33.5 -13t13.5 -40v-172q0 -12 12 -12h43 q25 0 37.5 -12.5t12.5 -30.5q0 -45 -50 -45h-43q-12 0 -12 -12v-95q0 -25 -13.5 -39t-33.5 -14q-23 0 -36 14.5t-13 38.5v95q0 12 -12 12h-308q-20 0 -35.5 10t-15.5 35z" />
<glyph unicode="&#xbd;" horiz-adv-x="1759" d="M189 1241q0 25 24 43l125 86q16 12 31.5 19.5t34.5 7.5q27 0 41 -15.5t14 -38.5v-733q0 -25 -13 -39t-36 -14q-47 0 -47 53v664h-2l-99 -68q-16 -10 -30 -10q-18 0 -30.5 12.5t-12.5 32.5zM381 14q0 12 7 25l786 1358q14 25 39 24q18 0 30.5 -11t12.5 -32q0 -12 -6 -24 l-787 -1358q-14 -25 -39 -25q-18 0 -30.5 11.5t-12.5 31.5zM1051 49q0 29 31 62l307 358q33 39 51 77t18 79q0 59 -36.5 98t-102.5 39q-59 0 -95 -27.5t-52 -72.5q-14 -41 -49 -41q-23 0 -34.5 12t-11.5 29q0 12 5 24q20 61 76.5 112.5t158.5 51.5q115 0 176.5 -66.5 t61.5 -158.5q0 -57 -22.5 -105.5t-69.5 -101.5l-277 -322v-4h336q23 0 35 -12t12 -31q0 -45 -47 -45h-422q-49 0 -49 45z" />
<glyph unicode="&#xbe;" horiz-adv-x="1837" d="M207 717q0 18 12.5 29.5t30.5 11.5q14 0 24.5 -7.5t22.5 -27.5q23 -33 61 -60.5t99 -27.5q72 0 116 45t44 113q0 66 -45 110.5t-129 44.5q-23 0 -36.5 12.5t-13.5 30.5q0 23 13.5 34t36.5 11q72 0 112.5 39t40.5 105q0 59 -38 99t-107 40q-57 0 -88 -22.5t-53 -57.5 q-12 -20 -22.5 -27.5t-25.5 -7.5q-18 0 -30.5 11.5t-12.5 29.5q0 10 7 27q23 53 79 94t148 41q111 0 175 -62.5t64 -160.5q0 -66 -30.5 -111t-73.5 -74v-2q20 -8 42 -25.5t40 -43t30.5 -59t12.5 -76.5q0 -109 -68.5 -177.5t-185.5 -68.5q-98 0 -159.5 40t-86.5 103 q-6 14 -6 27zM520 14q0 12 7 25l786 1358q14 25 39 24q18 0 30.5 -11t12.5 -32q0 -12 -6 -24l-787 -1358q-14 -25 -39 -25q-18 0 -30.5 11.5t-12.5 31.5zM1069 205q0 16 6 32.5t19 39.5l262 532q14 31 43 31q18 0 31.5 -11.5t13.5 -29.5q0 -16 -8 -33l-254 -516v-2h246 q12 0 12 12v172q0 27 13.5 40t35.5 13q20 0 33.5 -13t13.5 -40v-172q0 -12 12 -12h43q25 0 37.5 -12.5t12.5 -30.5q0 -45 -50 -45h-43q-12 0 -12 -12v-95q0 -25 -13.5 -39t-33.5 -14q-23 0 -36 14.5t-13 38.5v95q0 12 -12 12h-308q-20 0 -35.5 10t-15.5 35z" />
<glyph unicode="&#xbf;" horiz-adv-x="913" d="M107 -102q0 41 8 76.5t23.5 70.5t38 71t53.5 79l114 153q20 27 34 48.5t21 41t10 42t3 51.5v38q0 29 15.5 44.5t39.5 15.5q25 0 40.5 -15.5t15.5 -44.5v-47q0 -63 -14.5 -107t-49.5 -91l-117 -156q-37 -47 -60.5 -83t-37.5 -66.5t-20.5 -58t-6.5 -60.5q0 -113 70 -171.5 t174 -58.5q94 0 157.5 48.5t86.5 140.5q14 57 57 57q23 0 38 -14.5t15 -36.5v-9t-4 -18q-29 -121 -117.5 -197.5t-236.5 -76.5q-78 0 -142.5 24.5t-110.5 69.5t-71.5 105.5t-25.5 134.5zM381 899q0 35 25.5 60.5t60.5 25.5t60.5 -25.5t25.5 -60.5t-25.5 -60.5t-60.5 -25.5 t-60.5 25.5t-25.5 60.5z" />
<glyph unicode="&#xc0;" horiz-adv-x="1220" d="M76 45q0 10 4 23l459 1271q20 61 73 62q51 0 74 -62l455 -1271q4 -12 4 -23q0 -25 -16.5 -39t-38.5 -14q-41 0 -58 41l-119 329h-606l-119 -329q-16 -41 -57 -41q-23 0 -39 14t-16 39zM346 475h528l-260 729h-6zM424 1782q0 20 13.5 34.5t35.5 14.5q20 0 37 -19l148 -174 q14 -16 14 -34q0 -20 -13.5 -34t-33.5 -14q-23 0 -41 23l-148 170q-12 14 -12 33z" />
<glyph unicode="&#xc1;" horiz-adv-x="1220" d="M76 45q0 10 4 23l459 1271q20 61 73 62q51 0 74 -62l455 -1271q4 -12 4 -23q0 -25 -16.5 -39t-38.5 -14q-41 0 -58 41l-119 329h-606l-119 -329q-16 -41 -57 -41q-23 0 -39 14t-16 39zM346 475h528l-260 729h-6zM555 1604q0 18 15 34l147 174q14 18 37 19q23 0 36 -14.5 t13 -34.5q0 -18 -12 -33l-148 -170q-18 -23 -41 -23q-20 0 -33.5 13.5t-13.5 34.5z" />
<glyph unicode="&#xc2;" horiz-adv-x="1220" d="M76 45q0 10 4 23l459 1271q20 61 73 62q51 0 74 -62l455 -1271q4 -12 4 -23q0 -25 -16.5 -39t-38.5 -14q-41 0 -58 41l-119 329h-606l-119 -329q-16 -41 -57 -41q-23 0 -39 14t-16 39zM346 475h528l-260 729h-6zM383 1575q0 14 10 29l147 192q18 23 33 34t37 11 q23 0 37 -11t33 -34l147 -192q10 -14 10 -29q0 -16 -11 -26.5t-27 -10.5q-20 0 -35 18l-152 185h-4l-151 -185q-16 -18 -35 -18q-16 0 -27.5 10.5t-11.5 26.5z" />
<glyph unicode="&#xc3;" horiz-adv-x="1220" d="M76 45q0 10 4 23l459 1271q20 61 73 62q51 0 74 -62l455 -1271q4 -12 4 -23q0 -25 -16.5 -39t-38.5 -14q-41 0 -58 41l-119 329h-606l-119 -329q-16 -41 -57 -41q-23 0 -39 14t-16 39zM338 1645q0 14 8 28q33 53 72 77t82 24q35 0 62.5 -11.5t62.5 -33.5q35 -23 56 -31 t38 -8q25 0 41 12t37 41q14 25 41 24q18 0 30.5 -11t12.5 -30q0 -14 -9 -28q-33 -53 -71.5 -77t-81.5 -24q-35 0 -62.5 11.5t-62.5 33.5q-35 23 -56.5 31t-37.5 8q-25 0 -41.5 -12t-36.5 -41q-16 -25 -41 -24q-18 0 -30.5 11t-12.5 30zM346 475h528l-260 729h-6z" />
<glyph unicode="&#xc4;" horiz-adv-x="1220" d="M76 45q0 10 4 23l459 1271q20 61 73 62q51 0 74 -62l455 -1271q4 -12 4 -23q0 -25 -16.5 -39t-38.5 -14q-41 0 -58 41l-119 329h-606l-119 -329q-16 -41 -57 -41q-23 0 -39 14t-16 39zM328 1688q0 33 22.5 56t54.5 23q33 0 56.5 -23.5t23.5 -55.5q0 -33 -23.5 -55.5 t-56.5 -22.5t-55 22.5t-22 55.5zM346 475h528l-260 729h-6zM735 1688q0 33 22.5 56t55.5 23t55.5 -23.5t22.5 -55.5q0 -33 -22.5 -55.5t-55.5 -22.5t-55.5 22.5t-22.5 55.5z" />
<glyph unicode="&#xc5;" horiz-adv-x="1220" d="M76 45q0 10 4 23l459 1271q20 61 73 62q51 0 74 -62l455 -1271q4 -12 4 -23q0 -25 -16.5 -39t-38.5 -14q-41 0 -58 41l-119 329h-606l-119 -329q-16 -41 -57 -41q-23 0 -39 14t-16 39zM346 475h528l-260 729h-6zM428 1692q0 78 51 129t129 51t129 -51t51 -129t-51 -129.5 t-129 -51.5t-129 51.5t-51 129.5zM500 1692q0 -49 29.5 -82t78.5 -33t79 33t30 82t-30 81.5t-79 32.5t-78.5 -32.5t-29.5 -81.5z" />
<glyph unicode="&#xc6;" horiz-adv-x="1908" d="M76 47q0 16 10 33l774 1261q16 29 33.5 40.5t46.5 11.5h809q29 0 44 -15.5t15 -40.5t-15 -40t-44 -15h-657q-12 0 -13 -12v-496q0 -12 13 -12h561q29 0 44 -15.5t15 -39.5q0 -25 -15.5 -40.5t-43.5 -15.5h-561q-12 0 -13 -12v-516q0 -12 13 -12h657q29 0 44 -15.5 t15 -40.5t-15 -40t-44 -15h-731q-25 0 -40 14.5t-15 40.5v295q0 12 -13 12h-559l-207 -337q-20 -33 -55 -33q-23 0 -38 15.5t-15 39.5zM459 473h491q12 0 13 12v797h-7z" />
<glyph unicode="&#xc7;" horiz-adv-x="1138" d="M133 696q0 92 3 157t7 112t11.5 78.5t15.5 58.5q104 311 444 311q61 0 122 -14.5t114 -44t96 -73.5t70 -103q8 -20 8 -33q0 -27 -15.5 -41t-39.5 -14q-31 0 -51 36q-100 176 -304 177q-131 0 -210.5 -58.5t-120.5 -173.5q-6 -20 -12.5 -49t-10.5 -72t-6 -104.5t-2 -149.5 t2 -149.5t6 -104.5t10 -71.5t13 -48.5q41 -115 120.5 -173.5t210.5 -58.5q203 0 304 176q20 37 51 37q25 0 40 -14.5t15 -40.5q0 -12 -8 -33q-47 -106 -143.5 -164.5t-210.5 -68.5l-91 -258q-12 -39 -49 -39q-20 0 -34.5 13t-14.5 36q0 14 6 30l80 218q-143 12 -242.5 86.5 t-146.5 222.5q-8 27 -15.5 58.5t-11.5 78.5t-7 111.5t-3 156.5z" />
<glyph unicode="&#xc8;" horiz-adv-x="1138" d="M193 55v1282q0 55 57 56h729q29 0 44 -15.5t15 -40.5t-15 -40t-44 -15h-657q-12 0 -13 -12v-496q0 -12 13 -12h561q29 0 44 -15.5t15 -39.5q0 -25 -15.5 -40.5t-43.5 -15.5h-561q-12 0 -13 -12v-516q0 -12 13 -12h657q29 0 44 -15.5t15 -40.5t-15 -40t-44 -15h-729 q-57 0 -57 55zM414 1782q0 20 13.5 34.5t35.5 14.5q20 0 37 -19l148 -174q14 -16 14 -34q0 -20 -13.5 -34t-33.5 -14q-23 0 -41 23l-148 170q-12 14 -12 33z" />
<glyph unicode="&#xc9;" horiz-adv-x="1138" d="M193 55v1282q0 55 57 56h729q29 0 44 -15.5t15 -40.5t-15 -40t-44 -15h-657q-12 0 -13 -12v-496q0 -12 13 -12h561q29 0 44 -15.5t15 -39.5q0 -25 -15.5 -40.5t-43.5 -15.5h-561q-12 0 -13 -12v-516q0 -12 13 -12h657q29 0 44 -15.5t15 -40.5t-15 -40t-44 -15h-729 q-57 0 -57 55zM534 1604q0 18 15 34l147 174q14 18 37 19q23 0 36 -14.5t13 -34.5q0 -18 -12 -33l-148 -170q-18 -23 -41 -23q-20 0 -33.5 13.5t-13.5 34.5z" />
<glyph unicode="&#xca;" horiz-adv-x="1138" d="M193 55v1282q0 55 57 56h729q29 0 44 -15.5t15 -40.5t-15 -40t-44 -15h-657q-12 0 -13 -12v-496q0 -12 13 -12h561q29 0 44 -15.5t15 -39.5q0 -25 -15.5 -40.5t-43.5 -15.5h-561q-12 0 -13 -12v-516q0 -12 13 -12h657q29 0 44 -15.5t15 -40.5t-15 -40t-44 -15h-729 q-57 0 -57 55zM383 1575q0 14 10 29l147 192q18 23 33 34t37 11q23 0 37 -11t33 -34l147 -192q10 -14 10 -29q0 -16 -11 -26.5t-27 -10.5q-20 0 -35 18l-152 185h-4l-151 -185q-16 -18 -35 -18q-16 0 -27.5 10.5t-11.5 26.5z" />
<glyph unicode="&#xcb;" horiz-adv-x="1138" d="M193 55v1282q0 55 57 56h729q29 0 44 -15.5t15 -40.5t-15 -40t-44 -15h-657q-12 0 -13 -12v-496q0 -12 13 -12h561q29 0 44 -15.5t15 -39.5q0 -25 -15.5 -40.5t-43.5 -15.5h-561q-12 0 -13 -12v-516q0 -12 13 -12h657q29 0 44 -15.5t15 -40.5t-15 -40t-44 -15h-729 q-57 0 -57 55zM320 1688q0 33 22.5 56t54.5 23q33 0 56.5 -23.5t23.5 -55.5q0 -33 -23.5 -55.5t-56.5 -22.5t-55 22.5t-22 55.5zM727 1688q0 33 22.5 56t55.5 23t55.5 -23.5t22.5 -55.5q0 -33 -22.5 -55.5t-55.5 -22.5t-55.5 22.5t-22.5 55.5z" />
<glyph unicode="&#xcc;" horiz-adv-x="501" d="M55 1782q0 20 13.5 34.5t35.5 14.5q20 0 37 -19l148 -174q14 -16 14 -34q0 -20 -13.5 -34t-33.5 -14q-23 0 -41 23l-148 170q-12 14 -12 33zM193 55v1282q0 31 16 47.5t41 16.5q27 0 43 -16.5t16 -47.5v-1282q0 -31 -16.5 -47t-42.5 -16q-25 0 -41 16.5t-16 46.5z" />
<glyph unicode="&#xcd;" horiz-adv-x="501" d="M193 55v1282q0 31 16 47.5t41 16.5q27 0 43 -16.5t16 -47.5v-1282q0 -31 -16.5 -47t-42.5 -16q-25 0 -41 16.5t-16 46.5zM213 1604q0 18 15 34l147 174q14 18 37 19q23 0 36 -14.5t13 -34.5q0 -18 -12 -33l-148 -170q-18 -23 -41 -23q-20 0 -33.5 13.5t-13.5 34.5z" />
<glyph unicode="&#xce;" horiz-adv-x="501" d="M29 1575q0 14 10 29l147 192q18 23 33 34t37 11q23 0 37 -11t33 -34l147 -192q10 -14 10 -29q0 -16 -11 -26.5t-27 -10.5q-20 0 -35 18l-152 185h-4l-151 -185q-16 -18 -35 -18q-16 0 -27.5 10.5t-11.5 26.5zM193 55v1282q0 31 16 47.5t41 16.5q27 0 43 -16.5t16 -47.5 v-1282q0 -31 -16.5 -47t-42.5 -16q-25 0 -41 16.5t-16 46.5z" />
<glyph unicode="&#xcf;" horiz-adv-x="501" d="M-26 1688q0 33 22.5 56t54.5 23q33 0 56.5 -23.5t23.5 -55.5q0 -33 -23.5 -55.5t-56.5 -22.5t-55 22.5t-22 55.5zM193 55v1282q0 31 16 47.5t41 16.5q27 0 43 -16.5t16 -47.5v-1282q0 -31 -16.5 -47t-42.5 -16q-25 0 -41 16.5t-16 46.5zM381 1688q0 33 22.5 56t55.5 23 t55.5 -23.5t22.5 -55.5q0 -33 -22.5 -55.5t-55.5 -22.5t-55.5 22.5t-22.5 55.5z" />
<glyph unicode="&#xd0;" horiz-adv-x="1269" d="M74 707q0 23 13 37t40 14h53q12 0 13 12v567q0 55 57 56h366q193 0 308.5 -81t165.5 -235q12 -37 19 -72.5t12 -78.5t7 -98.5t2 -131.5t-2 -131t-7 -98t-12 -79t-19 -73q-49 -154 -165 -234.5t-309 -80.5h-366q-57 0 -57 55v586q0 14 -13 14h-53q-27 0 -40 14.5t-13 37.5 zM309 123q0 -12 13 -12h278q158 0 246 56t131 187q10 31 17 64t11.5 72.5t6.5 89t2 116.5q0 68 -2 117t-6.5 89t-11.5 73t-17 63q-43 131 -131 187.5t-246 56.5h-278q-12 0 -13 -12v-500q0 -12 13 -12h243q27 0 40 -14.5t13 -36.5q0 -23 -13 -37.5t-40 -14.5h-243 q-12 0 -13 -14v-518z" />
<glyph unicode="&#xd1;" horiz-adv-x="1333" d="M193 55v1272q0 74 71 74q29 0 47.5 -15.5t36.5 -48.5l670 -1110h6v1110q0 63 57 64q27 0 43.5 -16.5t16.5 -47.5v-1271q0 -74 -72 -74q-29 0 -47 15.5t-39 47.5l-666 1112h-8v-1112q0 -31 -16.5 -47t-42.5 -16q-25 0 -41 16.5t-16 46.5zM400 1645q0 14 8 28q33 53 72 77 t82 24q35 0 62.5 -11.5t62.5 -33.5q35 -23 56 -31t38 -8q25 0 41 12t37 41q14 25 41 24q18 0 30.5 -11t12.5 -30q0 -14 -9 -28q-33 -53 -71.5 -77t-81.5 -24q-35 0 -62.5 11.5t-62.5 33.5q-35 23 -56.5 31t-37.5 8q-25 0 -41.5 -12t-36.5 -41q-16 -25 -41 -24 q-18 0 -30.5 11t-12.5 30z" />
<glyph unicode="&#xd2;" horiz-adv-x="1247" d="M133 696q0 90 3 153.5t8.5 110t12.5 79t17 61.5q51 154 165 233.5t286 79.5q170 0 283.5 -80t164.5 -233q8 -29 16.5 -61.5t13.5 -79t8 -110t3 -153.5t-3 -153.5t-8 -109.5t-13.5 -80t-16.5 -60q-51 -154 -164.5 -233.5t-283.5 -79.5q-172 0 -286 79.5t-165 233.5 q-10 27 -17 60.5t-12.5 79.5t-8.5 109.5t-3 153.5zM252 696q0 -84 3 -145.5t7 -104.5t11.5 -71.5t13.5 -48.5q78 -236 338 -236q258 0 336 236q6 20 13 48.5t11 71.5t7 104.5t3 145.5t-3 145.5t-7 104.5t-11 72t-13 49q-78 236 -336 236q-260 0 -338 -236q-6 -20 -13.5 -49 t-11.5 -72t-7 -104.5t-3 -145.5zM430 1782q0 20 13.5 34.5t35.5 14.5q20 0 37 -19l148 -174q14 -16 14 -34q0 -20 -13.5 -34t-33.5 -14q-23 0 -41 23l-148 170q-12 14 -12 33z" />
<glyph unicode="&#xd3;" horiz-adv-x="1247" d="M133 696q0 90 3 153.5t8.5 110t12.5 79t17 61.5q51 154 165 233.5t286 79.5q170 0 283.5 -80t164.5 -233q8 -29 16.5 -61.5t13.5 -79t8 -110t3 -153.5t-3 -153.5t-8 -109.5t-13.5 -80t-16.5 -60q-51 -154 -164.5 -233.5t-283.5 -79.5q-172 0 -286 79.5t-165 233.5 q-10 27 -17 60.5t-12.5 79.5t-8.5 109.5t-3 153.5zM252 696q0 -84 3 -145.5t7 -104.5t11.5 -71.5t13.5 -48.5q78 -236 338 -236q258 0 336 236q6 20 13 48.5t11 71.5t7 104.5t3 145.5t-3 145.5t-7 104.5t-11 72t-13 49q-78 236 -336 236q-260 0 -338 -236q-6 -20 -13.5 -49 t-11.5 -72t-7 -104.5t-3 -145.5zM569 1604q0 18 15 34l147 174q14 18 37 19q23 0 36 -14.5t13 -34.5q0 -18 -12 -33l-148 -170q-18 -23 -41 -23q-20 0 -33.5 13.5t-13.5 34.5z" />
<glyph unicode="&#xd4;" horiz-adv-x="1247" d="M133 696q0 90 3 153.5t8.5 110t12.5 79t17 61.5q51 154 165 233.5t286 79.5q170 0 283.5 -80t164.5 -233q8 -29 16.5 -61.5t13.5 -79t8 -110t3 -153.5t-3 -153.5t-8 -109.5t-13.5 -80t-16.5 -60q-51 -154 -164.5 -233.5t-283.5 -79.5q-172 0 -286 79.5t-165 233.5 q-10 27 -17 60.5t-12.5 79.5t-8.5 109.5t-3 153.5zM252 696q0 -84 3 -145.5t7 -104.5t11.5 -71.5t13.5 -48.5q78 -236 338 -236q258 0 336 236q6 20 13 48.5t11 71.5t7 104.5t3 145.5t-3 145.5t-7 104.5t-11 72t-13 49q-78 236 -336 236q-260 0 -338 -236q-6 -20 -13.5 -49 t-11.5 -72t-7 -104.5t-3 -145.5zM395 1575q0 14 10 29l147 192q18 23 33 34t37 11q23 0 37 -11t33 -34l147 -192q10 -14 10 -29q0 -16 -11 -26.5t-27 -10.5q-20 0 -35 18l-152 185h-4l-151 -185q-16 -18 -35 -18q-16 0 -27.5 10.5t-11.5 26.5z" />
<glyph unicode="&#xd5;" horiz-adv-x="1247" d="M133 696q0 90 3 153.5t8.5 110t12.5 79t17 61.5q51 154 165 233.5t286 79.5q170 0 283.5 -80t164.5 -233q8 -29 16.5 -61.5t13.5 -79t8 -110t3 -153.5t-3 -153.5t-8 -109.5t-13.5 -80t-16.5 -60q-51 -154 -164.5 -233.5t-283.5 -79.5q-172 0 -286 79.5t-165 233.5 q-10 27 -17 60.5t-12.5 79.5t-8.5 109.5t-3 153.5zM252 696q0 -84 3 -145.5t7 -104.5t11.5 -71.5t13.5 -48.5q78 -236 338 -236q258 0 336 236q6 20 13 48.5t11 71.5t7 104.5t3 145.5t-3 145.5t-7 104.5t-11 72t-13 49q-78 236 -336 236q-260 0 -338 -236q-6 -20 -13.5 -49 t-11.5 -72t-7 -104.5t-3 -145.5zM352 1645q0 14 8 28q33 53 72 77t82 24q35 0 62.5 -11.5t62.5 -33.5q35 -23 56 -31t38 -8q25 0 41 12t37 41q14 25 41 24q18 0 30.5 -11t12.5 -30q0 -14 -9 -28q-33 -53 -71.5 -77t-81.5 -24q-35 0 -62.5 11.5t-62.5 33.5q-35 23 -56.5 31 t-37.5 8q-25 0 -41.5 -12t-36.5 -41q-16 -25 -41 -24q-18 0 -30.5 11t-12.5 30z" />
<glyph unicode="&#xd6;" horiz-adv-x="1247" d="M133 696q0 90 3 153.5t8.5 110t12.5 79t17 61.5q51 154 165 233.5t286 79.5q170 0 283.5 -80t164.5 -233q8 -29 16.5 -61.5t13.5 -79t8 -110t3 -153.5t-3 -153.5t-8 -109.5t-13.5 -80t-16.5 -60q-51 -154 -164.5 -233.5t-283.5 -79.5q-172 0 -286 79.5t-165 233.5 q-10 27 -17 60.5t-12.5 79.5t-8.5 109.5t-3 153.5zM252 696q0 -84 3 -145.5t7 -104.5t11.5 -71.5t13.5 -48.5q78 -236 338 -236q258 0 336 236q6 20 13 48.5t11 71.5t7 104.5t3 145.5t-3 145.5t-7 104.5t-11 72t-13 49q-78 236 -336 236q-260 0 -338 -236q-6 -20 -13.5 -49 t-11.5 -72t-7 -104.5t-3 -145.5zM343 1688q0 33 22.5 56t54.5 23q33 0 56.5 -23.5t23.5 -55.5q0 -33 -23.5 -55.5t-56.5 -22.5t-55 22.5t-22 55.5zM750 1688q0 33 22.5 56t55.5 23t55.5 -23.5t22.5 -55.5q0 -33 -22.5 -55.5t-55.5 -22.5t-55.5 22.5t-22.5 55.5z" />
<glyph unicode="&#xd7;" d="M209 281q0 20 20 41l236 235q8 8 0 16l-236 236q-20 20 -20 41q0 20 14.5 35.5t36.5 15.5q20 0 41 -20l236 -236q8 -8 16 0l235 236q20 20 41 20q23 0 37.5 -15.5t14.5 -35.5t-21 -41l-235 -236q-8 -8 0 -16l235 -235q20 -20 21 -41q0 -20 -14.5 -36t-37.5 -16 q-20 0 -41 21l-235 235q-8 8 -16 0l-236 -235q-20 -20 -41 -21q-23 0 -37 15.5t-14 36.5z" />
<glyph unicode="&#xd8;" horiz-adv-x="1247" d="M133 696q0 90 3 153.5t8.5 110t12.5 79t17 61.5q51 154 165 233.5t286 79.5q188 0 305 -98l69 123q14 27 37 26q16 0 28.5 -10t12.5 -27q0 -14 -8 -28l-80 -144q53 -66 84 -155q8 -29 16.5 -61.5t13.5 -79t8 -110t3 -153.5t-3 -153.5t-8 -109.5t-13.5 -80t-16.5 -60 q-51 -154 -164.5 -233.5t-283.5 -79.5q-193 0 -310 98l-69 -121q-14 -27 -37 -27q-16 0 -28.5 10.5t-12.5 26.5q0 14 8 29l80 141q-27 33 -47.5 71t-34.5 85q-10 27 -17 60.5t-12.5 79.5t-8.5 109.5t-3 153.5zM252 696q0 -84 3 -145.5t7 -104.5t11.5 -71.5t13.5 -48.5 q14 -43 35 -78l548 966q-94 88 -245 89q-260 0 -338 -236q-6 -20 -13.5 -49t-11.5 -72t-7 -104.5t-3 -145.5zM375 180q94 -90 250 -90q258 0 336 236q6 20 13 48.5t11 71.5t7 104.5t3 145.5t-3 145.5t-7 104.5t-11 72t-13 49q-10 27 -17.5 43t-17.5 33z" />
<glyph unicode="&#xd9;" horiz-adv-x="1300" d="M178 481v856q0 31 16.5 47.5t43.5 16.5q25 0 41 -16.5t16 -47.5v-858q0 -199 94 -294t260 -95q168 0 262.5 95.5t94.5 293.5v858q0 31 16 47.5t41 16.5q27 0 43 -16.5t16 -47.5v-856q0 -127 -33.5 -221t-95 -156.5t-148.5 -93t-196 -30.5q-215 0 -343 122.5t-128 378.5z M453 1782q0 20 13.5 34.5t35.5 14.5q20 0 37 -19l148 -174q14 -16 14 -34q0 -20 -13.5 -34t-33.5 -14q-23 0 -41 23l-148 170q-12 14 -12 33z" />
<glyph unicode="&#xda;" horiz-adv-x="1300" d="M178 481v856q0 31 16.5 47.5t43.5 16.5q25 0 41 -16.5t16 -47.5v-858q0 -199 94 -294t260 -95q168 0 262.5 95.5t94.5 293.5v858q0 31 16 47.5t41 16.5q27 0 43 -16.5t16 -47.5v-856q0 -127 -33.5 -221t-95 -156.5t-148.5 -93t-196 -30.5q-215 0 -343 122.5t-128 378.5z M596 1604q0 18 15 34l147 174q14 18 37 19q23 0 36 -14.5t13 -34.5q0 -18 -12 -33l-148 -170q-18 -23 -41 -23q-20 0 -33.5 13.5t-13.5 34.5z" />
<glyph unicode="&#xdb;" horiz-adv-x="1300" d="M178 481v856q0 31 16.5 47.5t43.5 16.5q25 0 41 -16.5t16 -47.5v-858q0 -199 94 -294t260 -95q168 0 262.5 95.5t94.5 293.5v858q0 31 16 47.5t41 16.5q27 0 43 -16.5t16 -47.5v-856q0 -127 -33.5 -221t-95 -156.5t-148.5 -93t-196 -30.5q-215 0 -343 122.5t-128 378.5z M422 1575q0 14 10 29l147 192q18 23 33 34t37 11q23 0 37 -11t33 -34l147 -192q10 -14 10 -29q0 -16 -11 -26.5t-27 -10.5q-20 0 -35 18l-152 185h-4l-151 -185q-16 -18 -35 -18q-16 0 -27.5 10.5t-11.5 26.5z" />
<glyph unicode="&#xdc;" horiz-adv-x="1300" d="M178 481v856q0 31 16.5 47.5t43.5 16.5q25 0 41 -16.5t16 -47.5v-858q0 -199 94 -294t260 -95q168 0 262.5 95.5t94.5 293.5v858q0 31 16 47.5t41 16.5q27 0 43 -16.5t16 -47.5v-856q0 -127 -33.5 -221t-95 -156.5t-148.5 -93t-196 -30.5q-215 0 -343 122.5t-128 378.5z M369 1688q0 33 22.5 56t54.5 23q33 0 56.5 -23.5t23.5 -55.5q0 -33 -23.5 -55.5t-56.5 -22.5t-55 22.5t-22 55.5zM776 1688q0 33 22.5 56t55.5 23t55.5 -23.5t22.5 -55.5q0 -33 -22.5 -55.5t-55.5 -22.5t-55.5 22.5t-22.5 55.5z" />
<glyph unicode="&#xdd;" horiz-adv-x="1038" d="M57 1348q0 23 16.5 38t41.5 15q33 0 51 -31l358 -659h6l353 659q14 31 51 31q25 0 40 -15.5t15 -37.5q0 -14 -8 -31l-399 -746v-516q0 -31 -16.5 -47t-43.5 -16q-25 0 -41 16.5t-16 46.5v516l-399 746q-8 16 -9 31zM489 1604q0 18 15 34l147 174q14 18 37 19 q23 0 36 -14.5t13 -34.5q0 -18 -12 -33l-148 -170q-18 -23 -41 -23q-20 0 -33.5 13.5t-13.5 34.5z" />
<glyph unicode="&#xde;" horiz-adv-x="1198" d="M193 55v1282q0 31 16 47.5t41 16.5q27 0 43 -16.5t16 -47.5v-221q0 -12 13 -12h356q199 0 313.5 -105.5t114.5 -289.5t-114.5 -289t-313.5 -105h-356q-12 0 -13 -12v-248q0 -31 -16 -47t-43 -16q-25 0 -41 16.5t-16 46.5zM309 438q0 -12 13 -12h352q154 0 234.5 73.5 t80.5 209.5q0 135 -81 209.5t-234 74.5h-352q-12 0 -13 -12v-543z" />
<glyph unicode="&#xdf;" horiz-adv-x="1091" d="M188 51v963q0 195 89.5 297t300.5 102q182 0 274 -80t92 -219q0 -96 -39 -152.5t-106 -84.5v-5q49 -20 85 -56t58 -97q6 -18 10 -40t7.5 -50.5t4.5 -71.5t1 -104t-2 -105.5t-5.5 -76t-8.5 -52t-9 -37.5q-35 -106 -116 -149t-216 -43q-29 0 -43 15t-14 38t14.5 38t42.5 15 q98 0 150.5 30t79.5 101q4 12 7 28.5t5 42.5t3 62.5t1 92.5q0 55 -1 93t-3 63.5t-6 43t-8 31.5q-25 74 -83.5 103.5t-144.5 29.5q-29 0 -42 15.5t-13 37.5q0 23 13.5 38.5t41.5 15.5q119 0 172.5 45t53.5 143q0 94 -63.5 145.5t-192.5 51.5q-150 0 -214.5 -69t-64.5 -224 v-965q0 -29 -15.5 -44t-39.5 -15q-23 0 -39.5 15.5t-16.5 43.5z" />
<glyph unicode="&#xe0;" horiz-adv-x="1054" d="M135 268q0 145 96.5 218t274.5 73h250q12 0 12 12v70q0 121 -55.5 186.5t-198.5 65.5q-63 0 -122.5 -18.5t-100.5 -43.5q-18 -12 -39 -12q-51 0 -51 51q0 27 22 45q45 35 121 58.5t176 23.5q182 0 268 -84t86 -264v-395q0 -41 5.5 -61.5t15.5 -42.5l39 -74q8 -16 8 -31 q0 -23 -15.5 -38t-41.5 -15q-33 0 -54 35l-47 77h-4q-53 -59 -124.5 -91.5t-186.5 -32.5q-72 0 -132.5 18t-105.5 55t-70.5 91.5t-25.5 123.5zM246 268q-1 -184 241 -184q127 0 204 57.5t77 159.5v145q0 12 -12 13h-234q-147 0 -211.5 -46t-64.5 -145zM391 1397 q0 18 12.5 31.5t35.5 13.5q27 0 43 -27l127 -205q10 -16 10 -30q0 -18 -12 -31.5t-35 -13.5t-37 22l-133 207q-10 16 -11 33z" />
<glyph unicode="&#xe1;" horiz-adv-x="1054" d="M135 268q0 145 96.5 218t274.5 73h250q12 0 12 12v70q0 121 -55.5 186.5t-198.5 65.5q-63 0 -122.5 -18.5t-100.5 -43.5q-18 -12 -39 -12q-51 0 -51 51q0 27 22 45q45 35 121 58.5t176 23.5q182 0 268 -84t86 -264v-395q0 -41 5.5 -61.5t15.5 -42.5l39 -74q8 -16 8 -31 q0 -23 -15.5 -38t-41.5 -15q-33 0 -54 35l-47 77h-4q-53 -59 -124.5 -91.5t-186.5 -32.5q-72 0 -132.5 18t-105.5 55t-70.5 91.5t-25.5 123.5zM246 268q-1 -184 241 -184q127 0 204 57.5t77 159.5v145q0 12 -12 13h-234q-147 0 -211.5 -46t-64.5 -145zM485 1180q0 14 11 30 l127 205q16 27 43 27q23 0 35 -13.5t12 -31.5q0 -16 -10 -33l-134 -207q-14 -23 -36 -22q-23 0 -35.5 13t-12.5 32z" />
<glyph unicode="&#xe2;" horiz-adv-x="1054" d="M135 268q0 145 96.5 218t274.5 73h250q12 0 12 12v70q0 121 -55.5 186.5t-198.5 65.5q-63 0 -122.5 -18.5t-100.5 -43.5q-18 -12 -39 -12q-51 0 -51 51q0 27 22 45q45 35 121 58.5t176 23.5q182 0 268 -84t86 -264v-395q0 -41 5.5 -61.5t15.5 -42.5l39 -74q8 -16 8 -31 q0 -23 -15.5 -38t-41.5 -15q-33 0 -54 35l-47 77h-4q-53 -59 -124.5 -91.5t-186.5 -32.5q-72 0 -132.5 18t-105.5 55t-70.5 91.5t-25.5 123.5zM246 268q-1 -184 241 -184q127 0 204 57.5t77 159.5v145q0 12 -12 13h-234q-147 0 -211.5 -46t-64.5 -145zM297 1171q0 14 10 29 l147 193q18 25 33 35t37 10q23 0 37 -10.5t33 -34.5l147 -193q10 -14 10 -29q0 -16 -11 -26t-27 -10q-20 0 -35 18l-152 184h-4l-151 -184q-16 -18 -35 -18q-16 0 -27.5 10t-11.5 26z" />
<glyph unicode="&#xe3;" horiz-adv-x="1054" d="M135 268q0 145 96.5 218t274.5 73h250q12 0 12 12v70q0 121 -55.5 186.5t-198.5 65.5q-63 0 -122.5 -18.5t-100.5 -43.5q-18 -12 -39 -12q-51 0 -51 51q0 27 22 45q45 35 121 58.5t176 23.5q182 0 268 -84t86 -264v-395q0 -41 5.5 -61.5t15.5 -42.5l39 -74q8 -16 8 -31 q0 -23 -15.5 -38t-41.5 -15q-33 0 -54 35l-47 77h-4q-53 -59 -124.5 -91.5t-186.5 -32.5q-72 0 -132.5 18t-105.5 55t-70.5 91.5t-25.5 123.5zM246 268q-1 -184 241 -184q127 0 204 57.5t77 159.5v145q0 12 -12 13h-234q-147 0 -211.5 -46t-64.5 -145zM254 1266q0 14 8 28 q33 53 72 77t82 24q35 0 62.5 -11.5t62.5 -33.5q35 -23 56 -31t38 -8q25 0 41 12t37 41q14 25 41 25q18 0 30.5 -11.5t12.5 -29.5q0 -14 -9 -29q-33 -53 -71.5 -76.5t-81.5 -23.5q-35 0 -62.5 11t-62.5 34t-56.5 31t-37.5 8q-25 0 -41.5 -12.5t-36.5 -41.5q-16 -25 -41 -24 q-18 0 -30.5 11t-12.5 30z" />
<glyph unicode="&#xe4;" horiz-adv-x="1054" d="M135 268q0 145 96.5 218t274.5 73h250q12 0 12 12v70q0 121 -55.5 186.5t-198.5 65.5q-63 0 -122.5 -18.5t-100.5 -43.5q-18 -12 -39 -12q-51 0 -51 51q0 27 22 45q45 35 121 58.5t176 23.5q182 0 268 -84t86 -264v-395q0 -41 5.5 -61.5t15.5 -42.5l39 -74q8 -16 8 -31 q0 -23 -15.5 -38t-41.5 -15q-33 0 -54 35l-47 77h-4q-53 -59 -124.5 -91.5t-186.5 -32.5q-72 0 -132.5 18t-105.5 55t-70.5 91.5t-25.5 123.5zM242 1313q0 33 22.5 56.5t54.5 23.5q33 0 56.5 -23.5t23.5 -56.5t-23.5 -55.5t-56.5 -22.5t-55 22.5t-22 55.5zM246 268 q-1 -184 241 -184q127 0 204 57.5t77 159.5v145q0 12 -12 13h-234q-147 0 -211.5 -46t-64.5 -145zM649 1313q0 33 22.5 56.5t55.5 23.5t55.5 -23.5t22.5 -56.5t-22.5 -55.5t-55.5 -22.5t-55.5 22.5t-22.5 55.5z" />
<glyph unicode="&#xe5;" horiz-adv-x="1054" d="M135 268q0 145 96.5 218t274.5 73h250q12 0 12 12v70q0 121 -55.5 186.5t-198.5 65.5q-63 0 -122.5 -18.5t-100.5 -43.5q-18 -12 -39 -12q-51 0 -51 51q0 27 22 45q45 35 121 58.5t176 23.5q182 0 268 -84t86 -264v-395q0 -41 5.5 -61.5t15.5 -42.5l39 -74q8 -16 8 -31 q0 -23 -15.5 -38t-41.5 -15q-33 0 -54 35l-47 77h-4q-53 -59 -124.5 -91.5t-186.5 -32.5q-72 0 -132.5 18t-105.5 55t-70.5 91.5t-25.5 123.5zM246 268q-1 -184 241 -184q127 0 204 57.5t77 159.5v145q0 12 -12 13h-234q-147 0 -211.5 -46t-64.5 -145zM348 1288q0 78 51 129 t129 51t129 -51t51 -129t-51 -129t-129 -51t-129 51t-51 129zM420 1288q0 -49 29.5 -81.5t78.5 -32.5t79 32.5t30 81.5t-30 82t-79 33t-78.5 -33t-29.5 -82z" />
<glyph unicode="&#xe6;" horiz-adv-x="1667" d="M135 268q0 145 96.5 218t274.5 73h250q12 0 12 12v70q0 121 -55.5 186.5t-198.5 65.5q-63 0 -122.5 -18.5t-100.5 -43.5q-18 -12 -39 -12q-51 0 -51 51q0 27 22 45q45 35 121 58.5t176 23.5q244 0 318 -157h4q49 78 129 117.5t182 39.5q133 0 227.5 -65.5t135.5 -188.5 q16 -47 23 -103t7 -130q0 -51 -51 -51h-608q-12 0 -13 -13q0 -66 5.5 -102.5t15.5 -67.5q33 -98 104.5 -144t171.5 -46q84 0 146.5 26.5t118.5 84.5q8 8 18 14t23 6q23 0 36 -13.5t13 -33.5q0 -23 -13 -37q-53 -66 -139 -109.5t-209 -43.5q-231 0 -331 174h-5 q-63 -102 -154 -138t-206 -36q-72 0 -132.5 18t-105.5 55t-70.5 91.5t-25.5 123.5zM246 268q-1 -184 241 -184q127 0 204 57.5t77 159.5v145q0 12 -12 13h-234q-147 0 -211.5 -46t-64.5 -145zM874 571q0 -12 13 -12h534q12 0 13 12q0 43 -4.5 77t-14.5 63q-29 92 -97.5 138 t-164.5 46t-163.5 -46t-96.5 -138q-10 -29 -14.5 -63t-4.5 -77z" />
<glyph unicode="&#xe7;" horiz-adv-x="952" d="M123 487q0 72 7 137.5t24 118.5q39 121 134 187.5t230 66.5q117 0 196 -47t120 -116q8 -14 8 -33q0 -20 -13.5 -34.5t-35.5 -14.5q-31 0 -52 30q-35 47 -86 78t-137 31q-98 0 -162.5 -47t-93.5 -135q-14 -41 -20 -92.5t-6 -129.5t6 -128t20 -91q29 -88 93.5 -135 t162.5 -47q86 0 137.5 30.5t85.5 78.5q20 31 52 30q23 0 36 -14t13 -35q0 -18 -8 -33q-35 -61 -101.5 -105t-163.5 -54l-90 -260q-12 -39 -49 -39q-20 0 -34.5 13t-14.5 36q0 14 6 30l82 220q-117 10 -199 74.5t-116 174.5q-16 53 -23.5 118t-7.5 136z" />
<glyph unicode="&#xe8;" horiz-adv-x="1030" d="M123 489q0 92 7 149.5t24 104.5q41 123 135 188.5t225 65.5q133 0 227.5 -65.5t135.5 -188.5q16 -47 23 -103t7 -130q0 -51 -51 -51h-608q-12 0 -12 -13q0 -59 4 -96t16 -74q33 -98 104.5 -144t171.5 -46q84 0 146.5 26.5t118.5 84.5q8 8 18 14t23 6q23 0 36 -13.5 t13 -33.5q0 -23 -13 -37q-53 -66 -139 -109.5t-209 -43.5q-141 0 -236 64.5t-136 191.5q-16 47 -23.5 103t-7.5 150zM236 571q0 -12 12 -12h534q12 0 13 12q0 43 -4.5 77t-14.5 63q-29 92 -97.5 138t-164.5 46t-163.5 -46t-96.5 -138q-10 -29 -14 -63t-4 -77zM339 1397 q0 18 12.5 31.5t35.5 13.5q27 0 43 -27l127 -205q10 -16 10 -30q0 -18 -12 -31.5t-35 -13.5t-37 22l-133 207q-10 16 -11 33z" />
<glyph unicode="&#xe9;" horiz-adv-x="1030" d="M123 489q0 92 7 149.5t24 104.5q41 123 135 188.5t225 65.5q133 0 227.5 -65.5t135.5 -188.5q16 -47 23 -103t7 -130q0 -51 -51 -51h-608q-12 0 -12 -13q0 -59 4 -96t16 -74q33 -98 104.5 -144t171.5 -46q84 0 146.5 26.5t118.5 84.5q8 8 18 14t23 6q23 0 36 -13.5 t13 -33.5q0 -23 -13 -37q-53 -66 -139 -109.5t-209 -43.5q-141 0 -236 64.5t-136 191.5q-16 47 -23.5 103t-7.5 150zM236 571q0 -12 12 -12h534q12 0 13 12q0 43 -4.5 77t-14.5 63q-29 92 -97.5 138t-164.5 46t-163.5 -46t-96.5 -138q-10 -29 -14 -63t-4 -77zM466 1180 q0 14 11 30l127 205q16 27 43 27q23 0 35 -13.5t12 -31.5q0 -16 -10 -33l-134 -207q-14 -23 -36 -22q-23 0 -35.5 13t-12.5 32z" />
<glyph unicode="&#xea;" horiz-adv-x="1030" d="M123 489q0 92 7 149.5t24 104.5q41 123 135 188.5t225 65.5q133 0 227.5 -65.5t135.5 -188.5q16 -47 23 -103t7 -130q0 -51 -51 -51h-608q-12 0 -12 -13q0 -59 4 -96t16 -74q33 -98 104.5 -144t171.5 -46q84 0 146.5 26.5t118.5 84.5q8 8 18 14t23 6q23 0 36 -13.5 t13 -33.5q0 -23 -13 -37q-53 -66 -139 -109.5t-209 -43.5q-141 0 -236 64.5t-136 191.5q-16 47 -23.5 103t-7.5 150zM236 571q0 -12 12 -12h534q12 0 13 12q0 43 -4.5 77t-14.5 63q-29 92 -97.5 138t-164.5 46t-163.5 -46t-96.5 -138q-10 -29 -14 -63t-4 -77zM287 1171 q0 14 10 29l147 193q18 25 33 35t37 10q23 0 37 -10.5t33 -34.5l147 -193q10 -14 10 -29q0 -16 -11 -26t-27 -10q-20 0 -35 18l-152 184h-4l-151 -184q-16 -18 -35 -18q-16 0 -27.5 10t-11.5 26z" />
<glyph unicode="&#xeb;" horiz-adv-x="1030" d="M123 489q0 92 7 149.5t24 104.5q41 123 135 188.5t225 65.5q133 0 227.5 -65.5t135.5 -188.5q16 -47 23 -103t7 -130q0 -51 -51 -51h-608q-12 0 -12 -13q0 -59 4 -96t16 -74q33 -98 104.5 -144t171.5 -46q84 0 146.5 26.5t118.5 84.5q8 8 18 14t23 6q23 0 36 -13.5 t13 -33.5q0 -23 -13 -37q-53 -66 -139 -109.5t-209 -43.5q-141 0 -236 64.5t-136 191.5q-16 47 -23.5 103t-7.5 150zM232 1313q0 33 22.5 56.5t54.5 23.5q33 0 56.5 -23.5t23.5 -56.5t-23.5 -55.5t-56.5 -22.5t-55 22.5t-22 55.5zM236 571q0 -12 12 -12h534q12 0 13 12 q0 43 -4.5 77t-14.5 63q-29 92 -97.5 138t-164.5 46t-163.5 -46t-96.5 -138q-10 -29 -14 -63t-4 -77zM639 1313q0 33 22.5 56.5t55.5 23.5t55.5 -23.5t22.5 -56.5t-22.5 -55.5t-55.5 -22.5t-55.5 22.5t-22.5 55.5z" />
<glyph unicode="&#xec;" horiz-adv-x="487" d="M71 1397q0 18 12.5 31.5t35.5 13.5q27 0 43 -27l127 -205q10 -16 10 -30q0 -18 -12 -31.5t-35 -13.5t-37 22l-133 207q-10 16 -11 33zM188 51v875q0 29 15.5 44t40.5 15t40 -15.5t15 -43.5v-875q0 -29 -15 -44t-40 -15t-40.5 15.5t-15.5 43.5z" />
<glyph unicode="&#xed;" horiz-adv-x="487" d="M188 51v875q0 29 15.5 44t40.5 15t40 -15.5t15 -43.5v-875q0 -29 -15 -44t-40 -15t-40.5 15.5t-15.5 43.5zM198 1180q0 14 11 30l127 205q16 27 43 27q23 0 35 -13.5t12 -31.5q0 -16 -10 -33l-134 -207q-14 -23 -36 -22q-23 0 -35.5 13t-12.5 32z" />
<glyph unicode="&#xee;" horiz-adv-x="487" d="M21 1171q0 14 10 29l147 193q18 25 33 35t37 10q23 0 37 -10.5t33 -34.5l147 -193q10 -14 10 -29q0 -16 -11 -26t-27 -10q-20 0 -35 18l-152 184h-4l-151 -184q-16 -18 -35 -18q-16 0 -27.5 10t-11.5 26zM188 51v875q0 29 15.5 44t40.5 15t40 -15.5t15 -43.5v-875 q0 -29 -15 -44t-40 -15t-40.5 15.5t-15.5 43.5z" />
<glyph unicode="&#xef;" horiz-adv-x="487" d="M-32 1313q0 33 22.5 56.5t54.5 23.5q33 0 56.5 -23.5t23.5 -56.5t-23.5 -55.5t-56.5 -22.5t-55 22.5t-22 55.5zM188 51v875q0 29 15.5 44t40.5 15t40 -15.5t15 -43.5v-875q0 -29 -15 -44t-40 -15t-40.5 15.5t-15.5 43.5zM375 1313q0 33 22.5 56.5t55.5 23.5t55.5 -23.5 t22.5 -56.5t-22.5 -55.5t-55.5 -22.5t-55.5 22.5t-22.5 55.5z" />
<glyph unicode="&#xf0;" horiz-adv-x="1042" d="M123 479q0 78 7 136.5t24 105.5q39 119 130 185.5t214 66.5q100 0 178 -55h2l-184 227l-175 -51q-12 -4 -22 -4q-18 0 -31.5 11t-13.5 34q0 35 37 45l143 43l-74 92q-14 20 -14 37q0 20 13.5 34.5t37.5 14.5q27 0 47 -27l97 -121l168 52q12 4 22 4q18 0 31.5 -11.5 t13.5 -33.5q0 -35 -37 -45l-135 -41l78 -95q63 -78 109.5 -148.5t75 -140t42 -141t13.5 -153.5q0 -102 -8.5 -160.5t-24.5 -106.5q-39 -121 -134.5 -187t-232.5 -66q-135 0 -231 65.5t-135 185.5q-16 47 -23.5 106.5t-7.5 141.5zM236 479q0 -70 6 -120t20 -93 q29 -90 96.5 -135t161.5 -45t163 45t97 137q12 39 19.5 88.5t7.5 122.5q0 72 -7 121t-20 90q-29 90 -97.5 135t-162.5 45t-161.5 -45t-96.5 -135q-12 -41 -19 -90t-7 -121z" />
<glyph unicode="&#xf1;" horiz-adv-x="1107" d="M188 51v875q0 29 15.5 44t40.5 15t40 -15.5t15 -43.5v-68h2q41 66 112.5 102.5t176.5 36.5q162 0 252 -96t90 -276v-574q0 -29 -15 -44t-40 -15t-40.5 15.5t-15.5 43.5v547q0 293 -256 293q-55 0 -103 -19.5t-85 -54.5t-57.5 -85t-20.5 -114v-567q0 -29 -15.5 -44 t-39.5 -15q-25 0 -40.5 15.5t-15.5 43.5zM283 1266q0 14 8 28q33 53 72 77t82 24q35 0 62.5 -11.5t62.5 -33.5q35 -23 56 -31t38 -8q25 0 41 12t37 41q14 25 41 25q18 0 30.5 -11.5t12.5 -29.5q0 -14 -9 -29q-33 -53 -71.5 -76.5t-81.5 -23.5q-35 0 -62.5 11t-62.5 34 t-56.5 31t-37.5 8q-25 0 -41.5 -12.5t-36.5 -41.5q-16 -25 -41 -24q-18 0 -30.5 11t-12.5 30z" />
<glyph unicode="&#xf2;" horiz-adv-x="1042" d="M123 489q0 88 8 146.5t25 107.5q41 123 135 188.5t229 65.5t230.5 -65.5t136.5 -188.5q16 -49 24.5 -107t8.5 -147q0 -90 -8.5 -148t-24.5 -108q-41 -123 -136.5 -188t-230.5 -65t-229 65.5t-135 187.5q-16 49 -24.5 107.5t-8.5 148.5zM236 489q0 -80 6 -130t20 -91 q29 -88 96.5 -135t161.5 -47q96 0 164 47t96 135q14 41 20.5 91.5t6.5 129.5q0 78 -6 128.5t-21 91.5q-29 88 -96.5 135t-163.5 47q-94 0 -161.5 -47t-96.5 -135q-14 -41 -20 -91.5t-6 -128.5zM339 1397q0 18 12.5 31.5t35.5 13.5q27 0 43 -27l127 -205q10 -16 10 -30 q0 -18 -12 -31.5t-35 -13.5t-37 22l-133 207q-10 16 -11 33z" />
<glyph unicode="&#xf3;" horiz-adv-x="1042" d="M123 489q0 88 8 146.5t25 107.5q41 123 135 188.5t229 65.5t230.5 -65.5t136.5 -188.5q16 -49 24.5 -107t8.5 -147q0 -90 -8.5 -148t-24.5 -108q-41 -123 -136.5 -188t-230.5 -65t-229 65.5t-135 187.5q-16 49 -24.5 107.5t-8.5 148.5zM236 489q0 -80 6 -130t20 -91 q29 -88 96.5 -135t161.5 -47q96 0 164 47t96 135q14 41 20.5 91.5t6.5 129.5q0 78 -6 128.5t-21 91.5q-29 88 -96.5 135t-163.5 47q-94 0 -161.5 -47t-96.5 -135q-14 -41 -20 -91.5t-6 -128.5zM475 1180q0 14 11 30l127 205q16 27 43 27q23 0 35 -13.5t12 -31.5 q0 -16 -10 -33l-134 -207q-14 -23 -36 -22q-23 0 -35.5 13t-12.5 32z" />
<glyph unicode="&#xf4;" horiz-adv-x="1042" d="M123 489q0 88 8 146.5t25 107.5q41 123 135 188.5t229 65.5t230.5 -65.5t136.5 -188.5q16 -49 24.5 -107t8.5 -147q0 -90 -8.5 -148t-24.5 -108q-41 -123 -136.5 -188t-230.5 -65t-229 65.5t-135 187.5q-16 49 -24.5 107.5t-8.5 148.5zM236 489q0 -80 6 -130t20 -91 q29 -88 96.5 -135t161.5 -47q96 0 164 47t96 135q14 41 20.5 91.5t6.5 129.5q0 78 -6 128.5t-21 91.5q-29 88 -96.5 135t-163.5 47q-94 0 -161.5 -47t-96.5 -135q-14 -41 -20 -91.5t-6 -128.5zM293 1171q0 14 10 29l147 193q18 25 33 35t37 10q23 0 37 -10.5t33 -34.5 l147 -193q10 -14 10 -29q0 -16 -11 -26t-27 -10q-20 0 -35 18l-152 184h-4l-151 -184q-16 -18 -35 -18q-16 0 -27.5 10t-11.5 26z" />
<glyph unicode="&#xf5;" horiz-adv-x="1042" d="M123 489q0 88 8 146.5t25 107.5q41 123 135 188.5t229 65.5t230.5 -65.5t136.5 -188.5q16 -49 24.5 -107t8.5 -147q0 -90 -8.5 -148t-24.5 -108q-41 -123 -136.5 -188t-230.5 -65t-229 65.5t-135 187.5q-16 49 -24.5 107.5t-8.5 148.5zM236 489q0 -80 6 -130t20 -91 q29 -88 96.5 -135t161.5 -47q96 0 164 47t96 135q14 41 20.5 91.5t6.5 129.5q0 78 -6 128.5t-21 91.5q-29 88 -96.5 135t-163.5 47q-94 0 -161.5 -47t-96.5 -135q-14 -41 -20 -91.5t-6 -128.5zM250 1266q0 14 8 28q33 53 72 77t82 24q35 0 62.5 -11.5t62.5 -33.5 q35 -23 56 -31t38 -8q25 0 41 12t37 41q14 25 41 25q18 0 30.5 -11.5t12.5 -29.5q0 -14 -9 -29q-33 -53 -71.5 -76.5t-81.5 -23.5q-35 0 -62.5 11t-62.5 34t-56.5 31t-37.5 8q-25 0 -41.5 -12.5t-36.5 -41.5q-16 -25 -41 -24q-18 0 -30.5 11t-12.5 30z" />
<glyph unicode="&#xf6;" horiz-adv-x="1042" d="M123 489q0 88 8 146.5t25 107.5q41 123 135 188.5t229 65.5t230.5 -65.5t136.5 -188.5q16 -49 24.5 -107t8.5 -147q0 -90 -8.5 -148t-24.5 -108q-41 -123 -136.5 -188t-230.5 -65t-229 65.5t-135 187.5q-16 49 -24.5 107.5t-8.5 148.5zM236 489q0 -80 6 -130t20 -91 q29 -88 96.5 -135t161.5 -47q96 0 164 47t96 135q14 41 20.5 91.5t6.5 129.5q0 78 -6 128.5t-21 91.5q-29 88 -96.5 135t-163.5 47q-94 0 -161.5 -47t-96.5 -135q-14 -41 -20 -91.5t-6 -128.5zM240 1313q0 33 22.5 56.5t54.5 23.5q33 0 56.5 -23.5t23.5 -56.5t-23.5 -55.5 t-56.5 -22.5t-55 22.5t-22 55.5zM647 1313q0 33 22.5 56.5t55.5 23.5t55.5 -23.5t22.5 -56.5t-22.5 -55.5t-55.5 -22.5t-55.5 22.5t-22.5 55.5z" />
<glyph unicode="&#xf7;" d="M127 565q0 51 57 51h721q57 0 58 -51q0 -51 -58 -51h-721q-57 0 -57 51zM457 264q0 37 25.5 62.5t62.5 25.5t62.5 -25.5t25.5 -62.5t-25.5 -62.5t-62.5 -25.5t-62.5 25.5t-25.5 62.5zM457 866q0 37 25.5 62.5t62.5 25.5t62.5 -25.5t25.5 -62.5t-25.5 -62.5t-62.5 -25.5 t-62.5 25.5t-25.5 62.5z" />
<glyph unicode="&#xf8;" horiz-adv-x="1042" d="M123 487q0 90 9 146.5t26 109.5q39 121 133 187.5t229 66.5q147 0 246 -79l74 110q12 18 30 19q33 0 33 -33q0 -10 -8 -25l-78 -121q41 -51 68 -125q16 -53 25.5 -109t9.5 -147q0 -88 -9.5 -144t-25.5 -110q-39 -121 -133.5 -187t-231.5 -66q-145 0 -248 79l-71 -110 q-13 -19 -31 -19q-33 0 -33 33q0 10 8 25l80 121q-23 27 -40 57.5t-27 66.5q-16 53 -25.5 109.5t-9.5 144.5zM236 487q0 -78 7 -127t21 -90q6 -18 12.5 -33.5t16.5 -29.5l412 620q-70 63 -185 64q-98 0 -162.5 -48t-93.5 -136q-14 -41 -21 -91.5t-7 -128.5zM336 152 q71 -66 184 -66q98 0 164 48t94 136q14 41 21.5 90.5t7.5 126.5q0 78 -7 128.5t-22 91.5q-6 16 -12 31.5t-16 31.5z" />
<glyph unicode="&#xf9;" horiz-adv-x="1095" d="M172 352v574q0 29 15.5 44t39.5 15q25 0 40.5 -15.5t15.5 -43.5v-547q0 -293 252 -293q55 0 103 18.5t83 54.5t55.5 86t20.5 113v568q0 29 15 44t40 15t40 -15.5t15 -43.5v-875q0 -29 -15 -44t-40 -15t-40 15.5t-15 43.5v68h-2q-41 -66 -111 -102.5t-174 -36.5 q-162 0 -250 96t-88 276zM372 1397q0 18 12.5 31.5t35.5 13.5q27 0 43 -27l127 -205q10 -16 10 -30q0 -18 -12 -31.5t-35 -13.5t-37 22l-133 207q-10 16 -11 33z" />
<glyph unicode="&#xfa;" horiz-adv-x="1095" d="M172 352v574q0 29 15.5 44t39.5 15q25 0 40.5 -15.5t15.5 -43.5v-547q0 -293 252 -293q55 0 103 18.5t83 54.5t55.5 86t20.5 113v568q0 29 15 44t40 15t40 -15.5t15 -43.5v-875q0 -29 -15 -44t-40 -15t-40 15.5t-15 43.5v68h-2q-41 -66 -111 -102.5t-174 -36.5 q-162 0 -250 96t-88 276zM489 1180q0 14 11 30l127 205q16 27 43 27q23 0 35 -13.5t12 -31.5q0 -16 -10 -33l-134 -207q-14 -23 -36 -22q-23 0 -35.5 13t-12.5 32z" />
<glyph unicode="&#xfb;" horiz-adv-x="1095" d="M172 352v574q0 29 15.5 44t39.5 15q25 0 40.5 -15.5t15.5 -43.5v-547q0 -293 252 -293q55 0 103 18.5t83 54.5t55.5 86t20.5 113v568q0 29 15 44t40 15t40 -15.5t15 -43.5v-875q0 -29 -15 -44t-40 -15t-40 15.5t-15 43.5v68h-2q-41 -66 -111 -102.5t-174 -36.5 q-162 0 -250 96t-88 276zM320 1171q0 14 10 29l147 193q18 25 33 35t37 10q23 0 37 -10.5t33 -34.5l147 -193q10 -14 10 -29q0 -16 -11 -26t-27 -10q-20 0 -35 18l-152 184h-4l-151 -184q-16 -18 -35 -18q-16 0 -27.5 10t-11.5 26z" />
<glyph unicode="&#xfc;" horiz-adv-x="1095" d="M172 352v574q0 29 15.5 44t39.5 15q25 0 40.5 -15.5t15.5 -43.5v-547q0 -293 252 -293q55 0 103 18.5t83 54.5t55.5 86t20.5 113v568q0 29 15 44t40 15t40 -15.5t15 -43.5v-875q0 -29 -15 -44t-40 -15t-40 15.5t-15 43.5v68h-2q-41 -66 -111 -102.5t-174 -36.5 q-162 0 -250 96t-88 276zM265 1313q0 33 22.5 56.5t54.5 23.5q33 0 56.5 -23.5t23.5 -56.5t-23.5 -55.5t-56.5 -22.5t-55 22.5t-22 55.5zM672 1313q0 33 22.5 56.5t55.5 23.5t55.5 -23.5t22.5 -56.5t-22.5 -55.5t-55.5 -22.5t-55.5 22.5t-22.5 55.5z" />
<glyph unicode="&#xfd;" horiz-adv-x="958" d="M78 934q0 20 15.5 35.5t39.5 15.5q39 0 53 -41l297 -772h2l289 772q14 41 53 41q25 0 39.5 -15.5t14.5 -35.5q0 -14 -4 -27l-385 -1001q-33 -86 -63 -139.5t-62.5 -83t-70.5 -41t-83 -11.5h-16q-29 0 -43.5 15.5t-14.5 38.5t14.5 38t43.5 15q35 0 60.5 7t48 26.5t42 55.5 t41.5 95l39 98l-346 887q-4 12 -4 27zM436 1180q0 14 11 30l127 205q16 27 43 27q23 0 35 -13.5t12 -31.5q0 -16 -10 -33l-134 -207q-14 -23 -36 -22q-23 0 -35.5 13t-12.5 32z" />
<glyph unicode="&#xfe;" horiz-adv-x="1087" d="M188 -317v1658q0 29 15.5 44.5t40.5 15.5t40 -15.5t15 -44.5v-487h2q35 63 103.5 103t189.5 40q125 0 211 -62.5t125 -178.5q18 -59 26.5 -121t8.5 -146q0 -86 -8.5 -147t-26.5 -121q-39 -117 -125 -179t-211 -62q-121 0 -189.5 39.5t-103.5 103.5h-2v-440 q0 -29 -15 -44.5t-40 -15.5t-40.5 15.5t-15.5 44.5zM299 489q0 -74 6 -133t19 -100q29 -86 94 -128t157 -42q94 0 158 46t92 130q16 47 21.5 100.5t5.5 126.5q0 72 -5 125.5t-22 100.5q-29 84 -92 130t-158 46q-92 0 -157.5 -42t-93.5 -128q-12 -41 -18.5 -100.5 t-6.5 -131.5z" />
<glyph unicode="&#xff;" horiz-adv-x="958" d="M78 934q0 20 15.5 35.5t39.5 15.5q39 0 53 -41l297 -772h2l289 772q14 41 53 41q25 0 39.5 -15.5t14.5 -35.5q0 -14 -4 -27l-385 -1001q-33 -86 -63 -139.5t-62.5 -83t-70.5 -41t-83 -11.5h-16q-29 0 -43.5 15.5t-14.5 38.5t14.5 38t43.5 15q35 0 60.5 7t48 26.5t42 55.5 t41.5 95l39 98l-346 887q-4 12 -4 27zM197 1313q0 33 22.5 56.5t54.5 23.5q33 0 56.5 -23.5t23.5 -56.5t-23.5 -55.5t-56.5 -22.5t-55 22.5t-22 55.5zM604 1313q0 33 22.5 56.5t55.5 23.5t55.5 -23.5t22.5 -56.5t-22.5 -55.5t-55.5 -22.5t-55.5 22.5t-22.5 55.5z" />
<glyph unicode="&#x152;" horiz-adv-x="1941" d="M133 696q0 90 3 153.5t8.5 110t12.5 79t17 61.5q51 154 165 233.5t286 79.5q123 0 218 -47t148 -152h4v123q0 55 58 56h729q29 0 44 -15.5t15 -40.5t-15.5 -40t-43.5 -15h-658q-12 0 -12 -12v-496q0 -12 12 -12h562q29 0 44 -15.5t15 -39.5q0 -25 -15.5 -40.5 t-43.5 -15.5h-562q-12 0 -12 -12v-516q0 -12 12 -12h658q29 0 44 -15.5t15 -40.5t-15.5 -40t-43.5 -15h-729q-57 0 -58 55v123h-4q-53 -104 -148 -151t-218 -47q-172 0 -286 79.5t-165 233.5q-10 27 -17 60.5t-12.5 79.5t-8.5 109.5t-3 153.5zM252 696q0 -84 3 -145.5 t7 -104.5t11.5 -71.5t13.5 -48.5q78 -236 338 -236q258 0 336 236q6 20 13 48.5t11 71.5t7 104.5t3 145.5t-3 145.5t-7 104.5t-11 72t-13 49q-78 236 -336 236q-260 0 -338 -236q-6 -20 -13.5 -49t-11.5 -72t-7 -104.5t-3 -145.5z" />
<glyph unicode="&#x153;" horiz-adv-x="1712" d="M123 487q0 90 9 146.5t26 109.5q39 121 133 187.5t229 66.5q119 0 206 -55t134 -151h2q47 96 132 151t202 55q133 0 227.5 -65.5t135.5 -188.5q16 -47 23 -103t7 -130q0 -51 -51 -51h-608q-12 0 -12 -13q0 -55 4 -94t16 -76q33 -98 104.5 -144t171.5 -46q84 0 146.5 26.5 t118.5 84.5q8 8 18 14t23 6q23 0 36 -13.5t13 -33.5q0 -23 -13 -37q-53 -66 -139 -109.5t-209 -43.5q-248 0 -346 204h-2q-47 -100 -134 -152t-206 -52q-135 0 -229 66.5t-133 186.5q-16 53 -25.5 109.5t-9.5 144.5zM236 487q0 -78 7 -127t21 -90q29 -88 93.5 -136 t162.5 -48t164 48t94 136q14 41 21.5 90.5t7.5 126.5q0 78 -7 128.5t-22 91.5q-29 88 -94.5 136t-163.5 48t-162.5 -48t-93.5 -136q-14 -41 -21 -91.5t-7 -128.5zM918 571q0 -12 12 -12h534q12 0 13 12q0 43 -4.5 77t-14.5 63q-29 92 -97.5 138t-164.5 46t-163.5 -46 t-96.5 -138q-10 -29 -14 -63t-4 -77z" />
<glyph unicode="&#x178;" horiz-adv-x="1038" d="M57 1348q0 23 16.5 38t41.5 15q33 0 51 -31l358 -659h6l353 659q14 31 51 31q25 0 40 -15.5t15 -37.5q0 -14 -8 -31l-399 -746v-516q0 -31 -16.5 -47t-43.5 -16q-25 0 -41 16.5t-16 46.5v516l-399 746q-8 16 -9 31zM238 1688q0 33 22.5 56t54.5 23q33 0 56.5 -23.5 t23.5 -55.5q0 -33 -23.5 -55.5t-56.5 -22.5t-55 22.5t-22 55.5zM645 1688q0 33 22.5 56t55.5 23t55.5 -23.5t22.5 -55.5q0 -33 -22.5 -55.5t-55.5 -22.5t-55.5 22.5t-22.5 55.5z" />
<glyph unicode="&#x2c6;" horiz-adv-x="864" d="M205 1171q0 14 10 29l147 193q18 25 33 35t37 10q23 0 37 -10.5t33 -34.5l147 -193q10 -14 10 -29q0 -16 -11 -26t-27 -10q-20 0 -35 18l-152 184h-4l-151 -184q-16 -18 -35 -18q-16 0 -27.5 10t-11.5 26z" />
<glyph unicode="&#x2dc;" horiz-adv-x="864" d="M162 1266q0 14 8 28q33 53 72 77t82 24q35 0 62.5 -11.5t62.5 -33.5q35 -23 56 -31t38 -8q25 0 41 12t37 41q14 25 41 25q18 0 30.5 -11.5t12.5 -29.5q0 -14 -9 -29q-33 -53 -71.5 -76.5t-81.5 -23.5q-35 0 -62.5 11t-62.5 34t-56.5 31t-37.5 8q-25 0 -41.5 -12.5 t-36.5 -41.5q-16 -25 -41 -24q-18 0 -30.5 11t-12.5 30z" />
<glyph unicode="&#x2000;" horiz-adv-x="936" />
<glyph unicode="&#x2001;" horiz-adv-x="1872" />
<glyph unicode="&#x2002;" horiz-adv-x="936" />
<glyph unicode="&#x2003;" horiz-adv-x="1872" />
<glyph unicode="&#x2004;" horiz-adv-x="624" />
<glyph unicode="&#x2005;" horiz-adv-x="468" />
<glyph unicode="&#x2006;" horiz-adv-x="312" />
<glyph unicode="&#x2007;" horiz-adv-x="312" />
<glyph unicode="&#x2008;" horiz-adv-x="234" />
<glyph unicode="&#x2009;" horiz-adv-x="374" />
<glyph unicode="&#x200a;" horiz-adv-x="104" />
<glyph unicode="&#x2010;" horiz-adv-x="765" d="M92 543q0 51 58 51h466q57 0 58 -51q0 -51 -58 -51h-466q-57 0 -58 51z" />
<glyph unicode="&#x2011;" horiz-adv-x="765" d="M92 543q0 51 58 51h466q57 0 58 -51q0 -51 -58 -51h-466q-57 0 -58 51z" />
<glyph unicode="&#x2012;" horiz-adv-x="765" d="M92 543q0 51 58 51h466q57 0 58 -51q0 -51 -58 -51h-466q-57 0 -58 51z" />
<glyph unicode="&#x2013;" horiz-adv-x="1032" d="M47 545q0 51 55 51h828q55 0 55 -51t-55 -51h-828q-55 0 -55 51z" />
<glyph unicode="&#x2014;" horiz-adv-x="1699" d="M47 545q0 51 55 51h1495q55 0 56 -51q0 -51 -56 -51h-1495q-55 0 -55 51z" />
<glyph unicode="&#x2018;" horiz-adv-x="423" d="M125 1090q0 12 4 24l78 242q12 45 53 45q23 0 38 -14.5t15 -38.5q0 -12 -4 -25l-78 -242q-12 -45 -53 -45q-23 0 -38 14.5t-15 39.5z" />
<glyph unicode="&#x2019;" horiz-adv-x="423" d="M125 1090q0 12 4 24l78 242q12 45 53 45q23 0 38 -14.5t15 -38.5q0 -12 -4 -25l-78 -242q-12 -45 -53 -45q-23 0 -38 14.5t-15 39.5z" />
<glyph unicode="&#x201a;" horiz-adv-x="423" d="M127 -170q0 12 4 25l78 241q12 45 53 45q23 0 38 -14t15 -39q0 -12 -4 -25l-78 -241q-12 -45 -53 -45q-23 0 -38 14t-15 39z" />
<glyph unicode="&#x201c;" horiz-adv-x="708" d="M125 1090q0 12 4 24l78 242q12 45 53 45q23 0 38 -14.5t15 -38.5q0 -12 -4 -25l-78 -242q-12 -45 -53 -45q-23 0 -38 14.5t-15 39.5zM403 1090q0 12 5 24l77 242q12 45 54 45q23 0 38 -14.5t15 -38.5q0 -12 -4 -25l-78 -242q-12 -45 -53 -45q-23 0 -38.5 14.5t-15.5 39.5 z" />
<glyph unicode="&#x201d;" horiz-adv-x="708" d="M125 1090q0 12 4 24l78 242q12 45 53 45q23 0 38 -14.5t15 -38.5q0 -12 -4 -25l-78 -242q-12 -45 -53 -45q-23 0 -38 14.5t-15 39.5zM403 1090q0 12 5 24l77 242q12 45 54 45q23 0 38 -14.5t15 -38.5q0 -12 -4 -25l-78 -242q-12 -45 -53 -45q-23 0 -38.5 14.5t-15.5 39.5 z" />
<glyph unicode="&#x201e;" horiz-adv-x="708" d="M129 -170q0 12 4 25l78 241q12 45 53 45q23 0 38 -14t15 -39q0 -12 -4 -25l-77 -241q-12 -45 -54 -45q-23 0 -38 14t-15 39zM408 -170q0 12 4 25l77 241q12 45 54 45q23 0 38 -14t15 -39q0 -12 -4 -25l-78 -241q-12 -45 -53 -45q-23 0 -38 14t-15 39z" />
<glyph unicode="&#x2022;" horiz-adv-x="794" d="M162 631q0 49 18.5 91t51 74.5t74.5 51t91 18.5t91 -18.5t75 -51t51.5 -74.5t18.5 -91t-18.5 -91t-51.5 -75t-75 -51.5t-91 -18.5t-91 18.5t-74.5 51.5t-51 75t-18.5 91z" />
<glyph unicode="&#x2026;" horiz-adv-x="1345" d="M154 82q0 37 26.5 63.5t63.5 26.5t63.5 -26.5t26.5 -63.5t-26.5 -63.5t-63.5 -26.5t-63.5 26.5t-26.5 63.5zM602 82q0 37 26.5 63.5t63.5 26.5t63.5 -26.5t26.5 -63.5t-26.5 -63.5t-63.5 -26.5t-63.5 26.5t-26.5 63.5zM1051 82q0 37 26.5 63.5t63.5 26.5t63.5 -26.5 t26.5 -63.5t-26.5 -63.5t-63.5 -26.5t-63.5 26.5t-26.5 63.5z" />
<glyph unicode="&#x202f;" horiz-adv-x="374" />
<glyph unicode="&#x2039;" horiz-adv-x="667" d="M129 541q0 27 33 59l260 266q16 16 37 17q23 0 36 -13.5t13 -33.5q0 -18 -16 -37l-244 -250q-8 -8 0 -17l244 -249q16 -18 16 -37q0 -20 -13 -33.5t-36 -13.5q-20 0 -37 16l-260 266q-18 18 -25.5 30.5t-7.5 29.5z" />
<glyph unicode="&#x203a;" horiz-adv-x="667" d="M160 246q0 18 16 37l244 249q8 8 0 17l-244 250q-16 18 -16 37q0 20 13 33.5t36 13.5q20 0 37 -17l260 -266q18 -18 25.5 -30.5t7.5 -28.5t-7.5 -28.5t-25.5 -31.5l-260 -266q-17 -16 -37 -16q-23 0 -36 13t-13 34z" />
<glyph unicode="&#x205f;" horiz-adv-x="468" />
<glyph unicode="&#x20ac;" d="M94 575q0 47 51 48h70q12 0 12 12v135q0 12 -12 12h-70q-51 0 -51 47q0 45 51 45h70q12 0 12 13q0 102 6.5 160.5t22.5 105.5q84 260 369 260q135 0 221 -62.5t127 -150.5q6 -12 6 -26q0 -23 -14.5 -37.5t-34.5 -14.5q-33 0 -53 37q-37 66 -99.5 107t-152.5 41 q-98 0 -165 -44t-95 -137q-12 -39 -18.5 -90t-6.5 -149q0 -12 12 -13h416q51 0 51 -45q0 -47 -51 -47h-416q-12 0 -12 -12v-135q0 -12 12 -12h334q51 0 51 -48q0 -45 -51 -45h-334q-12 0 -12 -12q0 -53 1 -92t4 -68.5t8 -51t12 -40.5q29 -92 95 -136t165 -44q90 0 152.5 41 t99.5 106q20 37 53 37q20 0 34.5 -14t14.5 -37q0 -14 -6 -26q-41 -88 -127 -150.5t-221 -62.5q-285 0 -369 260q-16 47 -22.5 107.5t-6.5 170.5q0 12 -12 12h-70q-51 0 -51 45z" />
<glyph unicode="&#x2122;" horiz-adv-x="1673" d="M80 1352q0 41 45 41h526q45 0 45 -41t-45 -41h-207q-12 0 -12 -13v-667q0 -49 -43 -49q-45 0 -45 49v667q0 12 -12 13h-207q-45 0 -45 41zM842 629v714q0 53 49 54q35 0 59 -54l252 -530h6l254 530q12 29 24.5 41.5t35.5 12.5q47 0 47 -54v-714q0 -23 -12.5 -35 t-30.5 -12q-43 0 -43 47v557h-4l-217 -443q-23 -47 -58 -47q-33 0 -55 47l-217 443h-4v-557q0 -23 -12.5 -35t-30.5 -12q-43 0 -43 47z" />
<glyph unicode="&#x25fc;" horiz-adv-x="983" d="M0 0v983h983v-983h-983z" />
</font>
</defs>
</svg>
